<?xml version="1.0" encoding="utf-8"?>
<!-- Generator: Adobe Illustrator 22.0.1, SVG Export Plug-In . SVG Version: 6.00 Build 0)  -->
<svg version="1.1" id="Layer_1" xmlns="http://www.w3.org/2000/svg" xmlns:xlink="http://www.w3.org/1999/xlink" x="0px" y="0px"
	 viewBox="0 0 990 447.2" style="enable-background:new 0 0 990 447.2;" xml:space="preserve">
<style type="text/css">
	.st0{fill:#E74C3C;}
	.st1{fill:#EFEFEF;}
	.st2{fill:#CAFCD8;}
	.st3{fill:#1C425C;}
</style>
<g id="Layer_1_1_">
</g>
<g id="Outlined">
	<g>
		<path class="st0" d="M92.209,92.844v40.8c-0.2,3.801-8.9,6.601-19.8,6.601s-19.7-3-19.8-6.601v-40.8c0.2-3.8,8.9-6.6,19.8-6.6
			C83.31,86.045,92.009,89.144,92.209,92.844"/>
		<path class="st0" d="M92.209,200.844v40.7c-0.2,3.8-8.9,6.6-19.8,6.6s-19.7-3-19.8-6.6v-40.8c0.2-3.8,8.9-6.601,19.8-6.601
			C83.31,194.045,92.009,197.045,92.209,200.844"/>
		<path class="st0" d="M92.209,309.144v40.801c-0.2,3.8-8.9,6.6-19.8,6.6s-19.7-3-19.8-6.6v-40.801c0.2-3.8,8.9-6.6,19.8-6.6
			C83.31,302.344,92.009,305.445,92.209,309.144"/>
		<path class="st1" d="M221.91,130.644h-72.4c-4.8,0-8.8-3.899-8.8-8.8v-17.399c0-4.801,3.9-8.801,8.8-8.801h72.4
			c4.8,0,8.8,3.9,8.8,8.801v17.399C230.709,126.745,226.709,130.644,221.91,130.644z"/>
		<path class="st1" d="M336.209,130.644h-72.4c-4.8,0-8.8-3.899-8.8-8.8v-17.399c0-4.801,3.9-8.801,8.8-8.801h72.4
			c4.8,0,8.8,3.9,8.8,8.801v17.399C345.009,126.745,341.109,130.644,336.209,130.644z"/>
		<path class="st1" d="M221.91,191.945h-72.4c-4.8,0-8.8-3.9-8.8-8.801v-17.399c0-4.8,3.9-8.8,8.8-8.8h72.4c4.8,0,8.8,3.899,8.8,8.8
			v17.399C230.709,188.045,226.709,191.945,221.91,191.945z"/>
		<path class="st1" d="M336.209,191.945h-72.4c-4.8,0-8.8-3.9-8.8-8.801v-17.399c0-4.8,3.9-8.8,8.8-8.8h72.4
			c4.8,0,8.8,3.899,8.8,8.8v17.399C345.009,188.045,341.109,191.945,336.209,191.945z"/>
		<path class="st1" d="M221.91,288.144h-72.4c-4.8,0-8.8-3.899-8.8-8.8v-17.399c0-4.801,3.9-8.801,8.8-8.801h72.4
			c4.8,0,8.8,3.9,8.8,8.801v17.399C230.709,284.144,226.709,288.144,221.91,288.144z"/>
		<path class="st1" d="M336.209,288.144h-72.4c-4.8,0-8.8-3.899-8.8-8.8v-17.399c0-4.801,3.9-8.801,8.8-8.801h72.4
			c4.8,0,8.8,3.9,8.8,8.801v17.399C345.009,284.144,341.109,288.144,336.209,288.144z"/>
		<path class="st1" d="M476.609,239.545h-74c-4.9,0-8.9-4-8.9-8.9v-17.3c0-4.899,4-8.899,8.9-8.899h74c4.9,0,8.9,4,8.9,8.899v17.3
			C485.509,235.545,481.509,239.545,476.609,239.545z"/>
		<path class="st1" d="M584.909,239.545h-74c-4.899,0-8.899-4-8.899-8.9v-17.3c0-4.899,4-8.899,8.899-8.899h74
			c4.9,0,8.9,4,8.9,8.899v17.3C593.81,235.545,589.81,239.545,584.909,239.545z"/>
		<path class="st1" d="M833.427,239.545h-72.399c-4.8,0-8.8-3.9-8.8-8.8v-17.4c0-4.8,3.899-8.8,8.8-8.8h72.399
			c4.801,0,8.801,3.9,8.801,8.8v17.4C842.228,235.644,838.327,239.545,833.427,239.545z"/>
		<path class="st1" d="M940.409,239.545H868.01c-4.801,0-8.801-3.9-8.801-8.8v-17.4c0-4.8,3.9-8.8,8.801-8.8h72.399
			c4.8,0,8.8,3.9,8.8,8.8v17.4C949.209,235.644,945.209,239.545,940.409,239.545z"/>
		<path class="st1" d="M708.51,239.545h-72.4c-4.8,0-8.8-3.9-8.8-8.8v-17.4c0-4.8,3.899-8.8,8.8-8.8h72.4c4.8,0,8.8,3.9,8.8,8.8
			v17.4C717.31,235.644,713.409,239.545,708.51,239.545z"/>
		<path class="st1" d="M708.51,177.644h-72.4c-4.8,0-8.8-3.899-8.8-8.8v-17.399c0-4.801,3.899-8.801,8.8-8.801h72.4
			c4.8,0,8.8,3.9,8.8,8.801v17.399C717.31,173.644,713.409,177.644,708.51,177.644z"/>
		<path class="st1" d="M708.51,301.445h-72.4c-4.8,0-8.8-3.9-8.8-8.801v-17.399c0-4.8,3.899-8.8,8.8-8.8h72.4
			c4.8,0,8.8,3.899,8.8,8.8v17.399C717.31,297.545,713.409,301.445,708.51,301.445z"/>
		<path class="st1" d="M221.91,349.844h-72.4c-4.8,0-8.8-3.899-8.8-8.8v-17.4c0-4.8,3.9-8.8,8.8-8.8h72.4c4.8,0,8.8,3.9,8.8,8.8
			v17.4C230.709,345.945,226.709,349.844,221.91,349.844z"/>
		<path class="st1" d="M336.209,349.844h-72.4c-4.8,0-8.8-3.899-8.8-8.8v-17.4c0-4.8,3.9-8.8,8.8-8.8h72.4c4.8,0,8.8,3.9,8.8,8.8
			v17.4C345.009,345.945,341.109,349.844,336.209,349.844z"/>
		<path class="st2" d="M698.609,42.344v53.9c-0.2,4.899-11.9,8.899-26.3,8.899c-14.4,0-26.101-4-26.3-8.899v-53.9
			c0.199-4.899,11.899-8.899,26.3-8.899C686.709,33.445,698.409,37.445,698.609,42.344"/>
		<rect x="795.709" y="85.045" class="st3" width="3" height="5"/>
		<rect x="795.709" y="95.045" class="st3" width="3" height="5"/>
		<rect x="795.709" y="155.045" class="st3" width="3" height="5"/>
		<rect x="795.709" y="115.045" class="st3" width="3" height="5"/>
		<rect x="795.709" y="185.045" class="st3" width="3" height="5"/>
		<rect x="795.709" y="125.045" class="st3" width="3" height="5"/>
		<rect x="795.709" y="135.045" class="st3" width="3" height="5"/>
		<rect x="795.709" y="145.045" class="st3" width="3" height="5"/>
		<rect x="795.709" y="195.045" class="st3" width="3" height="5"/>
		<rect x="795.709" y="175.045" class="st3" width="3" height="5"/>
		<rect x="795.709" y="105.045" class="st3" width="3" height="5"/>
		<rect x="795.709" y="165.045" class="st3" width="3" height="5"/>
		<rect x="795.709" y="75.045" class="st3" width="3" height="5"/>
		<rect x="670.81" y="115.144" class="st3" width="3" height="5"/>
		<rect x="670.81" y="125.144" class="st3" width="3" height="5"/>
		<rect x="670.81" y="135.144" class="st3" width="3" height="5"/>
		<rect x="670.81" y="195.144" class="st3" width="3" height="5"/>
		<rect x="670.81" y="245.144" class="st3" width="3" height="5"/>
		<rect x="670.81" y="185.144" class="st3" width="3" height="5"/>
		<rect x="670.81" y="255.144" class="st3" width="3" height="5"/>
		<path class="st3" d="M170.131,113.088c0.532-0.518,0.771-1.036,0.771-1.709c0-0.882-0.504-1.751-1.288-2.199
			c-0.505-0.294-1.177-0.434-2.13-0.434h-2.241v9.343h2.676c0.883,0,1.442-0.112,1.975-0.42c0.925-0.505,1.443-1.373,1.443-2.354
			C171.336,114.405,170.915,113.62,170.131,113.088z M167.063,110.384h0.574c0.574,0,1.009,0.098,1.19,0.28
			c0.196,0.182,0.309,0.477,0.309,0.784c0,0.406-0.196,0.757-0.519,0.938c-0.21,0.112-0.448,0.154-0.98,0.154h-0.574
			L167.063,110.384L167.063,110.384z M168.954,116.212c-0.266,0.154-0.532,0.196-1.106,0.196h-0.784v-2.325h0.658
			c0.673,0,1.009,0.056,1.289,0.224c0.308,0.183,0.504,0.547,0.504,0.938C169.515,115.666,169.305,116.015,168.954,116.212z"/>
		<path class="st3" d="M177.93,114.474c0,0.757-0.042,1.079-0.196,1.345c-0.252,0.435-0.883,0.743-1.499,0.743
			s-1.247-0.309-1.499-0.743c-0.153-0.266-0.196-0.588-0.196-1.345v-5.729h-1.862v5.981c0,0.826,0.126,1.4,0.406,1.891
			c0.616,1.036,1.835,1.695,3.151,1.695s2.535-0.659,3.138-1.695c0.294-0.504,0.42-1.064,0.42-1.891v-5.981h-1.862v5.729H177.93z"/>
		<rect x="181.664" y="108.746" class="st3" width="1.863" height="9.343"/>
		<polygon class="st3" points="187.265,108.746 185.402,108.746 185.402,118.089 190.627,118.089 190.627,116.351 187.265,116.351 
					"/>
		<path class="st3" d="M193.775,108.746h-2.213v9.343h2.213c3.124,0,5.127-1.835,5.127-4.679S196.899,108.746,193.775,108.746z
			 M193.831,116.351h-0.406v-5.869h0.406c1.976,0,3.194,1.106,3.194,2.928C197.025,115.245,195.82,116.351,193.831,116.351z"/>
		<polygon class="st3" points="202.355,110.091 203.252,111.603 204.331,111.001 204.331,118.089 206.193,118.089 206.193,108.746 
			204.737,108.746 		"/>
		<path class="st3" d="M285.962,108.746l-3.488,9.343h1.961l0.785-2.171h3.684l0.771,2.171h1.975l-3.488-9.343H285.962z
			 M285.822,114.18l1.233-3.445l1.232,3.445H285.822z"/>
		<path class="st3" d="M296.575,116.562c-1.709,0-3.067-1.388-3.067-3.138c0-1.779,1.331-3.152,3.054-3.152
			c0.938,0,1.569,0.336,2.437,1.289l1.317-1.261c-1.191-1.247-2.297-1.779-3.74-1.779c-2.745,0-4.958,2.186-4.958,4.903
			c0,2.703,2.213,4.889,4.973,4.889c1.443,0,2.549-0.519,3.782-1.808l-1.331-1.246C298.13,116.225,297.5,116.562,296.575,116.562z"
			/>
		<path class="st3" d="M305.661,116.562c-1.709,0-3.067-1.388-3.067-3.138c0-1.779,1.331-3.152,3.054-3.152
			c0.938,0,1.569,0.336,2.437,1.289l1.317-1.261c-1.191-1.247-2.297-1.779-3.74-1.779c-2.745,0-4.958,2.186-4.958,4.903
			c0,2.703,2.213,4.889,4.973,4.889c1.443,0,2.549-0.519,3.782-1.808l-1.331-1.246C307.216,116.225,306.586,116.562,305.661,116.562
			z"/>
		<polygon class="st3" points="312.785,110.091 313.681,111.603 314.76,111.001 314.76,118.089 316.623,118.089 316.623,108.746 
			315.166,108.746 		"/>
		<path class="st3" d="M168.737,179.005c0.925-0.505,1.443-1.373,1.443-2.354c0-0.91-0.421-1.695-1.205-2.228
			c0.532-0.518,0.771-1.036,0.771-1.709c0-0.882-0.504-1.751-1.288-2.199c-0.505-0.294-1.177-0.434-2.13-0.434h-2.241v9.343h2.676
			C167.646,179.425,168.205,179.312,168.737,179.005z M165.908,171.72h0.574c0.574,0,1.009,0.098,1.19,0.28
			c0.196,0.182,0.309,0.477,0.309,0.784c0,0.406-0.196,0.757-0.519,0.938c-0.21,0.112-0.448,0.154-0.98,0.154h-0.574L165.908,171.72
			L165.908,171.72z M165.908,177.744v-2.325h0.658c0.673,0,1.009,0.056,1.289,0.224c0.308,0.183,0.504,0.547,0.504,0.938
			c0,0.421-0.21,0.771-0.561,0.967c-0.266,0.154-0.532,0.196-1.106,0.196H165.908z"/>
		<path class="st3" d="M175.079,179.649c1.316,0,2.535-0.659,3.138-1.695c0.294-0.504,0.42-1.064,0.42-1.891v-5.981h-1.862v5.729
			c0,0.757-0.042,1.079-0.196,1.345c-0.252,0.435-0.883,0.743-1.499,0.743s-1.247-0.309-1.499-0.743
			c-0.153-0.266-0.196-0.588-0.196-1.345v-5.729h-1.862v5.981c0,0.826,0.126,1.4,0.406,1.891
			C172.544,178.99,173.763,179.649,175.079,179.649z"/>
		<rect x="180.509" y="170.082" class="st3" width="1.863" height="9.343"/>
		<polygon class="st3" points="189.472,177.687 186.109,177.687 186.109,170.082 184.247,170.082 184.247,179.425 189.472,179.425 
					"/>
		<path class="st3" d="M197.747,174.746c0-2.844-2.003-4.664-5.127-4.664h-2.213v9.343h2.213
			C195.744,179.425,197.747,177.59,197.747,174.746z M192.27,171.818h0.406c1.976,0,3.194,1.106,3.194,2.928
			c0,1.835-1.205,2.941-3.194,2.941h-0.406V171.818z"/>
		<path class="st3" d="M204.898,171.581c0.7,0,1.135,0.378,1.135,0.994c0,0.519-0.294,1.106-0.883,1.765l-3.306,3.643v1.442h6.233
			v-1.723h-3.572l2.367-2.62c0.659-0.728,1.009-1.568,1.009-2.451c0-1.652-1.204-2.773-2.983-2.773
			c-1.022,0-1.947,0.406-2.466,1.093c-0.35,0.435-0.546,0.883-0.7,1.611l1.724,0.462
			C203.777,171.888,204.072,171.581,204.898,171.581z"/>
		<path class="st3" d="M284.065,177.254h3.684l0.771,2.171h1.975l-3.488-9.343h-2.199l-3.488,9.343h1.961L284.065,177.254z
			 M285.9,172.071l1.232,3.445h-2.465L285.9,172.071z"/>
		<path class="st3" d="M295.435,179.649c1.443,0,2.549-0.519,3.782-1.808l-1.331-1.246c-0.91,0.966-1.541,1.303-2.465,1.303
			c-1.709,0-3.067-1.388-3.067-3.138c0-1.779,1.331-3.152,3.054-3.152c0.938,0,1.569,0.336,2.437,1.289l1.317-1.261
			c-1.191-1.247-2.297-1.779-3.74-1.779c-2.745,0-4.958,2.186-4.958,4.903C290.462,177.464,292.675,179.649,295.435,179.649z"/>
		<path class="st3" d="M304.521,179.649c1.443,0,2.549-0.519,3.782-1.808l-1.331-1.246c-0.91,0.966-1.541,1.303-2.465,1.303
			c-1.709,0-3.067-1.388-3.067-3.138c0-1.779,1.331-3.152,3.054-3.152c0.938,0,1.569,0.336,2.437,1.289l1.317-1.261
			c-1.191-1.247-2.297-1.779-3.74-1.779c-2.745,0-4.958,2.186-4.958,4.903C299.548,177.464,301.761,179.649,304.521,179.649z"/>
		<path class="st3" d="M315.328,171.581c0.701,0,1.135,0.378,1.135,0.994c0,0.519-0.294,1.106-0.882,1.765l-3.306,3.643v1.442h6.233
			v-1.723h-3.572l2.367-2.62c0.659-0.728,1.009-1.568,1.009-2.451c0-1.652-1.205-2.773-2.984-2.773
			c-1.022,0-1.947,0.406-2.465,1.093c-0.35,0.435-0.546,0.883-0.7,1.611l1.723,0.462
			C314.207,171.888,314.501,171.581,315.328,171.581z"/>
		<path class="st3" d="M169.018,270.564c0.532-0.518,0.771-1.036,0.771-1.709c0-0.882-0.504-1.751-1.288-2.199
			c-0.505-0.294-1.177-0.434-2.13-0.434h-2.241v9.343h2.676c0.883,0,1.442-0.112,1.975-0.42c0.925-0.505,1.443-1.373,1.443-2.354
			C170.223,271.882,169.802,271.096,169.018,270.564z M165.95,267.861h0.574c0.574,0,1.009,0.098,1.19,0.28
			c0.196,0.182,0.309,0.477,0.309,0.784c0,0.406-0.196,0.757-0.519,0.938c-0.21,0.112-0.448,0.154-0.98,0.154h-0.574L165.95,267.861
			L165.95,267.861z M167.841,273.688c-0.266,0.154-0.532,0.196-1.106,0.196h-0.784v-2.325h0.658c0.673,0,1.009,0.056,1.289,0.224
			c0.308,0.183,0.504,0.547,0.504,0.938C168.401,273.142,168.191,273.492,167.841,273.688z"/>
		<path class="st3" d="M176.816,271.951c0,0.757-0.042,1.079-0.196,1.345c-0.252,0.435-0.883,0.743-1.499,0.743
			s-1.247-0.309-1.499-0.743c-0.153-0.266-0.196-0.588-0.196-1.345v-5.729h-1.862v5.981c0,0.826,0.126,1.4,0.406,1.891
			c0.616,1.036,1.835,1.695,3.151,1.695s2.535-0.659,3.138-1.695c0.294-0.504,0.42-1.064,0.42-1.891v-5.981h-1.862v5.729H176.816z"
			/>
		<rect x="180.551" y="266.222" class="st3" width="1.863" height="9.343"/>
		<polygon class="st3" points="186.151,266.222 184.289,266.222 184.289,275.565 189.514,275.565 189.514,273.828 186.151,273.828 
					"/>
		<path class="st3" d="M192.662,266.222h-2.213v9.343h2.213c3.124,0,5.127-1.835,5.127-4.679S195.786,266.222,192.662,266.222z
			 M192.718,273.828h-0.406v-5.869h0.406c1.976,0,3.194,1.106,3.194,2.928C195.912,272.721,194.707,273.828,192.718,273.828z"/>
		<path class="st3" d="M207.644,268.758c0-1.597-1.274-2.76-3.025-2.76c-1.331,0-2.186,0.547-2.983,1.892l1.541,0.84
			c0.56-0.798,0.854-1.008,1.456-1.008c0.715,0,1.177,0.42,1.177,1.078c0,0.7-0.434,1.064-1.246,1.064h-0.785v1.653h0.785
			c0.938,0,1.429,0.406,1.429,1.219c0,0.798-0.561,1.33-1.387,1.33c-0.799,0-1.135-0.364-1.443-1.526l-1.793,0.476
			c0.21,0.827,0.393,1.261,0.742,1.695c0.547,0.673,1.472,1.079,2.479,1.079c1.877,0,3.264-1.289,3.264-3.04
			c0-0.91-0.294-1.541-1.008-2.157C207.392,270.06,207.644,269.486,207.644,268.758z"/>
		<path class="st3" d="M284.85,266.222l-3.488,9.343h1.961l0.785-2.171h3.684l0.771,2.171h1.975l-3.488-9.343H284.85z
			 M284.709,271.657l1.233-3.445l1.232,3.445H284.709z"/>
		<path class="st3" d="M295.462,274.039c-1.709,0-3.067-1.388-3.067-3.138c0-1.779,1.331-3.152,3.054-3.152
			c0.938,0,1.569,0.336,2.437,1.289l1.317-1.261c-1.191-1.247-2.297-1.779-3.74-1.779c-2.745,0-4.958,2.186-4.958,4.903
			c0,2.703,2.213,4.889,4.973,4.889c1.443,0,2.549-0.519,3.782-1.808l-1.331-1.246C297.018,273.702,296.387,274.039,295.462,274.039
			z"/>
		<path class="st3" d="M304.548,274.039c-1.709,0-3.067-1.388-3.067-3.138c0-1.779,1.331-3.152,3.054-3.152
			c0.938,0,1.569,0.336,2.437,1.289l1.317-1.261c-1.191-1.247-2.297-1.779-3.74-1.779c-2.745,0-4.958,2.186-4.958,4.903
			c0,2.703,2.213,4.889,4.973,4.889c1.443,0,2.549-0.519,3.782-1.808l-1.331-1.246C306.104,273.702,305.473,274.039,304.548,274.039
			z"/>
		<path class="st3" d="M318.073,268.758c0-1.597-1.275-2.76-3.025-2.76c-1.331,0-2.186,0.547-2.984,1.892l1.541,0.84
			c0.56-0.798,0.854-1.008,1.457-1.008c0.714,0,1.177,0.42,1.177,1.078c0,0.7-0.434,1.064-1.247,1.064h-0.785v1.653h0.785
			c0.938,0,1.429,0.406,1.429,1.219c0,0.798-0.561,1.33-1.387,1.33c-0.798,0-1.135-0.364-1.443-1.526l-1.793,0.476
			c0.21,0.827,0.392,1.261,0.743,1.695c0.546,0.673,1.471,1.079,2.479,1.079c1.877,0,3.264-1.289,3.264-3.04
			c0-0.91-0.294-1.541-1.008-2.157C317.821,270.06,318.073,269.486,318.073,268.758z"/>
		<path class="st3" d="M415.455,218.061c-0.504-0.294-1.12-0.42-2.03-0.42h-2.214v9.343h1.863v-3.39h0.351
			c0.91,0,1.526-0.126,2.03-0.421c0.869-0.49,1.401-1.471,1.401-2.562C416.856,219.518,416.324,218.551,415.455,218.061z
			 M413.551,221.899h-0.477v-2.549h0.477c1.022,0,1.484,0.392,1.484,1.274S414.573,221.899,413.551,221.899z"/>
		<path class="st3" d="M419.809,217.641l-3.488,9.343h1.961l0.785-2.171h3.684l0.771,2.171h1.975l-3.487-9.343H419.809z
			 M419.668,223.076l1.233-3.445l1.232,3.445H419.668z"/>
		<path class="st3" d="M430.422,225.458c-1.709,0-3.067-1.388-3.067-3.138c0-1.779,1.33-3.152,3.054-3.152
			c0.938,0,1.568,0.336,2.437,1.289l1.317-1.261c-1.191-1.247-2.298-1.779-3.74-1.779c-2.745,0-4.959,2.186-4.959,4.903
			c0,2.703,2.214,4.889,4.973,4.889c1.443,0,2.55-0.519,3.782-1.808l-1.331-1.246C431.977,225.121,431.347,225.458,430.422,225.458z
			"/>
		<polygon class="st3" points="440.558,217.641 437.182,221.283 437.182,217.641 435.319,217.641 435.319,226.984 437.182,226.984 
			437.182,223.818 437.967,222.964 440.628,226.984 442.841,226.984 439.241,221.605 442.925,217.641 		"/>
		<path class="st3" d="M446.66,217.641l-3.487,9.343h1.961l0.784-2.171h3.684l0.771,2.171h1.976l-3.488-9.343H446.66z
			 M446.521,223.076l1.232-3.445l1.232,3.445H446.521z"/>
		<path class="st3" d="M457.175,223.482h2.55c-0.112,0.574-0.238,0.854-0.561,1.205c-0.476,0.518-1.093,0.771-1.849,0.771
			c-1.765,0-3.109-1.359-3.109-3.138s1.33-3.152,3.081-3.152c0.938,0,1.527,0.294,2.451,1.232l1.317-1.246
			c-1.303-1.261-2.34-1.737-3.754-1.737c-2.773,0-4.987,2.171-4.987,4.903c0,2.717,2.214,4.889,5.001,4.889
			c2.619,0,4.356-1.821,4.356-4.553v-0.896h-4.497v1.722H457.175z"/>
		<polygon class="st3" points="464.901,223.118 467.997,223.118 467.997,221.395 464.901,221.395 464.901,219.364 468.39,219.364 
			468.39,217.641 463.039,217.641 463.039,226.984 468.516,226.984 468.516,225.247 464.901,225.247 		"/>
		<rect x="506.939" y="217.641" class="st3" width="1.863" height="9.343"/>
		<polygon class="st3" points="516.854,223.72 512.26,217.641 510.678,217.641 510.678,226.984 512.54,226.984 512.54,220.905 
			517.135,226.984 518.718,226.984 518.718,217.641 516.854,217.641 		"/>
		<polygon class="st3" points="519.539,219.364 521.78,219.364 521.78,226.984 523.643,226.984 523.643,219.364 525.885,219.364 
			525.885,217.641 519.539,217.641 		"/>
		<polygon class="st3" points="528.57,223.118 531.666,223.118 531.666,221.395 528.57,221.395 528.57,219.364 532.059,219.364 
			532.059,217.641 526.707,217.641 526.707,226.984 532.184,226.984 532.184,225.247 528.57,225.247 		"/>
		<path class="st3" d="M537.882,223.482h2.55c-0.113,0.574-0.238,0.854-0.561,1.205c-0.477,0.518-1.093,0.771-1.85,0.771
			c-1.765,0-3.109-1.359-3.109-3.138s1.33-3.152,3.082-3.152c0.938,0,1.526,0.294,2.451,1.232l1.316-1.246
			c-1.303-1.261-2.34-1.737-3.754-1.737c-2.773,0-4.986,2.171-4.986,4.903c0,2.717,2.213,4.889,5,4.889
			c2.619,0,4.356-1.821,4.356-4.553v-0.896h-4.496v1.722H537.882z"/>
		<path class="st3" d="M549.614,220.653c0-1.079-0.546-2.046-1.442-2.563c-0.547-0.322-1.205-0.448-2.213-0.448h-2.214v9.343h1.863
			v-3.39h0.351l0.461-0.015h0.043h0.027l1.905,3.404h2.101l-2.198-3.908C549.139,222.544,549.614,221.661,549.614,220.653z
			 M546.084,221.899h-0.476v-2.549h0.476c0.547,0,0.896,0.069,1.148,0.21c0.351,0.196,0.561,0.603,0.561,1.078
			C547.793,221.508,547.275,221.899,546.084,221.899z"/>
		<path class="st3" d="M554.4,217.641l-3.488,9.343h1.961l0.785-2.171h3.684l0.771,2.171h1.976l-3.488-9.343H554.4z M554.26,223.076
			l1.233-3.445l1.232,3.445H554.26z"/>
		<polygon class="st3" points="559.271,219.364 561.512,219.364 561.512,226.984 563.375,226.984 563.375,219.364 565.615,219.364 
			565.615,217.641 559.271,217.641 		"/>
		<rect x="566.439" y="217.641" class="st3" width="1.862" height="9.343"/>
		<path class="st3" d="M574.575,217.417c-2.661,0-4.931,2.228-4.931,4.833c0,2.76,2.199,4.959,4.945,4.959
			c2.689,0,4.916-2.228,4.916-4.889C579.506,219.631,577.279,217.417,574.575,217.417z M574.575,225.458
			c-1.653,0-3.04-1.415-3.04-3.096c0-1.779,1.331-3.194,3.025-3.194c1.695,0,3.055,1.387,3.055,3.152
			C577.615,224.043,576.242,225.458,574.575,225.458z"/>
		<polygon class="st3" points="587.021,223.72 582.428,217.641 580.845,217.641 580.845,226.984 582.708,226.984 582.708,220.905 
			587.303,226.984 588.885,226.984 588.885,217.641 587.021,217.641 		"/>
		<path class="st3" d="M773.885,221.479l-0.869-0.322c-0.672-0.252-1.008-0.574-1.008-0.952c0-0.603,0.49-1.051,1.148-1.051
			c0.588,0,0.883,0.224,1.443,1.078l1.526-0.966c-0.798-1.303-1.653-1.85-2.928-1.85c-1.737,0-3.054,1.19-3.054,2.773
			c0,1.163,0.701,2.003,2.115,2.55l0.812,0.308c0.925,0.351,1.261,0.659,1.261,1.135c0,0.715-0.589,1.289-1.345,1.289
			c-0.434,0-0.799-0.196-1.051-0.561c-0.14-0.196-0.224-0.435-0.378-1.064l-1.821,0.49c0.183,0.812,0.379,1.274,0.742,1.751
			c0.547,0.687,1.485,1.121,2.494,1.121c1.82,0,3.235-1.331,3.235-3.054C776.21,222.936,775.468,222.082,773.885,221.479z"/>
		<polygon class="st3" points="783.111,217.641 776.766,217.641 776.766,219.364 779.008,219.364 779.008,226.984 780.87,226.984 
			780.87,219.364 783.111,219.364 		"/>
		<path class="st3" d="M785.798,217.641l-3.487,9.343h1.961l0.784-2.171h3.684l0.771,2.171h1.975l-3.487-9.343H785.798z
			 M785.658,223.076l1.232-3.445l1.232,3.445H785.658z"/>
		<path class="st3" d="M796.312,223.482h2.55c-0.112,0.574-0.238,0.854-0.561,1.205c-0.476,0.518-1.093,0.771-1.849,0.771
			c-1.766,0-3.109-1.359-3.109-3.138s1.33-3.152,3.081-3.152c0.938,0,1.526,0.294,2.451,1.232l1.317-1.246
			c-1.303-1.261-2.34-1.737-3.754-1.737c-2.773,0-4.987,2.171-4.987,4.903c0,2.717,2.214,4.889,5.001,4.889
			c2.619,0,4.355-1.821,4.355-4.553v-0.896h-4.496v1.722H796.312z"/>
		<rect x="802.177" y="217.641" class="st3" width="1.863" height="9.343"/>
		<polygon class="st3" points="812.092,223.72 807.498,217.641 805.914,217.641 805.914,226.984 807.777,226.984 807.777,220.905 
			812.372,226.984 813.955,226.984 813.955,217.641 812.092,217.641 		"/>
		<path class="st3" d="M820.169,223.482h2.55c-0.113,0.574-0.238,0.854-0.561,1.205c-0.477,0.518-1.093,0.771-1.85,0.771
			c-1.765,0-3.109-1.359-3.109-3.138s1.33-3.152,3.082-3.152c0.938,0,1.526,0.294,2.451,1.232l1.316-1.246
			c-1.303-1.261-2.34-1.737-3.754-1.737c-2.773,0-4.986,2.171-4.986,4.903c0,2.717,2.213,4.889,5,4.889
			c2.619,0,4.356-1.821,4.356-4.553v-0.896h-4.496v1.722H820.169z"/>
		<path class="st3" d="M940.409,203.045h-34.7v-5h-3v5H868.01c-5.68,0-10.301,4.62-10.301,10.3v7h-13.981v-7
			c0-5.68-4.621-10.3-10.301-10.3h-72.399c-5.68,0-10.3,4.62-10.3,10.3v6.513l-33.681-45.256c1.112-1.645,1.763-3.626,1.763-5.757
			v-17.399c0-5.68-4.62-10.301-10.3-10.301h-72.4c-5.68,0-10.3,4.621-10.3,10.301v17.399c0,2.4,0.832,4.606,2.214,6.359
			l-32.714,43.957v-5.816c0-5.734-4.666-10.399-10.4-10.399h-35.4v-2.4h-3v2.4h-35.601c-5.734,0-10.399,4.665-10.399,10.399v7h-13.5
			v-7c0-5.734-4.666-10.399-10.4-10.399h-74c-5.734,0-10.4,4.665-10.4,10.399v5.629l-48.231-90.313
			c1.578-1.805,2.531-4.176,2.531-6.815v-17.399c0-5.68-4.621-10.301-10.3-10.301h-72.4c-5.68,0-10.3,4.621-10.3,10.301v7.199h-21.3
			v-7.199c0-5.68-4.621-10.301-10.3-10.301h-72.4c-5.679,0-10.3,4.621-10.3,10.301v7.3h-45.5v-18.9l-0.002-0.081
			c-0.295-5.457-11.202-8.214-21.298-8.019c-10.054,0-21.008,2.51-21.3,8.1v13.601v0.003v13.396l0,0v0.005v13.837
			c0.147,5.29,10.827,8.059,21.3,8.059c10.054,0,21.007-2.51,21.3-8.101v-18.899h45.5v7.1c0,5.68,4.621,10.3,10.3,10.3h72.4
			c5.679,0,10.3-4.62,10.3-10.3v-7.2h21.3v7.2c0,5.68,4.621,10.3,10.3,10.3h72.4c2.006,0,3.854-0.556,5.422-1.511l46.414,86.909
			l-42.632-29.721c0.698-1.398,1.097-2.981,1.097-4.678v-17.399c0-5.68-4.621-10.3-10.3-10.3h-72.4c-5.68,0-10.3,4.62-10.3,10.3v7.2
			h-21.3v-7.2c0-5.68-4.621-10.3-10.3-10.3h-72.4c-5.679,0-10.3,4.62-10.3,10.3v17.399c0,1.697,0.42,3.297,1.15,4.71l-46.65,32.522
			v-19.532l-0.002-0.079c-0.287-5.456-10.91-8.21-21.298-8.121c-10.054,0-21.008,2.51-21.3,8.101v0.1v13.601v0.003v13.396l0,0v0.005
			v13.737c0.147,5.29,10.827,8.058,21.3,8.058c10.054,0,21.007-2.51,21.3-8.1V224.28l47.494,31.6
			c-1.248,1.703-1.994,3.797-1.994,6.065v17.399c0,5.68,4.621,10.3,10.3,10.3h72.4c5.583,0,10.3-4.717,10.3-10.3v-7.399h21.3v7.399
			c0,5.68,4.621,10.3,10.3,10.3h72.4c5.679,0,10.3-4.62,10.3-10.3v-17.399c0-2.249-0.733-4.325-1.96-6.021l43.874-29.19
			l-45.044,89.531c-1.856-1.804-4.383-2.92-7.169-2.92h-72.4c-5.68,0-10.3,4.62-10.3,10.3v6.601h-21.3v-6.601
			c0-5.68-4.621-10.3-10.3-10.3h-72.4c-5.679,0-10.3,4.62-10.3,10.3v7.2h-45.5v-21.7l-0.002-0.081
			c-0.295-5.457-11.202-8.214-21.298-8.019c-10.054,0-21.008,2.51-21.3,8.1v13.601v0.003v13.396l0,0v0.005v13.838
			c0.147,5.29,10.827,8.058,21.3,8.058c10.054,0,21.007-2.51,21.3-8.1v-16.101h45.5v7.2c0,5.68,4.621,10.3,10.3,10.3h72.4
			c5.679,0,10.3-4.62,10.3-10.3v-7.8h21.3v7.8c0,5.68,4.621,10.3,10.3,10.3h72.4c5.775,0,10.3-4.524,10.3-10.3v-17.4
			c0-1.684-0.414-3.27-1.133-4.675l46.833-93.089v4.764c0,5.734,4.666,10.4,10.4,10.4h74c5.734,0,10.4-4.666,10.4-10.4v-7.3h13.5
			v7.3c0,5.734,4.665,10.4,10.399,10.4h74c5.734,0,10.4-4.666,10.4-10.4V225.5l32.706,43.395c-1.377,1.752-2.206,3.953-2.206,6.35
			v17.399c0,5.68,4.62,10.301,10.3,10.301h72.4c5.775,0,10.3-4.524,10.3-10.301v-17.399c0-2.128-0.648-4.107-1.759-5.75
			l33.677-44.683v5.933c0,5.68,4.62,10.3,10.3,10.3h72.399c5.776,0,10.301-4.524,10.301-10.3v-7.4h13.981v7.4
			c0,5.68,4.621,10.3,10.301,10.3h72.399c5.68,0,10.3-4.62,10.3-10.3v-17.4C950.709,207.665,946.089,203.045,940.409,203.045z
			 M72.437,87.745c0.338-0.007,0.672-0.01,1.003-0.01c10.322,0,17.042,2.964,17.264,5.137c-0.06,2.16-7.17,5.272-18.294,5.272
			c-11.107,0-18.21-3.102-18.292-5.262C54.308,90.767,60.874,87.745,72.437,87.745z M54.107,97.304
			c3.922,2.533,11.14,3.84,18.302,3.84c7.162,0,14.378-1.307,18.3-3.839v9.14l0,0c0,2.161-7.129,5.3-18.3,5.3s-18.3-3.139-18.3-5.3
			h-0.001L54.107,97.304z M72.41,138.745c-10.916,0-18.244-3.095-18.3-5.101v-9.339c3.922,2.532,11.139,3.839,18.301,3.839
			c7.163,0,14.38-1.307,18.301-3.84v9.261C90.6,135.682,84.019,138.745,72.41,138.745z M90.709,119.844c0,2.161-7.129,5.3-18.3,5.3
			s-18.3-3.139-18.3-5.3l0,0v-8.939c3.921,2.533,11.139,3.84,18.301,3.84c7.162,0,14.379-1.307,18.301-3.839v8.938
			C90.711,119.844,90.709,119.844,90.709,119.844z M229.209,121.844c0,4.025-3.275,7.3-7.3,7.3h-72.4c-4.025,0-7.3-3.274-7.3-7.3
			v-17.399c0-4.025,3.275-7.301,7.3-7.301h72.4c4.025,0,7.3,3.275,7.3,7.301V121.844z M54.107,200.824
			c0.111-2.117,6.693-5.18,18.316-5.18c0.179-0.002,0.356-0.003,0.534-0.003c10.759,0,17.528,2.999,17.747,5.23
			c-0.058,2.16-7.169,5.272-18.294,5.272c-11.171,0-18.3-3.139-18.3-5.3h-0.002L54.107,200.824L54.107,200.824z M54.107,205.304
			c3.922,2.533,11.14,3.84,18.302,3.84c7.162,0,14.378-1.307,18.3-3.839v9.14l0,0c0,2.161-7.129,5.3-18.3,5.3s-18.3-3.139-18.3-5.3
			h-0.001L54.107,205.304z M72.41,246.644c-10.916,0-18.244-3.095-18.3-5.1v-9.239c3.922,2.532,11.139,3.839,18.301,3.839
			c7.163,0,14.38-1.308,18.301-3.84v9.161C90.6,243.583,84.019,246.644,72.41,246.644z M90.709,227.844c0,2.161-7.129,5.3-18.3,5.3
			s-18.3-3.139-18.3-5.3l0,0v-8.939c3.921,2.533,11.139,3.84,18.301,3.84c7.162,0,14.379-1.307,18.301-3.839v8.938H90.709z
			 M72.437,304.045c0.338-0.007,0.672-0.01,1.003-0.01c10.322,0,17.042,2.964,17.264,5.138c-0.06,2.16-7.17,5.272-18.294,5.272
			c-11.107,0-18.21-3.103-18.292-5.263C54.308,307.067,60.874,304.045,72.437,304.045z M54.107,313.604
			c3.922,2.533,11.14,3.841,18.302,3.841c7.162,0,14.378-1.308,18.3-3.84v9.14l0,0c0,2.161-7.129,5.3-18.3,5.3s-18.3-3.139-18.3-5.3
			h-0.001L54.107,313.604z M72.41,355.045c-10.916,0-18.244-3.095-18.3-5.1v-9.34c3.922,2.532,11.139,3.84,18.301,3.84
			c7.163,0,14.38-1.308,18.301-3.841v9.262C90.6,351.983,84.019,355.045,72.41,355.045z M90.709,336.144
			c0,2.161-7.129,5.301-18.3,5.301s-18.3-3.14-18.3-5.301l0,0v-8.938c3.921,2.532,11.139,3.839,18.301,3.839
			c7.162,0,14.379-1.307,18.301-3.839v8.938H90.709z M229.209,341.045c0,4.025-3.275,7.3-7.3,7.3h-72.4c-4.025,0-7.3-3.274-7.3-7.3
			v-17.4c0-4.025,3.275-7.3,7.3-7.3h72.4c4.025,0,7.3,3.274,7.3,7.3V341.045z M263.81,129.144c-4.025,0-7.3-3.274-7.3-7.3v-17.399
			c0-4.025,3.275-7.301,7.3-7.301h72.4c4.025,0,7.3,3.275,7.3,7.301v17.399c0,4.094-3.207,7.3-7.3,7.3H263.81z M256.509,165.745
			c0-4.025,3.275-7.3,7.3-7.3h72.4c4.025,0,7.3,3.274,7.3,7.3v17.399c0,4.094-3.207,7.301-7.3,7.301h-72.4
			c-4.025,0-7.3-3.275-7.3-7.301V165.745z M142.209,165.745c0-4.025,3.275-7.3,7.3-7.3h72.4c4.025,0,7.3,3.274,7.3,7.3v17.399
			c0,4.025-3.275,7.301-7.3,7.301h-72.4c-4.025,0-7.3-3.275-7.3-7.301V165.745z M229.209,279.344c0,3.957-3.343,7.3-7.3,7.3h-72.4
			c-4.025,0-7.3-3.274-7.3-7.3v-17.399c0-4.025,3.275-7.301,7.3-7.301h72.4c4.025,0,7.3,3.275,7.3,7.301V279.344z M232.209,268.945
			v-7c0-5.68-4.621-10.301-10.3-10.301h-72.4c-2.309,0-4.436,0.773-6.156,2.062l-47.18-31.391l45.935-32.023
			c1.875,1.94,4.497,3.153,7.4,3.153h72.4c5.679,0,10.3-4.621,10.3-10.301v-7.199h21.3v7.199c0,5.68,4.621,10.301,10.3,10.301h72.4
			c2.978,0,5.617-1.209,7.481-3.167l45.955,32.037l-47.233,31.426c-1.728-1.31-3.873-2.097-6.203-2.097h-72.4
			c-5.68,0-10.3,4.621-10.3,10.301v7H232.209z M343.509,279.344c0,4.025-3.275,7.3-7.3,7.3h-72.4c-4.025,0-7.3-3.274-7.3-7.3
			v-17.399c0-4.025,3.275-7.301,7.3-7.301h72.4c4.025,0,7.3,3.275,7.3,7.301V279.344z M343.509,341.045c0,4.094-3.207,7.3-7.3,7.3
			h-72.4c-4.025,0-7.3-3.274-7.3-7.3v-17.4c0-4.025,3.275-7.3,7.3-7.3h72.4c4.025,0,7.3,3.274,7.3,7.3V341.045z M484.009,230.644
			c0,4.081-3.319,7.4-7.4,7.4h-74c-4.081,0-7.4-3.319-7.4-7.4v-17.3c0-4.08,3.319-7.399,7.4-7.399h74c4.081,0,7.4,3.319,7.4,7.399
			V230.644z M592.31,230.644c0,4.081-3.319,7.4-7.4,7.4h-74c-4.08,0-7.399-3.319-7.399-7.4v-17.3c0-4.08,3.319-7.399,7.399-7.399h74
			c4.081,0,7.4,3.319,7.4,7.399V230.644z M748.077,223.344l-33.091,43.902c-1.771-1.437-4.023-2.302-6.477-2.302h-72.4
			c-2.195,0-4.229,0.696-5.902,1.871l-32.766-43.472h28.368v7.4c0,5.68,4.62,10.3,10.3,10.3h72.4c5.775,0,10.3-4.524,10.3-10.3
			v-17.4c0-5.68-4.62-10.3-10.3-10.3h-72.4c-5.68,0-10.3,4.62-10.3,10.3v7h-27.642l32.05-43.064c1.671,1.171,3.7,1.864,5.892,1.864
			h72.4c2.45,0,4.7-0.863,6.47-2.296l32.371,43.496h-28.34v3L748.077,223.344L748.077,223.344z M628.81,230.745v-17.4
			c0-4.025,3.274-7.3,7.3-7.3h72.4c4.025,0,7.3,3.274,7.3,7.3v17.4c0,4.094-3.206,7.3-7.3,7.3h-72.4
			C632.084,238.045,628.81,234.77,628.81,230.745z M628.81,151.445c0-4.025,3.274-7.301,7.3-7.301h72.4c4.025,0,7.3,3.275,7.3,7.301
			v17.399c0,4.025-3.274,7.3-7.3,7.3h-72.4c-4.025,0-7.3-3.274-7.3-7.3V151.445z M715.81,292.644c0,4.094-3.206,7.301-7.3,7.301
			h-72.4c-4.025,0-7.3-3.275-7.3-7.301v-17.399c0-4.025,3.274-7.3,7.3-7.3h72.4c4.025,0,7.3,3.274,7.3,7.3V292.644z
			 M840.728,230.745c0,4.094-3.207,7.3-7.301,7.3h-72.399c-4.025,0-7.3-3.274-7.3-7.3v-17.4c0-4.025,3.274-7.3,7.3-7.3h72.399
			c4.025,0,7.301,3.274,7.301,7.3V230.745z M947.709,230.745c0,4.025-3.274,7.3-7.3,7.3H868.01c-4.025,0-7.301-3.274-7.301-7.3
			v-17.4c0-4.025,3.275-7.3,7.301-7.3h72.399c4.025,0,7.3,3.274,7.3,7.3V230.745z"/>
		<path class="st3" d="M868.022,218.061c-0.504-0.294-1.12-0.42-2.03-0.42h-2.214v9.343h1.863v-3.39h0.351
			c0.91,0,1.526-0.126,2.03-0.421c0.868-0.49,1.401-1.471,1.401-2.562C869.424,219.518,868.891,218.551,868.022,218.061z
			 M866.117,221.899h-0.476v-2.549h0.476c1.023,0,1.485,0.392,1.485,1.274S867.141,221.899,866.117,221.899z"/>
		<path class="st3" d="M876.312,220.653c0-1.079-0.546-2.046-1.442-2.563c-0.547-0.322-1.205-0.448-2.213-0.448h-2.214v9.343h1.863
			v-3.39h0.351l0.461-0.015h0.043h0.027l1.905,3.404h2.101l-2.198-3.908C875.836,222.544,876.312,221.661,876.312,220.653z
			 M872.781,221.899h-0.476v-2.549h0.476c0.547,0,0.896,0.069,1.148,0.21c0.351,0.196,0.561,0.603,0.561,1.078
			C874.49,221.508,873.973,221.899,872.781,221.899z"/>
		<path class="st3" d="M882.429,217.417c-2.661,0-4.931,2.228-4.931,4.833c0,2.76,2.199,4.959,4.945,4.959
			c2.689,0,4.916-2.228,4.916-4.889C887.359,219.631,885.133,217.417,882.429,217.417z M882.429,225.458
			c-1.653,0-3.04-1.415-3.04-3.096c0-1.779,1.331-3.194,3.025-3.194c1.695,0,3.055,1.387,3.055,3.152
			C885.469,224.043,884.096,225.458,882.429,225.458z"/>
		<path class="st3" d="M890.912,217.641h-2.214v9.343h2.214c3.123,0,5.126-1.835,5.126-4.679S894.035,217.641,890.912,217.641z
			 M890.967,225.247h-0.405v-5.869h0.405c1.976,0,3.194,1.106,3.194,2.928C894.161,224.14,892.957,225.247,890.967,225.247z"/>
		<path class="st3" d="M902.631,223.37c0,0.757-0.042,1.079-0.196,1.345c-0.252,0.435-0.882,0.743-1.499,0.743
			c-0.616,0-1.246-0.309-1.498-0.743c-0.154-0.266-0.196-0.588-0.196-1.345v-5.729h-1.863v5.981c0,0.826,0.126,1.4,0.406,1.891
			c0.616,1.036,1.835,1.695,3.151,1.695s2.535-0.659,3.139-1.695c0.293-0.504,0.42-1.064,0.42-1.891v-5.981h-1.863v5.729H902.631z"
			/>
		<path class="st3" d="M910.793,225.458c-1.709,0-3.068-1.388-3.068-3.138c0-1.779,1.331-3.152,3.055-3.152
			c0.938,0,1.568,0.336,2.437,1.289l1.317-1.261c-1.191-1.247-2.298-1.779-3.74-1.779c-2.746,0-4.959,2.186-4.959,4.903
			c0,2.703,2.213,4.889,4.973,4.889c1.443,0,2.549-0.519,3.782-1.808l-1.331-1.246C912.348,225.121,911.717,225.458,910.793,225.458
			z"/>
		<polygon class="st3" points="915.031,219.364 917.272,219.364 917.272,226.984 919.135,226.984 919.135,219.364 921.377,219.364 
			921.377,217.641 915.031,217.641 		"/>
		<rect x="922.199" y="217.641" class="st3" width="1.863" height="9.343"/>
		<path class="st3" d="M930.336,217.417c-2.662,0-4.931,2.228-4.931,4.833c0,2.76,2.199,4.959,4.944,4.959
			c2.689,0,4.917-2.228,4.917-4.889C935.267,219.631,933.039,217.417,930.336,217.417z M930.336,225.458
			c-1.652,0-3.039-1.415-3.039-3.096c0-1.779,1.33-3.194,3.025-3.194c1.694,0,3.053,1.387,3.053,3.152
			C933.375,224.043,932.003,225.458,930.336,225.458z"/>
		<polygon class="st3" points="942.783,223.72 938.188,217.641 936.605,217.641 936.605,226.984 938.469,226.984 938.469,220.905 
			943.062,226.984 944.646,226.984 944.646,217.641 942.783,217.641 		"/>
		<polygon class="st3" points="647.104,226.984 648.967,226.984 648.967,219.364 651.208,219.364 651.208,217.641 644.863,217.641 
			644.863,219.364 647.104,219.364 		"/>
		<polygon class="st3" points="657.508,225.247 653.895,225.247 653.895,223.118 656.99,223.118 656.99,221.395 653.895,221.395 
			653.895,219.364 657.383,219.364 657.383,217.641 652.031,217.641 652.031,226.984 657.508,226.984 		"/>
		<path class="st3" d="M661.566,225.471c-0.434,0-0.799-0.196-1.051-0.561c-0.14-0.196-0.225-0.435-0.378-1.064l-1.821,0.49
			c0.182,0.812,0.379,1.274,0.742,1.751c0.547,0.687,1.485,1.121,2.494,1.121c1.82,0,3.235-1.331,3.235-3.054
			c0-1.219-0.742-2.073-2.325-2.676l-0.869-0.322c-0.672-0.252-1.008-0.574-1.008-0.952c0-0.603,0.49-1.051,1.148-1.051
			c0.588,0,0.883,0.224,1.443,1.078l1.526-0.966c-0.798-1.303-1.653-1.85-2.928-1.85c-1.737,0-3.054,1.19-3.054,2.773
			c0,1.163,0.701,2.003,2.115,2.55l0.812,0.308c0.925,0.351,1.261,0.659,1.261,1.135
			C662.911,224.897,662.322,225.471,661.566,225.471z"/>
		<polygon class="st3" points="667.586,226.984 669.449,226.984 669.449,219.364 671.689,219.364 671.689,217.641 665.345,217.641 
			665.345,219.364 667.586,219.364 		"/>
		<polygon class="st3" points="681.154,225.247 677.539,225.247 677.539,223.118 680.635,223.118 680.635,221.395 677.539,221.395 
			677.539,219.364 681.027,219.364 681.027,217.641 675.677,217.641 675.677,226.984 681.154,226.984 		"/>
		<polygon class="st3" points="684.387,220.905 688.98,226.984 690.563,226.984 690.563,217.641 688.7,217.641 688.7,223.72 
			684.105,217.641 682.523,217.641 682.523,226.984 684.387,226.984 		"/>
		<polygon class="st3" points="696.65,226.984 699.761,217.641 697.799,217.641 695.586,224.35 693.373,217.641 691.412,217.641 
			694.521,226.984 		"/>
		<polygon class="st3" points="647.104,165.065 648.967,165.065 648.967,157.445 651.208,157.445 651.208,155.722 644.863,155.722 
			644.863,157.445 647.104,157.445 		"/>
		<polygon class="st3" points="657.508,163.328 653.895,163.328 653.895,161.199 656.99,161.199 656.99,159.476 653.895,159.476 
			653.895,157.445 657.383,157.445 657.383,155.722 652.031,155.722 652.031,165.065 657.508,165.065 		"/>
		<path class="st3" d="M661.566,163.552c-0.434,0-0.799-0.196-1.051-0.561c-0.14-0.196-0.225-0.435-0.378-1.064l-1.821,0.49
			c0.182,0.812,0.379,1.274,0.742,1.751c0.547,0.687,1.485,1.121,2.494,1.121c1.82,0,3.235-1.331,3.235-3.054
			c0-1.219-0.742-2.073-2.325-2.676l-0.869-0.322c-0.672-0.252-1.008-0.574-1.008-0.952c0-0.603,0.49-1.051,1.148-1.051
			c0.588,0,0.883,0.224,1.443,1.078l1.526-0.966c-0.798-1.303-1.653-1.85-2.928-1.85c-1.737,0-3.054,1.19-3.054,2.773
			c0,1.163,0.701,2.003,2.115,2.55l0.812,0.308c0.925,0.351,1.261,0.659,1.261,1.135
			C662.911,162.978,662.322,163.552,661.566,163.552z"/>
		<polygon class="st3" points="667.586,165.065 669.449,165.065 669.449,157.445 671.689,157.445 671.689,155.722 665.345,155.722 
			665.345,157.445 667.586,157.445 		"/>
		<polygon class="st3" points="681.154,163.328 677.539,163.328 677.539,161.199 680.635,161.199 680.635,159.476 677.539,159.476 
			677.539,157.445 681.027,157.445 681.027,155.722 675.677,155.722 675.677,165.065 681.154,165.065 		"/>
		<polygon class="st3" points="684.387,158.986 688.98,165.065 690.563,165.065 690.563,155.722 688.7,155.722 688.7,161.801 
			684.105,155.722 682.523,155.722 682.523,165.065 684.387,165.065 		"/>
		<polygon class="st3" points="696.65,165.065 699.761,155.722 697.799,155.722 695.586,162.431 693.373,155.722 691.412,155.722 
			694.521,165.065 		"/>
		<polygon class="st3" points="644.863,281.282 647.104,281.282 647.104,288.902 648.967,288.902 648.967,281.282 651.208,281.282 
			651.208,279.559 644.863,279.559 		"/>
		<polygon class="st3" points="653.895,285.036 656.99,285.036 656.99,283.313 653.895,283.313 653.895,281.282 657.383,281.282 
			657.383,279.559 652.031,279.559 652.031,288.902 657.508,288.902 657.508,287.165 653.895,287.165 		"/>
		<path class="st3" d="M662.463,283.397l-0.869-0.322c-0.672-0.252-1.008-0.574-1.008-0.952c0-0.603,0.49-1.051,1.148-1.051
			c0.588,0,0.883,0.224,1.443,1.078l1.526-0.966c-0.798-1.303-1.653-1.85-2.928-1.85c-1.737,0-3.054,1.19-3.054,2.773
			c0,1.163,0.701,2.003,2.115,2.55l0.812,0.308c0.925,0.351,1.261,0.659,1.261,1.135c0,0.715-0.589,1.289-1.345,1.289
			c-0.434,0-0.799-0.196-1.051-0.561c-0.14-0.196-0.225-0.435-0.378-1.064l-1.821,0.49c0.182,0.812,0.379,1.274,0.742,1.751
			c0.547,0.687,1.485,1.121,2.494,1.121c1.82,0,3.235-1.331,3.235-3.054C664.788,284.854,664.046,284,662.463,283.397z"/>
		<polygon class="st3" points="665.345,281.282 667.586,281.282 667.586,288.902 669.449,288.902 669.449,281.282 671.689,281.282 
			671.689,279.559 665.345,279.559 		"/>
		<polygon class="st3" points="677.539,285.036 680.635,285.036 680.635,283.313 677.539,283.313 677.539,281.282 681.027,281.282 
			681.027,279.559 675.677,279.559 675.677,288.902 681.154,288.902 681.154,287.165 677.539,287.165 		"/>
		<polygon class="st3" points="688.7,285.638 684.105,279.559 682.523,279.559 682.523,288.902 684.387,288.902 684.387,282.823 
			688.98,288.902 690.563,288.902 690.563,279.559 688.7,279.559 		"/>
		<polygon class="st3" points="695.586,286.268 693.373,279.559 691.412,279.559 694.521,288.902 696.65,288.902 699.761,279.559 
			697.799,279.559 		"/>
		<path class="st3" d="M168.814,332.327c0.532-0.518,0.771-1.036,0.771-1.709c0-0.882-0.504-1.751-1.288-2.199
			c-0.505-0.294-1.177-0.434-2.13-0.434h-2.241v9.343h2.676c0.883,0,1.442-0.112,1.975-0.42c0.925-0.505,1.443-1.373,1.443-2.354
			C170.02,333.644,169.599,332.859,168.814,332.327z M165.747,329.624h0.574c0.574,0,1.009,0.098,1.19,0.28
			c0.196,0.182,0.309,0.477,0.309,0.784c0,0.406-0.196,0.757-0.519,0.938c-0.21,0.112-0.448,0.154-0.98,0.154h-0.574
			L165.747,329.624L165.747,329.624z M167.638,335.451c-0.266,0.154-0.532,0.196-1.106,0.196h-0.784v-2.325h0.658
			c0.673,0,1.009,0.056,1.289,0.224c0.308,0.183,0.504,0.547,0.504,0.938C168.198,334.905,167.988,335.255,167.638,335.451z"/>
		<path class="st3" d="M176.613,333.714c0,0.757-0.042,1.079-0.196,1.345c-0.252,0.435-0.883,0.743-1.499,0.743
			s-1.247-0.309-1.499-0.743c-0.153-0.266-0.196-0.588-0.196-1.345v-5.729h-1.862v5.981c0,0.826,0.126,1.4,0.406,1.891
			c0.616,1.036,1.835,1.695,3.151,1.695s2.535-0.659,3.138-1.695c0.294-0.504,0.42-1.064,0.42-1.891v-5.981h-1.862v5.729H176.613z"
			/>
		<rect x="180.348" y="327.985" class="st3" width="1.863" height="9.343"/>
		<polygon class="st3" points="185.948,327.985 184.086,327.985 184.086,337.328 189.311,337.328 189.311,335.591 185.948,335.591 
					"/>
		<path class="st3" d="M192.459,327.985h-2.213v9.343h2.213c3.124,0,5.127-1.835,5.127-4.679S195.583,327.985,192.459,327.985z
			 M192.515,335.591h-0.406v-5.869h0.406c1.976,0,3.194,1.106,3.194,2.928C195.709,334.484,194.504,335.591,192.515,335.591z"/>
		<polygon class="st3" points="207.16,331.907 205.312,331.907 205.312,333.728 203.616,333.728 206.866,328.615 205.34,327.676 
			201.361,333.91 201.361,335.437 205.312,335.437 205.312,337.328 207.16,337.328 207.16,335.437 208.127,335.437 208.127,333.728 
			207.16,333.728 		"/>
		<path class="st3" d="M284.646,327.985l-3.488,9.343h1.961l0.785-2.171h3.684l0.771,2.171h1.975l-3.488-9.343H284.646z
			 M284.506,333.42l1.233-3.445l1.232,3.445H284.506z"/>
		<path class="st3" d="M295.259,335.801c-1.709,0-3.067-1.388-3.067-3.138c0-1.779,1.331-3.152,3.054-3.152
			c0.938,0,1.569,0.336,2.437,1.289l1.317-1.26c-1.191-1.247-2.297-1.779-3.74-1.779c-2.745,0-4.958,2.186-4.958,4.903
			c0,2.703,2.213,4.889,4.973,4.889c1.443,0,2.549-0.519,3.782-1.808l-1.331-1.246C296.814,335.465,296.184,335.801,295.259,335.801
			z"/>
		<path class="st3" d="M304.345,335.801c-1.709,0-3.067-1.388-3.067-3.138c0-1.779,1.331-3.152,3.054-3.152
			c0.938,0,1.569,0.336,2.437,1.289l1.317-1.261c-1.191-1.247-2.297-1.779-3.74-1.779c-2.745,0-4.958,2.186-4.958,4.903
			c0,2.703,2.213,4.889,4.973,4.889c1.443,0,2.549-0.519,3.782-1.808l-1.331-1.246C305.9,335.465,305.27,335.801,304.345,335.801z"
			/>
		<polygon class="st3" points="317.59,331.907 315.741,331.907 315.741,333.728 314.046,333.728 317.296,328.615 315.769,327.676 
			311.791,333.91 311.791,335.437 315.741,335.437 315.741,337.328 317.59,337.328 317.59,335.437 318.557,335.437 318.557,333.728 
			317.59,333.728 		"/>
		<path class="st3" d="M644.51,60.344v0.005v7.695h-2.5v3h2.501v7.2h-0.001l0.001,0.01v18.051
			c0.263,6.464,13.475,10.061,26.299,10.322v3.517h3v-3.517c12.823-0.262,26.035-3.861,26.3-10.383v-53.9l-0.001-0.062
			c-0.274-6.715-14.527-10.338-27.799-10.338c-13.272,0-27.525,3.623-27.8,10.399v0.101V60.344z M672.31,103.644
			c-15.178,0-24.675-4.345-24.8-7.399V83.194c4.904,3.633,15.071,5.551,24.8,5.551s19.896-1.919,24.801-5.551v12.989
			C696.983,99.299,687.486,103.644,672.31,103.644z M697.109,78.245c0,3.132-9.435,7.5-24.8,7.5s-24.8-4.368-24.8-7.5l-0.001-12.951
			c4.904,3.632,15.072,5.551,24.801,5.551s19.896-1.919,24.8-5.551L697.109,78.245L697.109,78.245z M647.509,42.405
			c0.126-3.115,9.623-7.46,24.801-7.46c15.136,0,24.621,4.321,24.8,7.436v0.064c0,3.132-9.435,7.5-24.8,7.5s-24.8-4.368-24.8-7.5
			h-0.001L647.509,42.405L647.509,42.405z M647.509,47.393c4.904,3.633,15.071,5.552,24.801,5.552c9.729,0,19.896-1.919,24.8-5.551
			v12.95c0,3.132-9.435,7.5-24.8,7.5s-24.8-4.368-24.8-7.5h-0.001L647.509,47.393L647.509,47.393z"/>
		<polygon class="st3" points="275.028,224.052 278.683,224.052 278.683,221.586 275.028,221.586 275.028,219.336 279.043,219.336 
			279.043,216.886 272.363,216.886 272.363,228.896 275.028,228.896 		"/>
		<path class="st3" d="M281.472,228.896l0.918-2.646h4.556l0.918,2.646h2.827l-4.483-12.01h-3.061l-4.483,12.01H281.472z
			 M284.659,219.731l1.422,4.052h-2.827L284.659,219.731z"/>
		<polygon class="st3" points="294.324,221.604 299.869,228.896 302.102,228.896 302.102,216.886 299.437,216.886 299.437,224.178 
			293.891,216.886 291.659,216.886 291.659,228.896 294.324,228.896 		"/>
		<rect x="308.326" y="216.886" class="st3" width="2.665" height="12.01"/>
		<polygon class="st3" points="315.958,221.604 321.504,228.896 323.737,228.896 323.737,216.886 321.072,216.886 321.072,224.178 
			315.527,216.886 313.294,216.886 313.294,228.896 315.958,228.896 		"/>
		<path class="st3" d="M44.019,153.056l-0.62-0.23c-0.479-0.18-0.719-0.409-0.719-0.679c0-0.431,0.35-0.75,0.819-0.75
			c0.42,0,0.63,0.16,1.029,0.77l1.089-0.689c-0.569-0.93-1.179-1.319-2.089-1.319c-1.239,0-2.179,0.85-2.179,1.979
			c0,0.83,0.5,1.43,1.509,1.819l0.58,0.22c0.66,0.25,0.899,0.47,0.899,0.81c0,0.51-0.419,0.92-0.959,0.92
			c-0.31,0-0.569-0.141-0.75-0.4c-0.1-0.14-0.16-0.31-0.27-0.759l-1.299,0.35c0.13,0.579,0.27,0.909,0.53,1.249
			c0.39,0.489,1.059,0.8,1.779,0.8c1.299,0,2.309-0.95,2.309-2.179C45.678,154.095,45.148,153.486,44.019,153.056z"/>
		<path class="st3" d="M49.769,157.144c1.919,0,3.508-1.59,3.508-3.488c0-1.919-1.589-3.498-3.518-3.498
			c-1.899,0-3.518,1.589-3.518,3.448C46.241,155.575,47.81,157.144,49.769,157.144z M49.749,151.407
			c1.209,0,2.179,0.989,2.179,2.249c0,1.229-0.979,2.238-2.168,2.238c-1.18,0-2.169-1.009-2.169-2.208
			C47.59,152.417,48.539,151.407,49.749,151.407z"/>
		<path class="st3" d="M54.24,150.318v4.268c0,0.59,0.09,0.999,0.29,1.349c0.44,0.74,1.309,1.21,2.249,1.21s1.809-0.47,2.239-1.21
			c0.21-0.359,0.3-0.759,0.3-1.349v-4.268h-1.33v4.088c0,0.539-0.03,0.77-0.14,0.959c-0.18,0.31-0.63,0.529-1.07,0.529
			c-0.439,0-0.889-0.22-1.069-0.529c-0.11-0.189-0.14-0.42-0.14-0.959v-4.088H54.24z"/>
		<path class="st3" d="M64.848,152.467c0-0.77-0.39-1.459-1.029-1.829c-0.39-0.229-0.86-0.319-1.58-0.319H60.66v6.666h1.33v-2.419
			h0.25l0.33-0.01h0.03h0.02l1.359,2.429h1.499l-1.569-2.788C64.508,153.816,64.848,153.186,64.848,152.467z M62.33,153.356h-0.34
			v-1.819h0.34c0.39,0,0.64,0.05,0.819,0.15c0.25,0.14,0.4,0.43,0.4,0.77C63.549,153.076,63.179,153.356,62.33,153.356z"/>
		<path class="st3" d="M69.229,151.407c0.669,0,1.12,0.24,1.739,0.92l0.939-0.899c-0.85-0.89-1.639-1.27-2.668-1.27
			c-1.959,0-3.538,1.559-3.538,3.498c0,1.929,1.579,3.488,3.548,3.488c1.029,0,1.819-0.37,2.699-1.289l-0.95-0.89
			c-0.649,0.689-1.1,0.929-1.759,0.929c-1.22,0-2.189-0.989-2.189-2.238C67.05,152.386,67.999,151.407,69.229,151.407z"/>
		<polygon class="st3" points="76.638,151.547 76.638,150.318 72.82,150.318 72.82,156.984 76.728,156.984 76.728,155.745 
			74.149,155.745 74.149,154.225 76.358,154.225 76.358,152.996 74.149,152.996 74.149,151.547 		"/>
		<path class="st3" d="M83.098,151.407c0.669,0,1.12,0.24,1.739,0.92l0.939-0.899c-0.85-0.89-1.639-1.27-2.668-1.27
			c-1.959,0-3.538,1.559-3.538,3.498c0,1.929,1.579,3.488,3.548,3.488c1.029,0,1.819-0.37,2.699-1.289l-0.95-0.89
			c-0.649,0.689-1.1,0.929-1.759,0.929c-1.22,0-2.189-0.989-2.189-2.238C80.919,152.386,81.869,151.407,83.098,151.407z"/>
		<path class="st3" d="M93.097,153.656c0-1.919-1.589-3.498-3.518-3.498c-1.899,0-3.518,1.589-3.518,3.448
			c0,1.969,1.569,3.538,3.528,3.538C91.507,157.144,93.097,155.554,93.097,153.656z M87.41,153.686c0-1.27,0.949-2.279,2.159-2.279
			s2.179,0.989,2.179,2.249c0,1.229-0.979,2.238-2.168,2.238C88.399,155.894,87.41,154.885,87.41,153.686z"/>
		<path class="st3" d="M99.297,153.646c0-2.029-1.429-3.328-3.658-3.328H94.06v6.666h1.579
			C97.868,156.984,99.297,155.675,99.297,153.646z M95.679,155.745h-0.29v-4.188h0.29c1.409,0,2.279,0.789,2.279,2.089
			C97.958,154.955,97.098,155.745,95.679,155.745z"/>
		<polygon class="st3" points="104.087,151.547 104.087,150.318 100.27,150.318 100.27,156.984 104.178,156.984 104.178,155.745 
			101.599,155.745 101.599,154.225 103.808,154.225 103.808,152.996 101.599,152.996 101.599,151.547 		"/>
		<polygon class="st3" points="628.057,21.161 624.962,21.161 624.962,19.338 627.613,19.338 627.613,17.863 624.962,17.863 
			624.962,16.124 627.949,16.124 627.949,14.648 623.367,14.648 623.367,22.648 628.057,22.648 		"/>
		<polygon class="st3" points="630.83,17.443 634.765,22.648 636.12,22.648 636.12,14.648 634.524,14.648 634.524,19.853 
			630.591,14.648 629.235,14.648 629.235,22.648 630.83,22.648 		"/>
		<polygon class="st3" points="641.341,22.648 644.004,14.648 642.324,14.648 640.43,20.393 638.534,14.648 636.855,14.648 
			639.518,22.648 		"/>
		<path class="st3" d="M647.308,20.405c0,1.38,1.223,2.435,2.83,2.435c0.804,0,1.392-0.203,2.075-0.707l0.432,0.516h1.967
			l-1.415-1.644c0.252-0.432,0.468-0.947,0.695-1.679l0.072-0.18l-1.463-0.396c-0.204,0.575-0.265,0.719-0.384,0.983l-1.284-1.487
			c0.888-0.647,1.248-1.199,1.248-1.907c0-1.067-0.864-1.883-1.979-1.883c-1.151,0-2.015,0.84-2.015,1.955
			c0,0.539,0.18,0.936,0.756,1.69C647.715,18.919,647.308,19.53,647.308,20.405z M650.09,15.704c0.359,0,0.611,0.24,0.611,0.588
			c0,0.312-0.144,0.504-0.72,0.959c-0.396-0.455-0.516-0.671-0.516-0.923C649.466,15.967,649.73,15.704,650.09,15.704z
			 M649.682,19.11l1.56,1.859c-0.372,0.312-0.695,0.432-1.127,0.432c-0.72,0-1.26-0.456-1.26-1.056
			C648.854,19.962,649.082,19.626,649.682,19.11z"/>
		<path class="st3" d="M659.69,20.789h3.154l0.659,1.859h1.691l-2.986-8h-1.883l-2.986,8h1.679L659.69,20.789z M661.262,16.351
			l1.055,2.951h-2.11L661.262,16.351z"/>
		<path class="st3" d="M667.525,19.746h0.301c0.779,0,1.307-0.108,1.738-0.359c0.744-0.42,1.199-1.26,1.199-2.195
			s-0.455-1.763-1.199-2.183c-0.432-0.252-0.959-0.36-1.738-0.36h-1.896v8h1.595V19.746z M667.525,16.112h0.408
			c0.876,0,1.271,0.336,1.271,1.091c0,0.756-0.396,1.092-1.271,1.092h-0.408V16.112z"/>
		<path class="st3" d="M673.237,19.746h0.301c0.779,0,1.307-0.108,1.738-0.359c0.744-0.42,1.199-1.26,1.199-2.195
			s-0.455-1.763-1.199-2.183c-0.432-0.252-0.959-0.36-1.738-0.36h-1.896v8h1.595V19.746z M673.237,16.112h0.408
			c0.876,0,1.271,0.336,1.271,1.091c0,0.756-0.396,1.092-1.271,1.092h-0.408V16.112z"/>
		<path class="st3" d="M683.869,22.84c1.235,0,2.183-0.443,3.238-1.547l-1.14-1.067c-0.779,0.828-1.319,1.115-2.111,1.115
			c-1.463,0-2.626-1.187-2.626-2.687c0-1.522,1.14-2.698,2.614-2.698c0.804,0,1.344,0.288,2.087,1.104l1.128-1.079
			c-1.02-1.067-1.968-1.523-3.203-1.523c-2.351,0-4.245,1.871-4.245,4.197C679.611,20.969,681.506,22.84,683.869,22.84z"/>
		<path class="st3" d="M691.633,22.84c2.303,0,4.209-1.906,4.209-4.186c0-2.303-1.906-4.197-4.222-4.197
			c-2.278,0-4.222,1.907-4.222,4.138C687.398,20.957,689.282,22.84,691.633,22.84z M691.608,15.956c1.451,0,2.614,1.188,2.614,2.698
			c0,1.476-1.175,2.687-2.603,2.687c-1.415,0-2.603-1.211-2.603-2.65C689.018,17.167,690.157,15.956,691.608,15.956z"/>
		<polygon class="st3" points="698.594,17.443 702.527,22.648 703.883,22.648 703.883,14.648 702.288,14.648 702.288,19.853 
			698.354,14.648 696.999,14.648 696.999,22.648 698.594,22.648 		"/>
		<polygon class="st3" points="707.09,19.35 709.572,19.35 709.572,17.863 707.09,17.863 707.09,16.124 709.812,16.124 
			709.812,14.648 705.495,14.648 705.495,22.648 707.09,22.648 		"/>
		<rect x="710.919" y="14.648" class="st3" width="1.595" height="8"/>
		<path class="st3" d="M717.948,22.84c2.243,0,3.73-1.559,3.73-3.897v-0.768h-3.851v1.476h2.184
			c-0.097,0.491-0.204,0.731-0.48,1.031c-0.407,0.443-0.936,0.659-1.583,0.659c-1.511,0-2.662-1.163-2.662-2.687
			c0-1.522,1.14-2.698,2.639-2.698c0.804,0,1.307,0.252,2.099,1.056l1.127-1.067c-1.115-1.08-2.003-1.487-3.214-1.487
			c-2.375,0-4.27,1.859-4.27,4.197C713.667,20.981,715.562,22.84,717.948,22.84z"/>
		<path class="st3" d="M44.019,261.056l-0.62-0.23c-0.479-0.18-0.719-0.409-0.719-0.679c0-0.431,0.35-0.75,0.819-0.75
			c0.42,0,0.63,0.16,1.029,0.77l1.089-0.689c-0.569-0.93-1.179-1.319-2.089-1.319c-1.239,0-2.179,0.85-2.179,1.979
			c0,0.83,0.5,1.43,1.509,1.819l0.58,0.22c0.66,0.25,0.899,0.47,0.899,0.81c0,0.51-0.419,0.92-0.959,0.92
			c-0.31,0-0.569-0.141-0.75-0.4c-0.1-0.14-0.16-0.31-0.27-0.759l-1.299,0.35c0.13,0.579,0.27,0.909,0.53,1.249
			c0.39,0.489,1.059,0.8,1.779,0.8c1.299,0,2.309-0.95,2.309-2.179C45.678,262.095,45.148,261.486,44.019,261.056z"/>
		<path class="st3" d="M49.769,265.144c1.919,0,3.508-1.59,3.508-3.488c0-1.919-1.589-3.498-3.518-3.498
			c-1.899,0-3.518,1.589-3.518,3.448C46.241,263.575,47.81,265.144,49.769,265.144z M49.749,259.407
			c1.209,0,2.179,0.989,2.179,2.249c0,1.229-0.979,2.238-2.168,2.238c-1.18,0-2.169-1.009-2.169-2.208
			C47.59,260.417,48.539,259.407,49.749,259.407z"/>
		<path class="st3" d="M54.24,258.318v4.268c0,0.59,0.09,0.999,0.29,1.349c0.44,0.74,1.309,1.21,2.249,1.21s1.809-0.47,2.239-1.21
			c0.21-0.359,0.3-0.759,0.3-1.349v-4.268h-1.33v4.088c0,0.539-0.03,0.77-0.14,0.959c-0.18,0.31-0.63,0.529-1.07,0.529
			c-0.439,0-0.889-0.22-1.069-0.529c-0.11-0.189-0.14-0.42-0.14-0.959v-4.088H54.24z"/>
		<path class="st3" d="M64.848,260.466c0-0.77-0.39-1.459-1.029-1.829c-0.39-0.229-0.86-0.319-1.58-0.319H60.66v6.666h1.33v-2.419
			h0.25l0.33-0.01h0.03h0.02l1.359,2.429h1.499l-1.569-2.788C64.508,261.816,64.848,261.186,64.848,260.466z M62.33,261.356h-0.34
			v-1.819h0.34c0.39,0,0.64,0.05,0.819,0.15c0.25,0.14,0.4,0.43,0.4,0.77C63.549,261.076,63.179,261.356,62.33,261.356z"/>
		<path class="st3" d="M69.229,259.407c0.669,0,1.12,0.24,1.739,0.92l0.939-0.899c-0.85-0.89-1.639-1.27-2.668-1.27
			c-1.959,0-3.538,1.559-3.538,3.498c0,1.929,1.579,3.488,3.548,3.488c1.029,0,1.819-0.37,2.699-1.289l-0.95-0.89
			c-0.649,0.689-1.1,0.929-1.759,0.929c-1.22,0-2.189-0.989-2.189-2.238C67.05,260.386,67.999,259.407,69.229,259.407z"/>
		<polygon class="st3" points="76.638,259.547 76.638,258.318 72.82,258.318 72.82,264.984 76.728,264.984 76.728,263.745 
			74.149,263.745 74.149,262.225 76.358,262.225 76.358,260.996 74.149,260.996 74.149,259.547 		"/>
		<path class="st3" d="M83.098,259.407c0.669,0,1.12,0.24,1.739,0.92l0.939-0.899c-0.85-0.89-1.639-1.27-2.668-1.27
			c-1.959,0-3.538,1.559-3.538,3.498c0,1.929,1.579,3.488,3.548,3.488c1.029,0,1.819-0.37,2.699-1.289l-0.95-0.89
			c-0.649,0.689-1.1,0.929-1.759,0.929c-1.22,0-2.189-0.989-2.189-2.238C80.919,260.386,81.869,259.407,83.098,259.407z"/>
		<path class="st3" d="M93.097,261.656c0-1.919-1.589-3.498-3.518-3.498c-1.899,0-3.518,1.589-3.518,3.448
			c0,1.969,1.569,3.538,3.528,3.538C91.507,265.144,93.097,263.554,93.097,261.656z M87.41,261.686c0-1.27,0.949-2.279,2.159-2.279
			s2.179,0.989,2.179,2.249c0,1.229-0.979,2.238-2.168,2.238C88.399,263.894,87.41,262.885,87.41,261.686z"/>
		<path class="st3" d="M99.297,261.646c0-2.029-1.429-3.328-3.658-3.328H94.06v6.666h1.579
			C97.868,264.984,99.297,263.674,99.297,261.646z M95.679,263.745h-0.29v-4.188h0.29c1.409,0,2.279,0.789,2.279,2.089
			C97.958,262.955,97.098,263.745,95.679,263.745z"/>
		<polygon class="st3" points="104.087,259.547 104.087,258.318 100.27,258.318 100.27,264.984 104.178,264.984 104.178,263.745 
			101.599,263.745 101.599,262.225 103.808,262.225 103.808,260.996 101.599,260.996 101.599,259.547 		"/>
		<path class="st3" d="M44.019,369.056l-0.62-0.23c-0.479-0.18-0.719-0.409-0.719-0.679c0-0.431,0.35-0.75,0.819-0.75
			c0.42,0,0.63,0.16,1.029,0.77l1.089-0.689c-0.569-0.93-1.179-1.319-2.089-1.319c-1.239,0-2.179,0.85-2.179,1.979
			c0,0.83,0.5,1.43,1.509,1.819l0.58,0.22c0.66,0.25,0.899,0.47,0.899,0.81c0,0.51-0.419,0.92-0.959,0.92
			c-0.31,0-0.569-0.141-0.75-0.4c-0.1-0.14-0.16-0.31-0.27-0.759l-1.299,0.35c0.13,0.579,0.27,0.909,0.53,1.249
			c0.39,0.489,1.059,0.8,1.779,0.8c1.299,0,2.309-0.95,2.309-2.179C45.678,370.095,45.148,369.486,44.019,369.056z"/>
		<path class="st3" d="M49.759,366.158c-1.899,0-3.518,1.589-3.518,3.448c0,1.969,1.569,3.538,3.528,3.538
			c1.919,0,3.508-1.59,3.508-3.488C53.277,367.737,51.688,366.158,49.759,366.158z M49.759,371.894c-1.18,0-2.169-1.009-2.169-2.208
			c0-1.27,0.949-2.279,2.159-2.279s2.179,0.989,2.179,2.249C51.927,370.885,50.948,371.894,49.759,371.894z"/>
		<path class="st3" d="M57.988,370.406c0,0.539-0.03,0.77-0.14,0.959c-0.18,0.31-0.63,0.529-1.07,0.529
			c-0.439,0-0.889-0.22-1.069-0.529c-0.11-0.189-0.14-0.42-0.14-0.959v-4.088h-1.33v4.268c0,0.59,0.09,0.999,0.29,1.349
			c0.44,0.74,1.309,1.21,2.249,1.21c0.94,0,1.809-0.47,2.239-1.21c0.21-0.359,0.3-0.759,0.3-1.349v-4.268h-1.33v4.088H57.988z"/>
		<path class="st3" d="M64.848,368.466c0-0.77-0.39-1.459-1.029-1.829c-0.39-0.229-0.86-0.319-1.58-0.319H60.66v6.666h1.33v-2.419
			h0.25l0.33-0.01h0.03h0.02l1.359,2.429h1.499l-1.569-2.788C64.508,369.816,64.848,369.186,64.848,368.466z M62.33,369.356h-0.34
			v-1.819h0.34c0.39,0,0.64,0.05,0.819,0.15c0.25,0.14,0.4,0.43,0.4,0.77C63.549,369.076,63.179,369.356,62.33,369.356z"/>
		<path class="st3" d="M70.998,370.966c-0.649,0.689-1.1,0.929-1.759,0.929c-1.22,0-2.189-0.989-2.189-2.238
			c0-1.27,0.949-2.249,2.179-2.249c0.669,0,1.12,0.24,1.739,0.92l0.939-0.899c-0.85-0.89-1.639-1.27-2.668-1.27
			c-1.959,0-3.538,1.559-3.538,3.498c0,1.929,1.579,3.488,3.548,3.488c1.029,0,1.819-0.37,2.699-1.289L70.998,370.966z"/>
		<polygon class="st3" points="76.638,367.547 76.638,366.318 72.82,366.318 72.82,372.984 76.728,372.984 76.728,371.745 
			74.149,371.745 74.149,370.225 76.358,370.225 76.358,368.996 74.149,368.996 74.149,367.547 		"/>
		<path class="st3" d="M83.098,367.407c0.669,0,1.12,0.24,1.739,0.92l0.939-0.899c-0.85-0.89-1.639-1.27-2.668-1.27
			c-1.959,0-3.538,1.559-3.538,3.498c0,1.929,1.579,3.488,3.548,3.488c1.029,0,1.819-0.37,2.699-1.289l-0.95-0.89
			c-0.649,0.689-1.1,0.929-1.759,0.929c-1.22,0-2.189-0.989-2.189-2.238C80.919,368.386,81.869,367.407,83.098,367.407z"/>
		<path class="st3" d="M93.097,369.656c0-1.919-1.589-3.498-3.518-3.498c-1.899,0-3.518,1.589-3.518,3.448
			c0,1.969,1.569,3.538,3.528,3.538C91.507,373.144,93.097,371.554,93.097,369.656z M87.41,369.686c0-1.27,0.949-2.279,2.159-2.279
			s2.179,0.989,2.179,2.249c0,1.229-0.979,2.238-2.168,2.238C88.399,371.894,87.41,370.885,87.41,369.686z"/>
		<path class="st3" d="M99.297,369.646c0-2.029-1.429-3.328-3.658-3.328H94.06v6.666h1.579
			C97.868,372.984,99.297,371.674,99.297,369.646z M95.679,371.745h-0.29v-4.188h0.29c1.409,0,2.279,0.789,2.279,2.089
			C97.958,370.955,97.098,371.745,95.679,371.745z"/>
		<polygon class="st3" points="104.087,367.547 104.087,366.318 100.27,366.318 100.27,372.984 104.178,372.984 104.178,371.745 
			101.599,371.745 101.599,370.225 103.808,370.225 103.808,368.996 101.599,368.996 101.599,367.547 		"/>
		<polygon class="st3" points="158.479,221.587 154.824,221.587 154.824,219.337 158.839,219.337 158.839,216.887 152.159,216.887 
			152.159,228.897 154.824,228.897 154.824,224.053 158.479,224.053 		"/>
		<path class="st3" d="M162.942,216.887l-4.483,12.01h2.809l0.918-2.646h4.556l0.918,2.646h2.827l-4.483-12.01H162.942z
			 M163.05,223.784l1.405-4.052l1.422,4.052H163.05z"/>
		<polygon class="st3" points="179.233,224.179 173.687,216.887 171.455,216.887 171.455,228.897 174.12,228.897 174.12,221.605 
			179.665,228.897 181.898,228.897 181.898,216.887 179.233,216.887 		"/>
		<path class="st3" d="M193.83,216.582c-3.439,0-6.392,2.862-6.392,6.212c0,3.528,2.845,6.409,6.356,6.409
			c3.547,0,6.446-2.826,6.446-6.302C200.24,219.426,197.359,216.582,193.83,216.582z M193.83,226.718
			c-1.999,0-3.709-1.729-3.709-3.763c0-2.179,1.621-3.89,3.691-3.89c2.088,0,3.745,1.692,3.745,3.835
			C197.557,224.99,195.882,226.718,193.83,226.718z"/>
		<path class="st3" d="M208.5,224.234c0,0.918-0.054,1.314-0.234,1.62c-0.288,0.486-1.026,0.864-1.765,0.864
			c-0.72,0-1.458-0.36-1.747-0.864c-0.18-0.306-0.234-0.702-0.234-1.62v-7.347h-2.665v7.671c0,1.044,0.162,1.782,0.54,2.431
			c0.792,1.35,2.395,2.214,4.124,2.214s3.313-0.864,4.105-2.214c0.378-0.648,0.54-1.387,0.54-2.431v-7.671H208.5V224.234z"/>
		<polygon class="st3" points="212.115,219.354 214.942,219.354 214.942,228.897 217.607,228.897 217.607,219.354 220.416,219.354 
			220.416,216.887 212.115,216.887 		"/>
		<rect x="546.51" y="190.545" class="st3" width="3" height="5"/>
		<rect x="632.01" y="68.045" class="st3" width="5" height="3"/>
		<rect x="612.01" y="68.045" class="st3" width="5" height="3"/>
		<rect x="546.51" y="130.545" class="st3" width="3" height="5"/>
		<rect x="546.51" y="120.545" class="st3" width="3" height="5"/>
		<rect x="546.51" y="90.545" class="st3" width="3" height="5"/>
		<rect x="546.51" y="110.545" class="st3" width="3" height="5"/>
		<rect x="622.01" y="68.045" class="st3" width="5" height="3"/>
		<rect x="546.51" y="140.545" class="st3" width="3" height="5"/>
		<rect x="546.51" y="170.545" class="st3" width="3" height="5"/>
		<rect x="546.51" y="150.545" class="st3" width="3" height="5"/>
		<rect x="546.51" y="180.545" class="st3" width="3" height="5"/>
		<rect x="546.51" y="160.545" class="st3" width="3" height="5"/>
		<rect x="546.51" y="100.545" class="st3" width="3" height="5"/>
		<rect x="582.01" y="68.045" class="st3" width="5" height="3"/>
		<rect x="592.01" y="68.045" class="st3" width="5" height="3"/>
		<rect x="572.01" y="68.045" class="st3" width="5" height="3"/>
		<rect x="546.51" y="80.545" class="st3" width="3" height="5"/>
		<rect x="602.01" y="68.045" class="st3" width="5" height="3"/>
		<rect x="546.51" y="70.545" class="st3" width="3" height="5"/>
		<rect x="562.01" y="68.045" class="st3" width="5" height="3"/>
		<rect x="552.01" y="68.045" class="st3" width="5" height="3"/>
		<rect x="902.709" y="88.045" class="st3" width="3" height="5"/>
		<rect x="812.709" y="68.045" class="st3" width="5" height="3"/>
		<rect x="822.709" y="68.045" class="st3" width="5" height="3"/>
		<rect x="802.709" y="68.045" class="st3" width="5" height="3"/>
		<rect x="902.709" y="78.045" class="st3" width="3" height="5"/>
		<rect x="902.709" y="68.045" class="st3" width="3" height="5"/>
		<rect x="882.709" y="68.045" class="st3" width="5" height="3"/>
		<rect x="892.709" y="68.045" class="st3" width="5" height="3"/>
		<rect x="902.709" y="188.045" class="st3" width="3" height="5"/>
		<rect x="872.709" y="68.045" class="st3" width="5" height="3"/>
		<rect x="852.709" y="68.045" class="st3" width="5" height="3"/>
		<rect x="842.709" y="68.045" class="st3" width="5" height="3"/>
		<rect x="902.709" y="178.045" class="st3" width="3" height="5"/>
		<rect x="862.709" y="68.045" class="st3" width="5" height="3"/>
		<rect x="902.709" y="98.045" class="st3" width="3" height="5"/>
		<rect x="902.709" y="118.045" class="st3" width="3" height="5"/>
		<rect x="832.709" y="68.045" class="st3" width="5" height="3"/>
		<rect x="902.709" y="108.045" class="st3" width="3" height="5"/>
		<rect x="902.709" y="128.045" class="st3" width="3" height="5"/>
		<rect x="902.709" y="158.045" class="st3" width="3" height="5"/>
		<rect x="902.709" y="168.045" class="st3" width="3" height="5"/>
		<rect x="902.709" y="138.045" class="st3" width="3" height="5"/>
		<rect x="902.709" y="148.045" class="st3" width="3" height="5"/>
		<rect x="762.709" y="68.045" class="st3" width="5" height="3"/>
		<rect x="712.709" y="68.045" class="st3" width="5" height="3"/>
		<rect x="722.709" y="68.045" class="st3" width="5" height="3"/>
		<rect x="702.709" y="68.045" class="st3" width="5" height="3"/>
		<rect x="732.709" y="68.045" class="st3" width="5" height="3"/>
		<rect x="792.709" y="68.045" class="st3" width="5" height="3"/>
		<rect x="772.709" y="68.045" class="st3" width="5" height="3"/>
		<rect x="782.709" y="68.045" class="st3" width="5" height="3"/>
		<rect x="742.709" y="68.045" class="st3" width="5" height="3"/>
		<rect x="752.709" y="68.045" class="st3" width="5" height="3"/>
		<polygon class="st3" points="947.709,405.344 503.609,405.344 503.609,388.045 500.609,388.045 500.609,408.344 950.709,408.344 
			950.709,388.644 947.709,388.644 		"/>
		<polygon class="st3" points="483.91,405.344 72.909,405.344 72.909,388.045 69.909,388.045 69.909,408.344 486.91,408.344 
			486.91,388.644 483.91,388.644 		"/>
		<path class="st3" d="M253.227,422.906c0.702-0.666,0.99-1.296,0.99-2.143c0-1.116-0.684-2.269-1.692-2.845
			c-0.666-0.396-1.548-0.576-2.773-0.576h-2.971v12.01h3.529c1.152,0,1.872-0.162,2.575-0.559c1.188-0.666,1.89-1.8,1.89-3.061
			C254.775,424.598,254.235,423.627,253.227,422.906z M249.355,419.666h0.594c1.278,0,1.765,0.342,1.765,1.224
			c0,0.486-0.216,0.883-0.594,1.081c-0.252,0.144-0.504,0.18-1.17,0.18h-0.594v-2.485H249.355z M251.552,426.759
			c-0.306,0.162-0.63,0.216-1.333,0.216h-0.864v-2.7h0.702c0.811,0,1.225,0.071,1.548,0.252c0.36,0.216,0.594,0.63,0.594,1.098
			C252.2,426.111,251.966,426.525,251.552,426.759z"/>
		<path class="st3" d="M263.055,424.689c0,0.918-0.054,1.314-0.234,1.62c-0.288,0.486-1.026,0.864-1.765,0.864
			c-0.72,0-1.458-0.36-1.747-0.864c-0.18-0.306-0.234-0.702-0.234-1.62v-7.347h-2.665v7.671c0,1.044,0.162,1.782,0.54,2.431
			c0.792,1.35,2.395,2.214,4.124,2.214s3.313-0.864,4.105-2.214c0.378-0.648,0.54-1.387,0.54-2.431v-7.671h-2.665v7.347H263.055z"/>
		<rect x="268.021" y="417.342" class="st3" width="2.665" height="12.01"/>
		<polygon class="st3" points="275.653,417.342 272.988,417.342 272.988,429.352 279.884,429.352 279.884,426.885 275.653,426.885 
					"/>
		<path class="st3" d="M283.969,417.342h-2.953v12.01h2.953c4.015,0,6.608-2.358,6.608-6.014
			C290.577,419.702,287.984,417.342,283.969,417.342z M284.023,426.885h-0.342v-7.076h0.342c2.431,0,3.889,1.332,3.889,3.547
			C287.912,425.553,286.436,426.885,284.023,426.885z"/>
		<polygon class="st3" points="674.658,419.809 677.484,419.809 677.484,429.352 680.149,429.352 680.149,419.809 682.959,419.809 
			682.959,417.342 674.658,417.342 		"/>
		<polygon class="st3" points="686.557,424.491 690.482,424.491 690.482,422.042 686.557,422.042 686.557,419.792 690.969,419.792 
			690.969,417.342 683.91,417.342 683.91,429.352 691.131,429.352 691.131,426.885 686.557,426.885 		"/>
		<path class="st3" d="M697.573,422.168l-1.08-0.414c-0.811-0.288-1.206-0.647-1.206-1.062c0-0.667,0.558-1.188,1.277-1.188
			c0.738,0,1.045,0.233,1.766,1.351l2.196-1.387c-1.026-1.711-2.179-2.431-3.872-2.431c-2.286,0-4.015,1.566-4.015,3.637
			c0,1.53,0.9,2.629,2.772,3.331l1.045,0.396c1.116,0.432,1.494,0.756,1.494,1.296c0,0.828-0.684,1.477-1.549,1.477
			c-0.81,0-1.314-0.486-1.566-1.53l-0.071-0.288l-0.036-0.145l-2.611,0.702c0.234,1.062,0.504,1.657,0.973,2.27
			c0.721,0.918,1.963,1.476,3.277,1.476c2.395,0,4.268-1.746,4.268-3.979C700.635,424.058,699.68,422.961,697.573,422.168z"/>
		<polygon class="st3" points="701.243,419.809 704.07,419.809 704.07,429.352 706.734,429.352 706.734,419.809 709.543,419.809 
			709.543,417.342 701.243,417.342 		"/>
		<path class="st3" d="M724.287,424.689l0.071-0.252c0.036-0.126,0.054-0.198,0.072-0.234l0.071-0.234l-2.448-0.666
			c-0.216,0.612-0.342,0.937-0.54,1.368l-1.639-1.908c1.242-0.918,1.783-1.765,1.783-2.827c0-1.639-1.352-2.898-3.098-2.898
			c-1.782,0-3.133,1.296-3.133,3.024c0,0.811,0.27,1.404,1.08,2.467c-0.594,0.433-0.846,0.631-1.17,0.954
			c-0.684,0.685-1.062,1.566-1.062,2.467c0,2.106,1.891,3.709,4.375,3.709c1.152,0,2.018-0.27,3.025-0.972l0.559,0.666h3.33
			l-2.196-2.557C723.764,426.093,724.053,425.445,724.287,424.689z M718.561,419.107c0.469,0,0.811,0.324,0.811,0.756
			c0,0.415-0.18,0.648-0.937,1.243c-0.612-0.721-0.72-0.883-0.72-1.207C717.715,419.449,718.074,419.107,718.561,419.107z
			 M718.597,427.246c-0.972,0-1.71-0.595-1.71-1.404c0-0.486,0.287-0.937,1.044-1.603l2.089,2.484
			C719.533,427.101,719.137,427.246,718.597,427.246z"/>
		<path class="st3" d="M738.469,421.286c0-1.404-0.721-2.683-1.891-3.367c-0.72-0.396-1.584-0.576-2.863-0.576h-2.952v12.01h2.665
			v-4.178h0.287c0.127,0,0.217,0,0.289-0.018h0.216h0.071h0.055l2.322,4.195h3.008l-2.791-4.951
			C737.893,423.716,738.469,422.564,738.469,421.286z M733.859,422.744h-0.449v-2.971h0.449c1.404,0,2.035,0.469,2.035,1.513
			C735.895,422.312,735.301,422.744,733.859,422.744z"/>
		<polygon class="st3" points="743.473,424.491 747.396,424.491 747.396,422.042 743.473,422.042 743.473,419.792 747.883,419.792 
			747.883,417.342 740.825,417.342 740.825,429.352 748.045,429.352 748.045,426.885 743.473,426.885 		"/>
		<polygon class="st3" points="752.4,417.342 749.734,417.342 749.734,429.352 756.631,429.352 756.631,426.885 752.4,426.885 		"/>
		<polygon class="st3" points="760.41,424.491 764.334,424.491 764.334,422.042 760.41,422.042 760.41,419.792 764.82,419.792 
			764.82,417.342 757.763,417.342 757.763,429.352 764.982,429.352 764.982,426.885 760.41,426.885 		"/>
		<path class="st3" d="M770.111,417.342l-4.482,12.01h2.809l0.918-2.646h4.556l0.918,2.646h2.827l-4.483-12.01H770.111z
			 M770.22,424.239l1.405-4.052l1.422,4.052H770.22z"/>
		<path class="st3" d="M783.18,422.168l-1.08-0.414c-0.811-0.288-1.206-0.647-1.206-1.062c0-0.667,0.558-1.188,1.278-1.188
			c0.738,0,1.045,0.233,1.765,1.351l2.196-1.387c-1.025-1.711-2.178-2.431-3.871-2.431c-2.287,0-4.016,1.566-4.016,3.637
			c0,1.53,0.9,2.629,2.773,3.331l1.045,0.396c1.115,0.432,1.494,0.756,1.494,1.296c0,0.828-0.685,1.477-1.549,1.477
			c-0.811,0-1.314-0.486-1.566-1.53l-0.072-0.288l-0.035-0.145l-2.611,0.702c0.234,1.062,0.504,1.657,0.973,2.27
			c0.72,0.918,1.963,1.476,3.277,1.476c2.395,0,4.267-1.746,4.267-3.979C786.241,424.058,785.287,422.961,783.18,422.168z"/>
		<polygon class="st3" points="790.632,424.491 794.557,424.491 794.557,422.042 790.632,422.042 790.632,419.792 795.043,419.792 
			795.043,417.342 787.984,417.342 787.984,429.352 795.205,429.352 795.205,426.885 790.632,426.885 		"/>
	</g>
</g>
</svg>
