<?xml version="1.0" encoding="utf-8"?>
<!-- Generator: Adobe Illustrator 22.0.1, SVG Export Plug-In . SVG Version: 6.00 Build 0)  -->
<svg version="1.1" id="Layer_1" xmlns="http://www.w3.org/2000/svg" xmlns:xlink="http://www.w3.org/1999/xlink" x="0px" y="0px"
	 viewBox="0 0 990 447.2" style="enable-background:new 0 0 990 447.2;" xml:space="preserve">
<style type="text/css">
	.st0{fill:none;stroke:#1C425C;stroke-width:3;stroke-miterlimit:10;stroke-dasharray:5,5,5,5,5,5;}
	.st1{fill:#E74C3C;}
	.st2{fill:none;stroke:#1C425C;stroke-width:3;stroke-miterlimit:10;}
	.st3{fill:none;}
	.st4{fill:#EFEFEF;stroke:#1C425C;stroke-width:3;stroke-miterlimit:10;}
	.st5{enable-background:new    ;}
	.st6{fill:#1C425C;}
	.st7{fill:#CAFCD8;}
	.st8{fill:#023550;}
</style>
<line class="st0" x1="767.6" y1="74.5" x2="767.6" y2="204"/>
<line class="st0" x1="645.2" y1="104.6" x2="645.2" y2="264.4"/>
<g>
	<path class="st1" d="M62.6,92.3v40.8c-0.2,3.8-8.9,6.6-19.8,6.6s-19.7-3-19.8-6.6V92.3c0.2-3.8,8.9-6.6,19.8-6.6
		C53.7,85.5,62.4,88.6,62.6,92.3"/>
	<path class="st2" d="M62.6,92.3v40.8c-0.2,3.8-8.9,6.6-19.8,6.6s-19.7-3-19.8-6.6V92.3c0.2-3.8,8.9-6.6,19.8-6.6
		C53.7,85.5,62.4,88.6,62.6,92.3z"/>
	<path class="st2" d="M62.6,92.3c0,3.8-8.9,6.8-19.8,6.8S23,96.1,23,92.3"/>
	<path class="st2" d="M62.6,105.9c0,3.8-8.9,6.8-19.8,6.8s-19.8-3-19.8-6.8"/>
	<path class="st2" d="M62.6,119.3c0,3.8-8.9,6.8-19.8,6.8s-19.8-3-19.8-6.8"/>
	<rect x="21.9" y="84.3" class="st3" width="42" height="56.7"/>
</g>
<g>
	<path class="st1" d="M62.6,200.3V241c-0.2,3.8-8.9,6.6-19.8,6.6s-19.7-3-19.8-6.6v-40.8c0.2-3.8,8.9-6.6,19.8-6.6
		C53.7,193.5,62.4,196.5,62.6,200.3"/>
	<path class="st2" d="M62.6,200.3V241c-0.2,3.8-8.9,6.6-19.8,6.6s-19.7-3-19.8-6.6v-40.8c0.2-3.8,8.9-6.6,19.8-6.6
		C53.7,193.5,62.4,196.5,62.6,200.3z"/>
	<path class="st2" d="M62.6,200.3c0,3.8-8.9,6.8-19.8,6.8s-19.8-3-19.8-6.8"/>
	<path class="st2" d="M62.6,213.9c0,3.8-8.9,6.8-19.8,6.8s-19.8-3-19.8-6.8"/>
	<path class="st2" d="M62.6,227.3c0,3.8-8.9,6.8-19.8,6.8s-19.8-3-19.8-6.8"/>
	<rect x="21.9" y="192.2" class="st3" width="42" height="56.7"/>
</g>
<g>
	<path class="st1" d="M62.6,308.6v40.8c-0.2,3.8-8.9,6.6-19.8,6.6s-19.7-3-19.8-6.6v-40.8c0.2-3.8,8.9-6.6,19.8-6.6
		C53.7,301.8,62.4,304.9,62.6,308.6"/>
	<path class="st2" d="M62.6,308.6v40.8c-0.2,3.8-8.9,6.6-19.8,6.6s-19.7-3-19.8-6.6v-40.8c0.2-3.8,8.9-6.6,19.8-6.6
		C53.7,301.8,62.4,304.9,62.6,308.6z"/>
	<path class="st2" d="M62.6,308.6c0,3.8-8.9,6.8-19.8,6.8s-19.8-3-19.8-6.8"/>
	<path class="st2" d="M62.6,322.2c0,3.8-8.9,6.8-19.8,6.8S23,326,23,322.2"/>
	<path class="st2" d="M62.6,335.6c0,3.8-8.9,6.8-19.8,6.8s-19.8-3-19.8-6.8"/>
	<rect x="21.9" y="300.6" class="st3" width="42" height="56.7"/>
</g>
<path class="st4" d="M192.3,130.1h-72.4c-4.8,0-8.8-3.9-8.8-8.8v-17.4c0-4.8,3.9-8.8,8.8-8.8h72.4c4.8,0,8.8,3.9,8.8,8.8v17.4
	C201.1,126.2,197.1,130.1,192.3,130.1z"/>
<path class="st4" d="M306.6,130.1h-72.4c-4.8,0-8.8-3.9-8.8-8.8v-17.4c0-4.8,3.9-8.8,8.8-8.8h72.4c4.8,0,8.8,3.9,8.8,8.8v17.4
	C315.4,126.2,311.5,130.1,306.6,130.1z"/>
<g class="st5">
	<path class="st6" d="M135.6,108.2h2.2c1,0,1.6,0.1,2.1,0.4c0.8,0.4,1.3,1.3,1.3,2.2c0,0.7-0.2,1.2-0.8,1.7c0.8,0.5,1.2,1.3,1.2,2.2
		c0,1-0.5,1.8-1.4,2.4c-0.5,0.3-1.1,0.4-2,0.4h-2.7V108.2z M138,112c0.5,0,0.8,0,1-0.2c0.3-0.2,0.5-0.5,0.5-0.9
		c0-0.3-0.1-0.6-0.3-0.8c-0.2-0.2-0.6-0.3-1.2-0.3h-0.6v2.2H138z M138.2,115.9c0.6,0,0.8,0,1.1-0.2c0.4-0.2,0.6-0.5,0.6-1
		c0-0.4-0.2-0.8-0.5-0.9c-0.3-0.2-0.6-0.2-1.3-0.2h-0.7v2.3H138.2z"/>
	<path class="st6" d="M144.9,113.9c0,0.8,0,1.1,0.2,1.3c0.3,0.4,0.9,0.7,1.5,0.7c0.6,0,1.2-0.3,1.5-0.7c0.2-0.3,0.2-0.6,0.2-1.3
		v-5.7h1.9v6c0,0.8-0.1,1.4-0.4,1.9c-0.6,1-1.8,1.7-3.1,1.7c-1.3,0-2.5-0.7-3.2-1.7c-0.3-0.5-0.4-1.1-0.4-1.9v-6h1.9V113.9z"/>
	<path class="st6" d="M153.9,117.5h-1.9v-9.3h1.9V117.5z"/>
	<path class="st6" d="M157.7,108.2v7.6h3.4v1.7h-5.2v-9.3H157.7z"/>
	<path class="st6" d="M164.2,108.2c3.1,0,5.1,1.8,5.1,4.7s-2,4.7-5.1,4.7H162v-9.3H164.2z M163.8,115.8h0.4c2,0,3.2-1.1,3.2-2.9
		c0-1.8-1.2-2.9-3.2-2.9h-0.4V115.8z"/>
	<path class="st6" d="M174.7,117.5v-7.1l-1.1,0.6l-0.9-1.5l2.4-1.3h1.5v9.3H174.7z"/>
</g>
<g class="st5">
	<path class="st6" d="M255.6,115.4l-0.8,2.2h-2l3.5-9.3h2.2l3.5,9.3h-2l-0.8-2.2H255.6z M257.4,110.2l-1.2,3.4h2.5L257.4,110.2z"/>
	<path class="st6" d="M269.4,111c-0.9-1-1.5-1.3-2.4-1.3c-1.7,0-3.1,1.4-3.1,3.2c0,1.8,1.4,3.1,3.1,3.1c0.9,0,1.6-0.3,2.5-1.3
		l1.3,1.2c-1.2,1.3-2.3,1.8-3.8,1.8c-2.8,0-5-2.2-5-4.9c0-2.7,2.2-4.9,5-4.9c1.4,0,2.5,0.5,3.7,1.8L269.4,111z"/>
	<path class="st6" d="M278.5,111c-0.9-1-1.5-1.3-2.4-1.3c-1.7,0-3.1,1.4-3.1,3.2c0,1.8,1.4,3.1,3.1,3.1c0.9,0,1.6-0.3,2.5-1.3
		l1.3,1.2c-1.2,1.3-2.3,1.8-3.8,1.8c-2.8,0-5-2.2-5-4.9c0-2.7,2.2-4.9,5-4.9c1.4,0,2.5,0.5,3.7,1.8L278.5,111z"/>
	<path class="st6" d="M285.2,117.5v-7.1l-1.1,0.6l-0.9-1.5l2.4-1.3h1.5v9.3H285.2z"/>
</g>
<path class="st4" d="M192.3,191.4h-72.4c-4.8,0-8.8-3.9-8.8-8.8v-17.4c0-4.8,3.9-8.8,8.8-8.8h72.4c4.8,0,8.8,3.9,8.8,8.8v17.4
	C201.1,187.5,197.1,191.4,192.3,191.4z"/>
<path class="st4" d="M306.6,191.4h-72.4c-4.8,0-8.8-3.9-8.8-8.8v-17.4c0-4.8,3.9-8.8,8.8-8.8h72.4c4.8,0,8.8,3.9,8.8,8.8v17.4
	C315.4,187.5,311.5,191.4,306.6,191.4z"/>
<g class="st5">
	<path class="st6" d="M134.5,169.5h2.2c1,0,1.6,0.1,2.1,0.4c0.8,0.4,1.3,1.3,1.3,2.2c0,0.7-0.2,1.2-0.8,1.7c0.8,0.5,1.2,1.3,1.2,2.2
		c0,1-0.5,1.8-1.4,2.4c-0.5,0.3-1.1,0.4-2,0.4h-2.7V169.5z M136.9,173.3c0.5,0,0.8,0,1-0.2c0.3-0.2,0.5-0.5,0.5-0.9
		c0-0.3-0.1-0.6-0.3-0.8c-0.2-0.2-0.6-0.3-1.2-0.3h-0.6v2.2H136.9z M137.1,177.2c0.6,0,0.8,0,1.1-0.2c0.4-0.2,0.6-0.5,0.6-1
		c0-0.4-0.2-0.8-0.5-0.9c-0.3-0.2-0.6-0.2-1.3-0.2h-0.7v2.3H137.1z"/>
	<path class="st6" d="M143.8,175.3c0,0.8,0,1.1,0.2,1.3c0.3,0.4,0.9,0.7,1.5,0.7c0.6,0,1.2-0.3,1.5-0.7c0.2-0.3,0.2-0.6,0.2-1.3
		v-5.7h1.9v6c0,0.8-0.1,1.4-0.4,1.9c-0.6,1-1.8,1.7-3.1,1.7c-1.3,0-2.5-0.7-3.2-1.7c-0.3-0.5-0.4-1.1-0.4-1.9v-6h1.9V175.3z"/>
	<path class="st6" d="M152.8,178.9h-1.9v-9.3h1.9V178.9z"/>
	<path class="st6" d="M156.5,169.5v7.6h3.4v1.7h-5.2v-9.3H156.5z"/>
	<path class="st6" d="M163,169.5c3.1,0,5.1,1.8,5.1,4.7s-2,4.7-5.1,4.7h-2.2v-9.3H163z M162.7,177.1h0.4c2,0,3.2-1.1,3.2-2.9
		c0-1.8-1.2-2.9-3.2-2.9h-0.4V177.1z"/>
	<path class="st6" d="M172.2,177.4l3.3-3.6c0.6-0.7,0.9-1.2,0.9-1.8c0-0.6-0.4-1-1.1-1c-0.8,0-1.1,0.3-1.4,1.4l-1.7-0.5
		c0.2-0.7,0.4-1.2,0.7-1.6c0.5-0.7,1.4-1.1,2.5-1.1c1.8,0,3,1.1,3,2.8c0,0.9-0.4,1.7-1,2.5l-2.4,2.6h3.6v1.7h-6.2V177.4z"/>
</g>
<g class="st5">
	<path class="st6" d="M254.5,176.7l-0.8,2.2h-2l3.5-9.3h2.2l3.5,9.3h-2l-0.8-2.2H254.5z M256.3,171.5l-1.2,3.4h2.5L256.3,171.5z"/>
	<path class="st6" d="M268.3,172.4c-0.9-1-1.5-1.3-2.4-1.3c-1.7,0-3.1,1.4-3.1,3.2c0,1.8,1.4,3.1,3.1,3.1c0.9,0,1.6-0.3,2.5-1.3
		l1.3,1.2c-1.2,1.3-2.3,1.8-3.8,1.8c-2.8,0-5-2.2-5-4.9c0-2.7,2.2-4.9,5-4.9c1.4,0,2.5,0.5,3.7,1.8L268.3,172.4z"/>
	<path class="st6" d="M277.3,172.4c-0.9-1-1.5-1.3-2.4-1.3c-1.7,0-3.1,1.4-3.1,3.2c0,1.8,1.4,3.1,3.1,3.1c0.9,0,1.6-0.3,2.5-1.3
		l1.3,1.2c-1.2,1.3-2.3,1.8-3.8,1.8c-2.8,0-5-2.2-5-4.9c0-2.7,2.2-4.9,5-4.9c1.4,0,2.5,0.5,3.7,1.8L277.3,172.4z"/>
	<path class="st6" d="M282.7,177.4l3.3-3.6c0.6-0.7,0.9-1.2,0.9-1.8c0-0.6-0.4-1-1.1-1c-0.8,0-1.1,0.3-1.4,1.4l-1.7-0.5
		c0.2-0.7,0.4-1.2,0.7-1.6c0.5-0.7,1.4-1.1,2.5-1.1c1.8,0,3,1.1,3,2.8c0,0.9-0.4,1.7-1,2.5l-2.4,2.6h3.6v1.7h-6.2V177.4z"/>
</g>
<path class="st4" d="M192.3,287.6h-72.4c-4.8,0-8.8-3.9-8.8-8.8v-17.4c0-4.8,3.9-8.8,8.8-8.8h72.4c4.8,0,8.8,3.9,8.8,8.8v17.4
	C201.1,283.6,197.1,287.6,192.3,287.6z"/>
<path class="st4" d="M306.6,287.6h-72.4c-4.8,0-8.8-3.9-8.8-8.8v-17.4c0-4.8,3.9-8.8,8.8-8.8h72.4c4.8,0,8.8,3.9,8.8,8.8v17.4
	C315.4,283.6,311.5,287.6,306.6,287.6z"/>
<g class="st5">
	<path class="st6" d="M134.5,265.7h2.2c1,0,1.6,0.1,2.1,0.4c0.8,0.4,1.3,1.3,1.3,2.2c0,0.7-0.2,1.2-0.8,1.7c0.8,0.5,1.2,1.3,1.2,2.2
		c0,1-0.5,1.8-1.4,2.4c-0.5,0.3-1.1,0.4-2,0.4h-2.7V265.7z M136.9,269.5c0.5,0,0.8,0,1-0.2c0.3-0.2,0.5-0.5,0.5-0.9
		c0-0.3-0.1-0.6-0.3-0.8c-0.2-0.2-0.6-0.3-1.2-0.3h-0.6v2.2H136.9z M137.1,273.3c0.6,0,0.8,0,1.1-0.2c0.4-0.2,0.6-0.5,0.6-1
		c0-0.4-0.2-0.8-0.5-0.9c-0.3-0.2-0.6-0.2-1.3-0.2h-0.7v2.3H137.1z"/>
	<path class="st6" d="M143.8,271.4c0,0.8,0,1.1,0.2,1.3c0.3,0.4,0.9,0.7,1.5,0.7c0.6,0,1.2-0.3,1.5-0.7c0.2-0.3,0.2-0.6,0.2-1.3
		v-5.7h1.9v6c0,0.8-0.1,1.4-0.4,1.9c-0.6,1-1.8,1.7-3.1,1.7c-1.3,0-2.5-0.7-3.2-1.7c-0.3-0.5-0.4-1.1-0.4-1.9v-6h1.9V271.4z"/>
	<path class="st6" d="M152.8,275h-1.9v-9.3h1.9V275z"/>
	<path class="st6" d="M156.5,265.7v7.6h3.4v1.7h-5.2v-9.3H156.5z"/>
	<path class="st6" d="M163.1,265.7c3.1,0,5.1,1.8,5.1,4.7s-2,4.7-5.1,4.7h-2.2v-9.3H163.1z M162.7,273.3h0.4c2,0,3.2-1.1,3.2-2.9
		c0-1.8-1.2-2.9-3.2-2.9h-0.4V273.3z"/>
	<path class="st6" d="M174.2,269.3h0.8c0.8,0,1.2-0.4,1.2-1.1c0-0.7-0.5-1.1-1.2-1.1c-0.6,0-0.9,0.2-1.5,1l-1.5-0.8
		c0.8-1.3,1.7-1.9,3-1.9c1.8,0,3,1.2,3,2.8c0,0.7-0.3,1.3-0.8,1.8c0.7,0.6,1,1.2,1,2.2c0,1.8-1.4,3-3.3,3c-1,0-1.9-0.4-2.5-1.1
		c-0.4-0.4-0.5-0.9-0.7-1.7l1.8-0.5c0.3,1.2,0.6,1.5,1.4,1.5c0.8,0,1.4-0.5,1.4-1.3c0-0.8-0.5-1.2-1.4-1.2h-0.8V269.3z"/>
</g>
<g class="st5">
	<path class="st6" d="M254.5,272.8l-0.8,2.2h-2l3.5-9.3h2.2l3.5,9.3h-2l-0.8-2.2H254.5z M256.4,267.7l-1.2,3.4h2.5L256.4,267.7z"/>
	<path class="st6" d="M268.3,268.5c-0.9-1-1.5-1.3-2.4-1.3c-1.7,0-3.1,1.4-3.1,3.2c0,1.8,1.4,3.1,3.1,3.1c0.9,0,1.6-0.3,2.5-1.3
		l1.3,1.2c-1.2,1.3-2.3,1.8-3.8,1.8c-2.8,0-5-2.2-5-4.9c0-2.7,2.2-4.9,5-4.9c1.4,0,2.5,0.5,3.7,1.8L268.3,268.5z"/>
	<path class="st6" d="M277.4,268.5c-0.9-1-1.5-1.3-2.4-1.3c-1.7,0-3.1,1.4-3.1,3.2c0,1.8,1.4,3.1,3.1,3.1c0.9,0,1.6-0.3,2.5-1.3
		l1.3,1.2c-1.2,1.3-2.3,1.8-3.8,1.8c-2.8,0-5-2.2-5-4.9c0-2.7,2.2-4.9,5-4.9c1.4,0,2.5,0.5,3.7,1.8L277.4,268.5z"/>
	<path class="st6" d="M284.6,269.3h0.8c0.8,0,1.2-0.4,1.2-1.1c0-0.7-0.5-1.1-1.2-1.1c-0.6,0-0.9,0.2-1.5,1l-1.5-0.8
		c0.8-1.3,1.7-1.9,3-1.9c1.8,0,3,1.2,3,2.8c0,0.7-0.3,1.3-0.8,1.8c0.7,0.6,1,1.2,1,2.2c0,1.8-1.4,3-3.3,3c-1,0-1.9-0.4-2.5-1.1
		c-0.4-0.4-0.5-0.9-0.7-1.7l1.8-0.5c0.3,1.2,0.6,1.5,1.4,1.5c0.8,0,1.4-0.5,1.4-1.3c0-0.8-0.5-1.2-1.4-1.2h-0.8V269.3z"/>
</g>
<path class="st4" d="M447,239h-74c-4.9,0-8.9-4-8.9-8.9v-17.3c0-4.9,4-8.9,8.9-8.9h74c4.9,0,8.9,4,8.9,8.9v17.3
	C455.9,235,451.9,239,447,239z"/>
<g class="st5">
	<path class="st6" d="M383.5,226.4h-1.9v-9.3h2.2c0.9,0,1.5,0.1,2,0.4c0.9,0.5,1.4,1.5,1.4,2.5c0,1.1-0.5,2.1-1.4,2.6
		c-0.5,0.3-1.1,0.4-2,0.4h-0.4V226.4z M383.9,221.4c1,0,1.5-0.4,1.5-1.3s-0.5-1.3-1.5-1.3h-0.5v2.5H383.9z"/>
	<path class="st6" d="M389.5,224.3l-0.8,2.2h-2l3.5-9.3h2.2l3.5,9.3h-2l-0.8-2.2H389.5z M391.3,219.1l-1.2,3.4h2.5L391.3,219.1z"/>
	<path class="st6" d="M403.2,219.9c-0.9-1-1.5-1.3-2.4-1.3c-1.7,0-3.1,1.4-3.1,3.2c0,1.8,1.4,3.1,3.1,3.1c0.9,0,1.6-0.3,2.5-1.3
		l1.3,1.2c-1.2,1.3-2.3,1.8-3.8,1.8c-2.8,0-5-2.2-5-4.9c0-2.7,2.2-4.9,5-4.9c1.4,0,2.5,0.5,3.7,1.8L403.2,219.9z"/>
	<path class="st6" d="M413.2,226.4H411l-2.7-4l-0.8,0.9v3.2h-1.9v-9.3h1.9v3.6l3.4-3.6h2.4l-3.7,4L413.2,226.4z"/>
	<path class="st6" d="M416.3,224.3l-0.8,2.2h-2l3.5-9.3h2.2l3.5,9.3h-2l-0.8-2.2H416.3z M418.1,219.1l-1.2,3.4h2.5L418.1,219.1z"/>
	<path class="st6" d="M432.1,221.2v0.9c0,2.7-1.7,4.6-4.4,4.6c-2.8,0-5-2.2-5-4.9c0-2.7,2.2-4.9,5-4.9c1.4,0,2.5,0.5,3.8,1.7
		l-1.3,1.2c-0.9-0.9-1.5-1.2-2.5-1.2c-1.8,0-3.1,1.4-3.1,3.2c0,1.8,1.3,3.1,3.1,3.1c0.8,0,1.4-0.3,1.8-0.8c0.3-0.4,0.4-0.6,0.6-1.2
		h-2.5v-1.7H432.1z"/>
	<path class="st6" d="M438.8,218.8h-3.5v2h3.1v1.7h-3.1v2.1h3.6v1.7h-5.5v-9.3h5.4V218.8z"/>
</g>
<path class="st4" d="M555.3,239h-74c-4.9,0-8.9-4-8.9-8.9v-17.3c0-4.9,4-8.9,8.9-8.9h74c4.9,0,8.9,4,8.9,8.9v17.3
	C564.2,235,560.2,239,555.3,239z"/>
<g class="st5">
	<path class="st6" d="M479.2,226.4h-1.9v-9.3h1.9V226.4z"/>
	<path class="st6" d="M481.1,217.1h1.6l4.6,6.1v-6.1h1.9v9.3h-1.6l-4.6-6.1v6.1h-1.9V217.1z"/>
	<path class="st6" d="M496.3,218.8H494v7.6h-1.9v-7.6h-2.2v-1.7h6.3V218.8z"/>
	<path class="st6" d="M502.4,218.8H499v2h3.1v1.7H499v2.1h3.6v1.7h-5.5v-9.3h5.4V218.8z"/>
	<path class="st6" d="M512.8,221.2v0.9c0,2.7-1.7,4.6-4.4,4.6c-2.8,0-5-2.2-5-4.9c0-2.7,2.2-4.9,5-4.9c1.4,0,2.5,0.5,3.8,1.7
		l-1.3,1.2c-0.9-0.9-1.5-1.2-2.5-1.2c-1.8,0-3.1,1.4-3.1,3.2c0,1.8,1.3,3.1,3.1,3.1c0.8,0,1.4-0.3,1.8-0.8c0.3-0.4,0.4-0.6,0.6-1.2
		h-2.5v-1.7H512.8z"/>
	<path class="st6" d="M516.9,223L516.9,223L516.9,223l-0.5,0H516v3.4h-1.9v-9.3h2.2c1,0,1.7,0.1,2.2,0.4c0.9,0.5,1.4,1.5,1.4,2.6
		c0,1-0.5,1.9-1.3,2.4l2.2,3.9h-2.1L516.9,223z M516.5,221.4c1.2,0,1.7-0.4,1.7-1.3c0-0.5-0.2-0.9-0.6-1.1c-0.3-0.1-0.6-0.2-1.1-0.2
		H516v2.5H516.5z"/>
	<path class="st6" d="M524,224.3l-0.8,2.2h-2l3.5-9.3h2.2l3.5,9.3h-2l-0.8-2.2H524z M525.9,219.1l-1.2,3.4h2.5L525.9,219.1z"/>
	<path class="st6" d="M536,218.8h-2.2v7.6h-1.9v-7.6h-2.2v-1.7h6.3V218.8z"/>
	<path class="st6" d="M538.7,226.4h-1.9v-9.3h1.9V226.4z"/>
	<path class="st6" d="M549.9,221.8c0,2.7-2.2,4.9-4.9,4.9c-2.7,0-4.9-2.2-4.9-5c0-2.6,2.3-4.8,4.9-4.8
		C547.7,216.9,549.9,219.1,549.9,221.8z M541.9,221.8c0,1.7,1.4,3.1,3,3.1c1.7,0,3-1.4,3-3.1c0-1.8-1.4-3.2-3.1-3.2
		C543.3,218.6,541.9,220,541.9,221.8z"/>
	<path class="st6" d="M551.2,217.1h1.6l4.6,6.1v-6.1h1.9v9.3h-1.6l-4.6-6.1v6.1h-1.9V217.1z"/>
</g>
<path class="st4" d="M803.8,239h-72.4c-4.8,0-8.8-3.9-8.8-8.8v-17.4c0-4.8,3.9-8.8,8.8-8.8h72.4c4.8,0,8.8,3.9,8.8,8.8v17.4
	C812.6,235.1,808.7,239,803.8,239z"/>
<g class="st5">
	<path class="st6" d="M745,219.7c-0.6-0.9-0.9-1.1-1.4-1.1c-0.7,0-1.1,0.4-1.1,1.1c0,0.4,0.3,0.7,1,1l0.9,0.3
		c1.6,0.6,2.3,1.5,2.3,2.7c0,1.7-1.4,3.1-3.2,3.1c-1,0-1.9-0.4-2.5-1.1c-0.4-0.5-0.6-0.9-0.7-1.8l1.8-0.5c0.2,0.6,0.2,0.9,0.4,1.1
		c0.3,0.4,0.6,0.6,1.1,0.6c0.8,0,1.3-0.6,1.3-1.3c0-0.5-0.3-0.8-1.3-1.1l-0.8-0.3c-1.4-0.5-2.1-1.4-2.1-2.5c0-1.6,1.3-2.8,3.1-2.8
		c1.3,0,2.1,0.5,2.9,1.8L745,219.7z"/>
	<path class="st6" d="M753.5,218.8h-2.2v7.6h-1.9v-7.6h-2.2v-1.7h6.3V218.8z"/>
	<path class="st6" d="M755.4,224.3l-0.8,2.2h-2l3.5-9.3h2.2l3.5,9.3h-2l-0.8-2.2H755.4z M757.3,219.1l-1.2,3.4h2.5L757.3,219.1z"/>
	<path class="st6" d="M771.2,221.2v0.9c0,2.7-1.7,4.6-4.4,4.6c-2.8,0-5-2.2-5-4.9c0-2.7,2.2-4.9,5-4.9c1.4,0,2.5,0.5,3.8,1.7
		l-1.3,1.2c-0.9-0.9-1.5-1.2-2.5-1.2c-1.8,0-3.1,1.4-3.1,3.2c0,1.8,1.3,3.1,3.1,3.1c0.8,0,1.4-0.3,1.8-0.8c0.3-0.4,0.4-0.6,0.6-1.2
		h-2.5v-1.7H771.2z"/>
	<path class="st6" d="M774.4,226.4h-1.9v-9.3h1.9V226.4z"/>
	<path class="st6" d="M776.3,217.1h1.6l4.6,6.1v-6.1h1.9v9.3h-1.6l-4.6-6.1v6.1h-1.9V217.1z"/>
	<path class="st6" d="M795,221.2v0.9c0,2.7-1.7,4.6-4.4,4.6c-2.8,0-5-2.2-5-4.9c0-2.7,2.2-4.9,5-4.9c1.4,0,2.5,0.5,3.8,1.7l-1.3,1.2
		c-0.9-0.9-1.5-1.2-2.5-1.2c-1.8,0-3.1,1.4-3.1,3.2c0,1.8,1.3,3.1,3.1,3.1c0.8,0,1.4-0.3,1.8-0.8c0.3-0.4,0.4-0.6,0.6-1.2h-2.5v-1.7
		H795z"/>
</g>
<path class="st4" d="M910.8,239h-72.4c-4.8,0-8.8-3.9-8.8-8.8v-17.4c0-4.8,3.9-8.8,8.8-8.8h72.4c4.8,0,8.8,3.9,8.8,8.8v17.4
	C919.6,235.1,915.6,239,910.8,239z"/>
<g class="st5">
	<path class="st6" d="M836,226.4h-1.9v-9.3h2.2c0.9,0,1.5,0.1,2,0.4c0.9,0.5,1.4,1.5,1.4,2.5c0,1.1-0.5,2.1-1.4,2.6
		c-0.5,0.3-1.1,0.4-2,0.4H836V226.4z M836.5,221.4c1,0,1.5-0.4,1.5-1.3s-0.5-1.3-1.5-1.3H836v2.5H836.5z"/>
	<path class="st6" d="M843.6,223L843.6,223L843.6,223l-0.5,0h-0.3v3.4h-1.9v-9.3h2.2c1,0,1.7,0.1,2.2,0.4c0.9,0.5,1.4,1.5,1.4,2.6
		c0,1-0.5,1.9-1.3,2.4l2.2,3.9h-2.1L843.6,223z M843.2,221.4c1.2,0,1.7-0.4,1.7-1.3c0-0.5-0.2-0.9-0.6-1.1c-0.3-0.1-0.6-0.2-1.1-0.2
		h-0.5v2.5H843.2z"/>
	<path class="st6" d="M857.8,221.8c0,2.7-2.2,4.9-4.9,4.9c-2.7,0-4.9-2.2-4.9-5c0-2.6,2.3-4.8,4.9-4.8
		C855.5,216.9,857.8,219.1,857.8,221.8z M849.8,221.8c0,1.7,1.4,3.1,3,3.1c1.7,0,3-1.4,3-3.1c0-1.8-1.4-3.2-3.1-3.2
		C851.1,218.6,849.8,220,849.8,221.8z"/>
	<path class="st6" d="M861.3,217.1c3.1,0,5.1,1.8,5.1,4.7s-2,4.7-5.1,4.7h-2.2v-9.3H861.3z M861,224.7h0.4c2,0,3.2-1.1,3.2-2.9
		c0-1.8-1.2-2.9-3.2-2.9H861V224.7z"/>
	<path class="st6" d="M869.6,222.8c0,0.8,0,1.1,0.2,1.3c0.3,0.4,0.9,0.7,1.5,0.7s1.2-0.3,1.5-0.7c0.2-0.3,0.2-0.6,0.2-1.3v-5.7h1.9
		v6c0,0.8-0.1,1.4-0.4,1.9c-0.6,1-1.8,1.7-3.1,1.7s-2.5-0.7-3.2-1.7c-0.3-0.5-0.4-1.1-0.4-1.9v-6h1.9V222.8z"/>
	<path class="st6" d="M883.6,219.9c-0.9-1-1.5-1.3-2.4-1.3c-1.7,0-3.1,1.4-3.1,3.2c0,1.8,1.4,3.1,3.1,3.1c0.9,0,1.6-0.3,2.5-1.3
		l1.3,1.2c-1.2,1.3-2.3,1.8-3.8,1.8c-2.8,0-5-2.2-5-4.9c0-2.7,2.2-4.9,5-4.9c1.4,0,2.5,0.5,3.7,1.8L883.6,219.9z"/>
	<path class="st6" d="M891.8,218.8h-2.2v7.6h-1.9v-7.6h-2.2v-1.7h6.3V218.8z"/>
	<path class="st6" d="M894.5,226.4h-1.9v-9.3h1.9V226.4z"/>
	<path class="st6" d="M905.7,221.8c0,2.7-2.2,4.9-4.9,4.9c-2.7,0-4.9-2.2-4.9-5c0-2.6,2.3-4.8,4.9-4.8
		C903.4,216.9,905.7,219.1,905.7,221.8z M897.7,221.8c0,1.7,1.4,3.1,3,3.1c1.7,0,3-1.4,3-3.1c0-1.8-1.4-3.2-3.1-3.2
		C899,218.6,897.7,220,897.7,221.8z"/>
	<path class="st6" d="M907,217.1h1.6l4.6,6.1v-6.1h1.9v9.3h-1.6l-4.6-6.1v6.1H907V217.1z"/>
</g>
<path class="st4" d="M678.9,239h-72.4c-4.8,0-8.8-3.9-8.8-8.8v-17.4c0-4.8,3.9-8.8,8.8-8.8h72.4c4.8,0,8.8,3.9,8.8,8.8v17.4
	C687.7,235.1,683.8,239,678.9,239z"/>
<g class="st5">
	<path class="st6" d="M621.6,218.8h-2.2v7.6h-1.9v-7.6h-2.2v-1.7h6.3V218.8z"/>
	<path class="st6" d="M627.8,218.8h-3.5v2h3.1v1.7h-3.1v2.1h3.6v1.7h-5.5v-9.3h5.4V218.8z"/>
	<path class="st6" d="M633.6,219.7c-0.6-0.9-0.9-1.1-1.4-1.1c-0.7,0-1.1,0.4-1.1,1.1c0,0.4,0.3,0.7,1,1l0.9,0.3
		c1.6,0.6,2.3,1.5,2.3,2.7c0,1.7-1.4,3.1-3.2,3.1c-1,0-1.9-0.4-2.5-1.1c-0.4-0.5-0.6-0.9-0.7-1.8l1.8-0.5c0.2,0.6,0.2,0.9,0.4,1.1
		c0.3,0.4,0.6,0.6,1.1,0.6c0.8,0,1.3-0.6,1.3-1.3c0-0.5-0.3-0.8-1.3-1.1l-0.8-0.3c-1.4-0.5-2.1-1.4-2.1-2.5c0-1.6,1.3-2.8,3.1-2.8
		c1.3,0,2.1,0.5,2.9,1.8L633.6,219.7z"/>
	<path class="st6" d="M642.1,218.8h-2.2v7.6H638v-7.6h-2.2v-1.7h6.3V218.8z"/>
	<path class="st6" d="M651.4,218.8h-3.5v2h3.1v1.7h-3.1v2.1h3.6v1.7h-5.5v-9.3h5.4V218.8z"/>
	<path class="st6" d="M652.9,217.1h1.6l4.6,6.1v-6.1h1.9v9.3h-1.6l-4.6-6.1v6.1h-1.9V217.1z"/>
	<path class="st6" d="M666,223.8l2.2-6.7h2l-3.1,9.3h-2.1l-3.1-9.3h2L666,223.8z"/>
</g>
<path class="st4" d="M678.9,177.1h-72.4c-4.8,0-8.8-3.9-8.8-8.8v-17.4c0-4.8,3.9-8.8,8.8-8.8h72.4c4.8,0,8.8,3.9,8.8,8.8v17.4
	C687.7,173.1,683.8,177.1,678.9,177.1z"/>
<g class="st5">
	<path class="st6" d="M621.6,156.9h-2.2v7.6h-1.9v-7.6h-2.2v-1.7h6.3V156.9z"/>
	<path class="st6" d="M627.8,156.9h-3.5v2h3.1v1.7h-3.1v2.1h3.6v1.7h-5.5v-9.3h5.4V156.9z"/>
	<path class="st6" d="M633.6,157.8c-0.6-0.9-0.9-1.1-1.4-1.1c-0.7,0-1.1,0.4-1.1,1.1c0,0.4,0.3,0.7,1,1l0.9,0.3
		c1.6,0.6,2.3,1.5,2.3,2.7c0,1.7-1.4,3.1-3.2,3.1c-1,0-1.9-0.4-2.5-1.1c-0.4-0.5-0.6-0.9-0.7-1.8l1.8-0.5c0.2,0.6,0.2,0.9,0.4,1.1
		c0.3,0.4,0.6,0.6,1.1,0.6c0.8,0,1.3-0.6,1.3-1.3c0-0.5-0.3-0.8-1.3-1.1l-0.8-0.3c-1.4-0.5-2.1-1.4-2.1-2.5c0-1.6,1.3-2.8,3.1-2.8
		c1.3,0,2.1,0.5,2.9,1.8L633.6,157.8z"/>
	<path class="st6" d="M642.1,156.9h-2.2v7.6H638v-7.6h-2.2v-1.7h6.3V156.9z"/>
	<path class="st6" d="M651.4,156.9h-3.5v2h3.1v1.7h-3.1v2.1h3.6v1.7h-5.5v-9.3h5.4V156.9z"/>
	<path class="st6" d="M652.9,155.2h1.6l4.6,6.1v-6.1h1.9v9.3h-1.6l-4.6-6.1v6.1h-1.9V155.2z"/>
	<path class="st6" d="M666,161.9l2.2-6.7h2l-3.1,9.3h-2.1l-3.1-9.3h2L666,161.9z"/>
</g>
<path class="st4" d="M678.9,300.9h-72.4c-4.8,0-8.8-3.9-8.8-8.8v-17.4c0-4.8,3.9-8.8,8.8-8.8h72.4c4.8,0,8.8,3.9,8.8,8.8v17.4
	C687.7,297,683.8,300.9,678.9,300.9z"/>
<g class="st5">
	<path class="st6" d="M621.6,280.7h-2.2v7.6h-1.9v-7.6h-2.2V279h6.3V280.7z"/>
	<path class="st6" d="M627.8,280.7h-3.5v2h3.1v1.7h-3.1v2.1h3.6v1.7h-5.5V279h5.4V280.7z"/>
	<path class="st6" d="M633.6,281.6c-0.6-0.9-0.9-1.1-1.4-1.1c-0.7,0-1.1,0.4-1.1,1.1c0,0.4,0.3,0.7,1,1l0.9,0.3
		c1.6,0.6,2.3,1.5,2.3,2.7c0,1.7-1.4,3.1-3.2,3.1c-1,0-1.9-0.4-2.5-1.1c-0.4-0.5-0.6-0.9-0.7-1.8l1.8-0.5c0.2,0.6,0.2,0.9,0.4,1.1
		c0.3,0.4,0.6,0.6,1.1,0.6c0.8,0,1.3-0.6,1.3-1.3c0-0.5-0.3-0.8-1.3-1.1l-0.8-0.3c-1.4-0.5-2.1-1.4-2.1-2.5c0-1.6,1.3-2.8,3.1-2.8
		c1.3,0,2.1,0.5,2.9,1.8L633.6,281.6z"/>
	<path class="st6" d="M642.1,280.7h-2.2v7.6H638v-7.6h-2.2V279h6.3V280.7z"/>
	<path class="st6" d="M651.4,280.7h-3.5v2h3.1v1.7h-3.1v2.1h3.6v1.7h-5.5V279h5.4V280.7z"/>
	<path class="st6" d="M652.9,279h1.6l4.6,6.1V279h1.9v9.3h-1.6l-4.6-6.1v6.1h-1.9V279z"/>
	<path class="st6" d="M666,285.7l2.2-6.7h2l-3.1,9.3h-2.1l-3.1-9.3h2L666,285.7z"/>
</g>
<path class="st4" d="M192.3,349.3h-72.4c-4.8,0-8.8-3.9-8.8-8.8v-17.4c0-4.8,3.9-8.8,8.8-8.8h72.4c4.8,0,8.8,3.9,8.8,8.8v17.4
	C201.1,345.4,197.1,349.3,192.3,349.3z"/>
<path class="st4" d="M306.6,349.3h-72.4c-4.8,0-8.8-3.9-8.8-8.8v-17.4c0-4.8,3.9-8.8,8.8-8.8h72.4c4.8,0,8.8,3.9,8.8,8.8v17.4
	C315.4,345.4,311.5,349.3,306.6,349.3z"/>
<g class="st5">
	<path class="st6" d="M134.3,327.4h2.2c1,0,1.6,0.1,2.1,0.4c0.8,0.4,1.3,1.3,1.3,2.2c0,0.7-0.2,1.2-0.8,1.7c0.8,0.5,1.2,1.3,1.2,2.2
		c0,1-0.5,1.8-1.4,2.4c-0.5,0.3-1.1,0.4-2,0.4h-2.7V327.4z M136.7,331.2c0.5,0,0.8,0,1-0.2c0.3-0.2,0.5-0.5,0.5-0.9
		c0-0.3-0.1-0.6-0.3-0.8c-0.2-0.2-0.6-0.3-1.2-0.3h-0.6v2.2H136.7z M136.9,335.1c0.6,0,0.8,0,1.1-0.2c0.4-0.2,0.6-0.5,0.6-1
		c0-0.4-0.2-0.8-0.5-0.9c-0.3-0.2-0.6-0.2-1.3-0.2h-0.7v2.3H136.9z"/>
	<path class="st6" d="M143.6,333.2c0,0.8,0,1.1,0.2,1.3c0.3,0.4,0.9,0.7,1.5,0.7c0.6,0,1.2-0.3,1.5-0.7c0.2-0.3,0.2-0.6,0.2-1.3
		v-5.7h1.9v6c0,0.8-0.1,1.4-0.4,1.9c-0.6,1-1.8,1.7-3.1,1.7c-1.3,0-2.5-0.7-3.2-1.7c-0.3-0.5-0.4-1.1-0.4-1.9v-6h1.9V333.2z"/>
	<path class="st6" d="M152.6,336.8h-1.9v-9.3h1.9V336.8z"/>
	<path class="st6" d="M156.3,327.4v7.6h3.4v1.7h-5.2v-9.3H156.3z"/>
	<path class="st6" d="M162.8,327.4c3.1,0,5.1,1.8,5.1,4.7s-2,4.7-5.1,4.7h-2.2v-9.3H162.8z M162.5,335h0.4c2,0,3.2-1.1,3.2-2.9
		c0-1.8-1.2-2.9-3.2-2.9h-0.4V335z"/>
	<path class="st6" d="M177.3,328.1l-3.2,5.1h1.7v-1.8h1.8v1.8h1v1.7h-1v1.9h-1.8v-1.9h-4v-1.5l4-6.2L177.3,328.1z"/>
</g>
<g class="st5">
	<path class="st6" d="M254.3,334.6l-0.8,2.2h-2l3.5-9.3h2.2l3.5,9.3h-2l-0.8-2.2H254.3z M256.2,329.4l-1.2,3.4h2.5L256.2,329.4z"/>
	<path class="st6" d="M268.1,330.3c-0.9-1-1.5-1.3-2.4-1.3c-1.7,0-3.1,1.4-3.1,3.2c0,1.8,1.4,3.1,3.1,3.1c0.9,0,1.6-0.3,2.5-1.3
		l1.3,1.2c-1.2,1.3-2.3,1.8-3.8,1.8c-2.8,0-5-2.2-5-4.9c0-2.7,2.2-4.9,5-4.9c1.4,0,2.5,0.5,3.7,1.8L268.1,330.3z"/>
	<path class="st6" d="M277.2,330.3c-0.9-1-1.5-1.3-2.4-1.3c-1.7,0-3.1,1.4-3.1,3.2c0,1.8,1.4,3.1,3.1,3.1c0.9,0,1.6-0.3,2.5-1.3
		l1.3,1.2c-1.2,1.3-2.3,1.8-3.8,1.8c-2.8,0-5-2.2-5-4.9c0-2.7,2.2-4.9,5-4.9c1.4,0,2.5,0.5,3.7,1.8L277.2,330.3z"/>
	<path class="st6" d="M287.7,328.1l-3.2,5.1h1.7v-1.8h1.8v1.8h1v1.7h-1v1.9h-1.8v-1.9h-4v-1.5l4-6.2L287.7,328.1z"/>
</g>
<path class="st7" d="M671.4,41.8v53.9c-0.2,4.9-11.9,8.9-26.3,8.9c-14.4,0-26.1-4-26.3-8.9V41.8c0.2-4.9,11.9-8.9,26.3-8.9
	S671.2,36.9,671.4,41.8"/>
<path class="st2" d="M671.4,41.8v53.9c-0.2,4.9-11.9,8.9-26.3,8.9c-14.4,0-26.1-4-26.3-8.9V41.8c0.2-4.9,11.9-8.9,26.3-8.9
	S671.2,36.9,671.4,41.8z"/>
<path class="st2" d="M671.4,41.9c0,5-11.8,9-26.3,9s-26.3-4-26.3-9"/>
<path class="st2" d="M671.4,59.8c0,5-11.8,9-26.3,9s-26.3-4-26.3-9"/>
<path class="st2" d="M671.4,77.7c0,5-11.8,9-26.3,9s-26.3-4-26.3-9"/>
<rect x="617.4" y="31.2" class="st3" width="55.7" height="75.1"/>
<path class="st2" d="M213.2,112.6c6.2,0,11.3,0,11.3,0S219.4,112.6,213.2,112.6s-11.3,0-11.3,0S207,112.6,213.2,112.6z"/>
<path class="st2" d="M213.2,173.9c6.2,0,11.3,0,11.3,0S219.4,173.9,213.2,173.9s-11.3,0-11.3,0S207,173.9,213.2,173.9z"/>
<path class="st2" d="M213.2,269.9c6.2,0,11.3,0,11.3,0S219.4,269.9,213.2,269.9s-11.3,0-11.3,0S207,269.9,213.2,269.9z"/>
<path class="st2" d="M213.2,331.8c6.2,0,11.3,0,11.3,0S219.4,331.8,213.2,331.8s-11.3,0-11.3,0S207,331.8,213.2,331.8z"/>
<polyline class="st2" points="114.1,255.2 63.9,221.8 113.1,187.5 "/>
<polyline class="st2" points="312.5,255.2 362.7,221.8 313.5,187.5 "/>
<polyline class="st2" points="600.7,268.9 565.2,221.8 600.7,174.1 "/>
<polyline class="st2" points="685.6,268.9 721.1,221.8 685.6,174.1 "/>
<polyline class="st2" points="314.1,318.4 362.7,221.8 312.5,127.8 "/>
<path class="st2" d="M472.4,221.5c-4.2,0-16.5,0-16.5,0S468.2,221.5,472.4,221.5"/>
<g class="st5">
	<path class="st6" d="M249.4,218.3h-4v2.2h3.7v2.5h-3.7v4.8h-2.7v-12h6.7V218.3z"/>
	<path class="st6" d="M252.8,225.3l-0.9,2.6h-2.8l4.5-12h3.1l4.5,12h-2.8l-0.9-2.6H252.8z M255,218.7l-1.4,4.1h2.8L255,218.7z"/>
	<path class="st6" d="M262,215.9h2.2l5.5,7.3v-7.3h2.7v12h-2.2l-5.5-7.3v7.3H262V215.9z"/>
	<path class="st6" d="M281.4,227.9h-2.7v-12h2.7V227.9z"/>
	<path class="st6" d="M283.7,215.9h2.2l5.5,7.3v-7.3h2.7v12h-2.2l-5.5-7.3v7.3h-2.7V215.9z"/>
</g>
<g class="st5">
	<path class="st6" d="M14.8,151.6c-0.4-0.6-0.6-0.8-1-0.8c-0.5,0-0.8,0.3-0.8,0.8c0,0.3,0.2,0.5,0.7,0.7l0.6,0.2
		c1.1,0.4,1.7,1,1.7,1.9c0,1.2-1,2.2-2.3,2.2c-0.7,0-1.4-0.3-1.8-0.8c-0.3-0.3-0.4-0.7-0.5-1.2l1.3-0.3c0.1,0.4,0.2,0.6,0.3,0.8
		c0.2,0.3,0.4,0.4,0.7,0.4c0.5,0,1-0.4,1-0.9c0-0.3-0.2-0.6-0.9-0.8l-0.6-0.2c-1-0.4-1.5-1-1.5-1.8c0-1.1,0.9-2,2.2-2
		c0.9,0,1.5,0.4,2.1,1.3L14.8,151.6z"/>
	<path class="st6" d="M23.5,153.1c0,1.9-1.6,3.5-3.5,3.5c-2,0-3.5-1.6-3.5-3.5c0-1.9,1.6-3.4,3.5-3.4
		C21.9,149.6,23.5,151.2,23.5,153.1z M17.8,153.1c0,1.2,1,2.2,2.2,2.2c1.2,0,2.2-1,2.2-2.2c0-1.3-1-2.2-2.2-2.2
		S17.8,151.9,17.8,153.1z"/>
	<path class="st6" d="M25.8,153.9c0,0.5,0,0.8,0.1,1c0.2,0.3,0.6,0.5,1.1,0.5c0.4,0,0.9-0.2,1.1-0.5c0.1-0.2,0.1-0.4,0.1-1v-4.1h1.3
		v4.3c0,0.6-0.1,1-0.3,1.3c-0.4,0.7-1.3,1.2-2.2,1.2c-0.9,0-1.8-0.5-2.2-1.2c-0.2-0.3-0.3-0.8-0.3-1.3v-4.3h1.3V153.9z"/>
	<path class="st6" d="M32.9,154L32.9,154L32.9,154l-0.4,0h-0.2v2.4h-1.3v-6.7h1.6c0.7,0,1.2,0.1,1.6,0.3c0.6,0.4,1,1.1,1,1.8
		c0,0.7-0.3,1.3-0.9,1.7l1.6,2.8h-1.5L32.9,154z M32.6,152.8c0.8,0,1.2-0.3,1.2-0.9c0-0.3-0.1-0.6-0.4-0.8c-0.2-0.1-0.4-0.2-0.8-0.2
		h-0.3v1.8H32.6z"/>
	<path class="st6" d="M41.2,151.8c-0.6-0.7-1.1-0.9-1.7-0.9c-1.2,0-2.2,1-2.2,2.2c0,1.2,1,2.2,2.2,2.2c0.7,0,1.1-0.2,1.8-0.9
		l0.9,0.9c-0.9,0.9-1.7,1.3-2.7,1.3c-2,0-3.5-1.6-3.5-3.5c0-1.9,1.6-3.5,3.5-3.5c1,0,1.8,0.4,2.7,1.3L41.2,151.8z"/>
	<path class="st6" d="M46.9,151h-2.5v1.4h2.2v1.2h-2.2v1.5H47v1.2h-3.9v-6.7h3.8V151z"/>
	<path class="st6" d="M55.1,151.8c-0.6-0.7-1.1-0.9-1.7-0.9c-1.2,0-2.2,1-2.2,2.2c0,1.2,1,2.2,2.2,2.2c0.7,0,1.1-0.2,1.8-0.9
		l0.9,0.9c-0.9,0.9-1.7,1.3-2.7,1.3c-2,0-3.5-1.6-3.5-3.5c0-1.9,1.6-3.5,3.5-3.5c1,0,1.8,0.4,2.7,1.3L55.1,151.8z"/>
	<path class="st6" d="M63.4,153.1c0,1.9-1.6,3.5-3.5,3.5c-2,0-3.5-1.6-3.5-3.5c0-1.9,1.6-3.4,3.5-3.4
		C61.8,149.6,63.4,151.2,63.4,153.1z M57.7,153.1c0,1.2,1,2.2,2.2,2.2c1.2,0,2.2-1,2.2-2.2c0-1.3-1-2.2-2.2-2.2
		S57.7,151.9,57.7,153.1z"/>
	<path class="st6" d="M65.9,149.8c2.2,0,3.7,1.3,3.7,3.3c0,2-1.4,3.3-3.7,3.3h-1.6v-6.7H65.9z M65.6,155.2h0.3
		c1.4,0,2.3-0.8,2.3-2.1c0-1.3-0.9-2.1-2.3-2.1h-0.3V155.2z"/>
	<path class="st6" d="M74.3,151h-2.5v1.4h2.2v1.2h-2.2v1.5h2.6v1.2h-3.9v-6.7h3.8V151z"/>
</g>
<g class="st5">
	<path class="st8" d="M600.7,20.6h-3v1.7h2.7v1.5h-2.7v1.8h3.1v1.5h-4.7v-8h4.6V20.6z"/>
	<path class="st8" d="M602,19.1h1.4l3.9,5.2v-5.2h1.6v8h-1.4l-3.9-5.2v5.2H602V19.1z"/>
	<path class="st8" d="M613.2,24.9l1.9-5.7h1.7l-2.7,8h-1.8l-2.7-8h1.7L613.2,24.9z"/>
	<path class="st8" d="M624.9,24.2c0.1-0.3,0.2-0.4,0.4-1l1.5,0.4l-0.1,0.2c-0.2,0.7-0.4,1.2-0.7,1.7l1.4,1.6h-2l-0.4-0.5
		c-0.7,0.5-1.3,0.7-2.1,0.7c-1.6,0-2.8-1.1-2.8-2.4c0-0.9,0.4-1.5,1.5-2.3c-0.6-0.8-0.8-1.2-0.8-1.7c0-1.1,0.9-2,2-2
		c1.1,0,2,0.8,2,1.9c0,0.7-0.4,1.3-1.2,1.9L624.9,24.2z M622.5,23.6c-0.6,0.5-0.8,0.9-0.8,1.2c0,0.6,0.5,1.1,1.3,1.1
		c0.4,0,0.8-0.1,1.1-0.4L622.5,23.6z M623.5,20.8c0-0.3-0.3-0.6-0.6-0.6c-0.4,0-0.6,0.3-0.6,0.6c0,0.3,0.1,0.5,0.5,0.9
		C623.3,21.3,623.5,21.1,623.5,20.8z"/>
	<path class="st8" d="M632.5,25.2l-0.7,1.9h-1.7l3-8h1.9l3,8h-1.7l-0.7-1.9H632.5z M634.1,20.8l-1.1,3h2.1L634.1,20.8z"/>
	<path class="st8" d="M640.3,27.1h-1.6v-8h1.9c0.8,0,1.3,0.1,1.7,0.4c0.7,0.4,1.2,1.2,1.2,2.2s-0.5,1.8-1.2,2.2
		c-0.4,0.3-1,0.4-1.7,0.4h-0.3V27.1z M640.7,22.8c0.9,0,1.3-0.3,1.3-1.1c0-0.8-0.4-1.1-1.3-1.1h-0.4v2.2H640.7z"/>
	<path class="st8" d="M646,27.1h-1.6v-8h1.9c0.8,0,1.3,0.1,1.7,0.4c0.7,0.4,1.2,1.2,1.2,2.2s-0.5,1.8-1.2,2.2
		c-0.4,0.3-1,0.4-1.7,0.4H646V27.1z M646.4,22.8c0.9,0,1.3-0.3,1.3-1.1c0-0.8-0.4-1.1-1.3-1.1H646v2.2H646.4z"/>
	<path class="st8" d="M658.7,21.5c-0.7-0.8-1.3-1.1-2.1-1.1c-1.5,0-2.6,1.2-2.6,2.7c0,1.5,1.2,2.7,2.6,2.7c0.8,0,1.3-0.3,2.1-1.1
		l1.1,1.1c-1.1,1.1-2,1.5-3.2,1.5c-2.4,0-4.3-1.9-4.3-4.2c0-2.3,1.9-4.2,4.2-4.2c1.2,0,2.2,0.5,3.2,1.5L658.7,21.5z"/>
	<path class="st8" d="M668.6,23.1c0,2.3-1.9,4.2-4.2,4.2c-2.4,0-4.2-1.9-4.2-4.2c0-2.2,1.9-4.1,4.2-4.1
		C666.7,18.9,668.6,20.8,668.6,23.1z M661.8,23.1c0,1.4,1.2,2.7,2.6,2.7c1.4,0,2.6-1.2,2.6-2.7c0-1.5-1.2-2.7-2.6-2.7
		S661.8,21.6,661.8,23.1z"/>
	<path class="st8" d="M669.8,19.1h1.4l3.9,5.2v-5.2h1.6v8h-1.4l-3.9-5.2v5.2h-1.6V19.1z"/>
	<path class="st8" d="M682.6,20.6h-2.7v1.7h2.5v1.5h-2.5v3.3h-1.6v-8h4.3V20.6z"/>
	<path class="st8" d="M685.3,27.1h-1.6v-8h1.6V27.1z"/>
	<path class="st8" d="M694.5,22.6v0.8c0,2.3-1.5,3.9-3.7,3.9c-2.4,0-4.3-1.9-4.3-4.2c0-2.3,1.9-4.2,4.3-4.2c1.2,0,2.1,0.4,3.2,1.5
		l-1.1,1.1c-0.8-0.8-1.3-1.1-2.1-1.1c-1.5,0-2.6,1.2-2.6,2.7c0,1.5,1.2,2.7,2.7,2.7c0.6,0,1.2-0.2,1.6-0.7c0.3-0.3,0.4-0.5,0.5-1
		h-2.2v-1.5H694.5z"/>
</g>
<g class="st5">
	<path class="st6" d="M14.8,259.6c-0.4-0.6-0.6-0.8-1-0.8c-0.5,0-0.8,0.3-0.8,0.8c0,0.3,0.2,0.5,0.7,0.7l0.6,0.2
		c1.1,0.4,1.7,1,1.7,1.9c0,1.2-1,2.2-2.3,2.2c-0.7,0-1.4-0.3-1.8-0.8c-0.3-0.3-0.4-0.7-0.5-1.2l1.3-0.3c0.1,0.4,0.2,0.6,0.3,0.8
		c0.2,0.3,0.4,0.4,0.7,0.4c0.5,0,1-0.4,1-0.9c0-0.3-0.2-0.6-0.9-0.8l-0.6-0.2c-1-0.4-1.5-1-1.5-1.8c0-1.1,0.9-2,2.2-2
		c0.9,0,1.5,0.4,2.1,1.3L14.8,259.6z"/>
	<path class="st6" d="M23.5,261.1c0,1.9-1.6,3.5-3.5,3.5c-2,0-3.5-1.6-3.5-3.5c0-1.9,1.6-3.4,3.5-3.4
		C21.9,257.6,23.5,259.2,23.5,261.1z M17.8,261.1c0,1.2,1,2.2,2.2,2.2c1.2,0,2.2-1,2.2-2.2c0-1.3-1-2.2-2.2-2.2
		S17.8,259.9,17.8,261.1z"/>
	<path class="st6" d="M25.8,261.9c0,0.5,0,0.8,0.1,1c0.2,0.3,0.6,0.5,1.1,0.5c0.4,0,0.9-0.2,1.1-0.5c0.1-0.2,0.1-0.4,0.1-1v-4.1h1.3
		v4.3c0,0.6-0.1,1-0.3,1.3c-0.4,0.7-1.3,1.2-2.2,1.2c-0.9,0-1.8-0.5-2.2-1.2c-0.2-0.3-0.3-0.8-0.3-1.3v-4.3h1.3V261.9z"/>
	<path class="st6" d="M32.9,262L32.9,262L32.9,262l-0.4,0h-0.2v2.4h-1.3v-6.7h1.6c0.7,0,1.2,0.1,1.6,0.3c0.6,0.4,1,1.1,1,1.8
		c0,0.7-0.3,1.3-0.9,1.7l1.6,2.8h-1.5L32.9,262z M32.6,260.8c0.8,0,1.2-0.3,1.2-0.9c0-0.3-0.1-0.6-0.4-0.8c-0.2-0.1-0.4-0.2-0.8-0.2
		h-0.3v1.8H32.6z"/>
	<path class="st6" d="M41.2,259.8c-0.6-0.7-1.1-0.9-1.7-0.9c-1.2,0-2.2,1-2.2,2.2c0,1.2,1,2.2,2.2,2.2c0.7,0,1.1-0.2,1.8-0.9
		l0.9,0.9c-0.9,0.9-1.7,1.3-2.7,1.3c-2,0-3.5-1.6-3.5-3.5c0-1.9,1.6-3.5,3.5-3.5c1,0,1.8,0.4,2.7,1.3L41.2,259.8z"/>
	<path class="st6" d="M46.9,259h-2.5v1.4h2.2v1.2h-2.2v1.5H47v1.2h-3.9v-6.7h3.8V259z"/>
	<path class="st6" d="M55.1,259.8c-0.6-0.7-1.1-0.9-1.7-0.9c-1.2,0-2.2,1-2.2,2.2c0,1.2,1,2.2,2.2,2.2c0.7,0,1.1-0.2,1.8-0.9
		l0.9,0.9c-0.9,0.9-1.7,1.3-2.7,1.3c-2,0-3.5-1.6-3.5-3.5c0-1.9,1.6-3.5,3.5-3.5c1,0,1.8,0.4,2.7,1.3L55.1,259.8z"/>
	<path class="st6" d="M63.4,261.1c0,1.9-1.6,3.5-3.5,3.5c-2,0-3.5-1.6-3.5-3.5c0-1.9,1.6-3.4,3.5-3.4
		C61.8,257.6,63.4,259.2,63.4,261.1z M57.7,261.1c0,1.2,1,2.2,2.2,2.2c1.2,0,2.2-1,2.2-2.2c0-1.3-1-2.2-2.2-2.2
		S57.7,259.9,57.7,261.1z"/>
	<path class="st6" d="M65.9,257.8c2.2,0,3.7,1.3,3.7,3.3c0,2-1.4,3.3-3.7,3.3h-1.6v-6.7H65.9z M65.6,263.2h0.3
		c1.4,0,2.3-0.8,2.3-2.1c0-1.3-0.9-2.1-2.3-2.1h-0.3V263.2z"/>
	<path class="st6" d="M74.3,259h-2.5v1.4h2.2v1.2h-2.2v1.5h2.6v1.2h-3.9v-6.7h3.8V259z"/>
</g>
<g class="st5">
	<path class="st6" d="M14.8,367.6c-0.4-0.6-0.6-0.8-1-0.8c-0.5,0-0.8,0.3-0.8,0.8c0,0.3,0.2,0.5,0.7,0.7l0.6,0.2
		c1.1,0.4,1.7,1,1.7,1.9c0,1.2-1,2.2-2.3,2.2c-0.7,0-1.4-0.3-1.8-0.8c-0.3-0.3-0.4-0.7-0.5-1.2l1.3-0.3c0.1,0.4,0.2,0.6,0.3,0.8
		c0.2,0.3,0.4,0.4,0.7,0.4c0.5,0,1-0.4,1-0.9c0-0.3-0.2-0.6-0.9-0.8l-0.6-0.2c-1-0.4-1.5-1-1.5-1.8c0-1.1,0.9-2,2.2-2
		c0.9,0,1.5,0.4,2.1,1.3L14.8,367.6z"/>
	<path class="st6" d="M23.5,369.1c0,1.9-1.6,3.5-3.5,3.5c-2,0-3.5-1.6-3.5-3.5c0-1.9,1.6-3.4,3.5-3.4
		C21.9,365.6,23.5,367.2,23.5,369.1z M17.8,369.1c0,1.2,1,2.2,2.2,2.2c1.2,0,2.2-1,2.2-2.2c0-1.3-1-2.2-2.2-2.2
		S17.8,367.9,17.8,369.1z"/>
	<path class="st6" d="M25.8,369.9c0,0.5,0,0.8,0.1,1c0.2,0.3,0.6,0.5,1.1,0.5c0.4,0,0.9-0.2,1.1-0.5c0.1-0.2,0.1-0.4,0.1-1v-4.1h1.3
		v4.3c0,0.6-0.1,1-0.3,1.3c-0.4,0.7-1.3,1.2-2.2,1.2c-0.9,0-1.8-0.5-2.2-1.2c-0.2-0.3-0.3-0.8-0.3-1.3v-4.3h1.3V369.9z"/>
	<path class="st6" d="M32.9,370L32.9,370L32.9,370l-0.4,0h-0.2v2.4h-1.3v-6.7h1.6c0.7,0,1.2,0.1,1.6,0.3c0.6,0.4,1,1.1,1,1.8
		c0,0.7-0.3,1.3-0.9,1.7l1.6,2.8h-1.5L32.9,370z M32.6,368.8c0.8,0,1.2-0.3,1.2-0.9c0-0.3-0.1-0.6-0.4-0.8c-0.2-0.1-0.4-0.2-0.8-0.2
		h-0.3v1.8H32.6z"/>
	<path class="st6" d="M41.2,367.8c-0.6-0.7-1.1-0.9-1.7-0.9c-1.2,0-2.2,1-2.2,2.2c0,1.2,1,2.2,2.2,2.2c0.7,0,1.1-0.2,1.8-0.9
		l0.9,0.9c-0.9,0.9-1.7,1.3-2.7,1.3c-2,0-3.5-1.6-3.5-3.5c0-1.9,1.6-3.5,3.5-3.5c1,0,1.8,0.4,2.7,1.3L41.2,367.8z"/>
	<path class="st6" d="M46.9,367h-2.5v1.4h2.2v1.2h-2.2v1.5H47v1.2h-3.9v-6.7h3.8V367z"/>
	<path class="st6" d="M55.1,367.8c-0.6-0.7-1.1-0.9-1.7-0.9c-1.2,0-2.2,1-2.2,2.2c0,1.2,1,2.2,2.2,2.2c0.7,0,1.1-0.2,1.8-0.9
		l0.9,0.9c-0.9,0.9-1.7,1.3-2.7,1.3c-2,0-3.5-1.6-3.5-3.5c0-1.9,1.6-3.5,3.5-3.5c1,0,1.8,0.4,2.7,1.3L55.1,367.8z"/>
	<path class="st6" d="M63.4,369.1c0,1.9-1.6,3.5-3.5,3.5c-2,0-3.5-1.6-3.5-3.5c0-1.9,1.6-3.4,3.5-3.4
		C61.8,365.6,63.4,367.2,63.4,369.1z M57.7,369.1c0,1.2,1,2.2,2.2,2.2c1.2,0,2.2-1,2.2-2.2c0-1.3-1-2.2-2.2-2.2
		S57.7,367.9,57.7,369.1z"/>
	<path class="st6" d="M65.9,365.8c2.2,0,3.7,1.3,3.7,3.3c0,2-1.4,3.3-3.7,3.3h-1.6v-6.7H65.9z M65.6,371.2h0.3
		c1.4,0,2.3-0.8,2.3-2.1c0-1.3-0.9-2.1-2.3-2.1h-0.3V371.2z"/>
	<path class="st6" d="M74.3,367h-2.5v1.4h2.2v1.2h-2.2v1.5h2.6v1.2h-3.9v-6.7h3.8V367z"/>
</g>
<g>
	<g class="st5">
		<path class="st6" d="M129.2,218.3h-4v2.2h3.7v2.5h-3.7v4.8h-2.7v-12h6.7V218.3z"/>
		<path class="st6" d="M132.6,225.3l-0.9,2.6h-2.8l4.5-12h3.1l4.5,12H138l-0.9-2.6H132.6z M134.8,218.7l-1.4,4.1h2.8L134.8,218.7z"
			/>
		<path class="st6" d="M141.8,215.9h2.2l5.5,7.3v-7.3h2.7v12h-2.2l-5.5-7.3v7.3h-2.7V215.9z"/>
		<path class="st6" d="M170.6,221.9c0,3.5-2.9,6.3-6.4,6.3c-3.5,0-6.4-2.9-6.4-6.4c0-3.3,3-6.2,6.4-6.2
			C167.7,215.6,170.6,218.4,170.6,221.9z M160.5,222c0,2,1.7,3.8,3.7,3.8c2.1,0,3.7-1.7,3.7-3.8c0-2.1-1.7-3.8-3.7-3.8
			C162.1,218.1,160.5,219.8,160.5,222z"/>
		<path class="st6" d="M174.9,223.2c0,0.9,0.1,1.3,0.2,1.6c0.3,0.5,1,0.9,1.7,0.9c0.7,0,1.5-0.4,1.8-0.9c0.2-0.3,0.2-0.7,0.2-1.6
			v-7.3h2.7v7.7c0,1-0.2,1.8-0.5,2.4c-0.8,1.3-2.4,2.2-4.1,2.2s-3.3-0.9-4.1-2.2c-0.4-0.6-0.5-1.4-0.5-2.4v-7.7h2.7V223.2z"/>
		<path class="st6" d="M190.8,218.4H188v9.5h-2.7v-9.5h-2.8v-2.5h8.3V218.4z"/>
	</g>
</g>
<polyline class="st0" points="617.4,69 518.4,69 518.4,204 "/>
<polyline class="st0" points="673.1,69 772.1,69 874.6,69 874.6,204 "/>
<polyline class="st2" points="472.5,387.5 472.5,406.3 919.6,406.3 919.6,388.1 "/>
<polyline class="st2" points="42.8,387.5 42.8,406.3 454.8,406.3 454.8,388.1 "/>
<g>
	<g class="st5">
		<path class="st6" d="M227.2,416.8h3c1.2,0,2.1,0.2,2.8,0.6c1,0.6,1.7,1.7,1.7,2.8c0,0.8-0.3,1.5-1,2.1c1,0.7,1.5,1.7,1.5,2.8
			c0,1.3-0.7,2.4-1.9,3.1c-0.7,0.4-1.4,0.6-2.6,0.6h-3.5V416.8z M230.4,421.6c0.7,0,0.9,0,1.2-0.2c0.4-0.2,0.6-0.6,0.6-1.1
			c0-0.9-0.5-1.2-1.8-1.2h-0.6v2.5H230.4z M230.7,426.4c0.7,0,1-0.1,1.3-0.2c0.4-0.2,0.6-0.6,0.6-1.1c0-0.5-0.2-0.9-0.6-1.1
			c-0.3-0.2-0.7-0.3-1.5-0.3h-0.7v2.7H230.7z"/>
		<path class="st6" d="M239.5,424.1c0,0.9,0.1,1.3,0.2,1.6c0.3,0.5,1,0.9,1.7,0.9c0.7,0,1.5-0.4,1.8-0.9c0.2-0.3,0.2-0.7,0.2-1.6
			v-7.3h2.7v7.7c0,1-0.2,1.8-0.5,2.4c-0.8,1.3-2.4,2.2-4.1,2.2s-3.3-0.9-4.1-2.2c-0.4-0.6-0.5-1.4-0.5-2.4v-7.7h2.7V424.1z"/>
		<path class="st6" d="M251.2,428.8h-2.7v-12h2.7V428.8z"/>
		<path class="st6" d="M256.1,416.8v9.5h4.2v2.5h-6.9v-12H256.1z"/>
		<path class="st6" d="M264.4,416.8c4,0,6.6,2.4,6.6,6c0,3.7-2.6,6-6.6,6h-3v-12H264.4z M264.1,426.3h0.3c2.4,0,3.9-1.3,3.9-3.5
			c0-2.2-1.5-3.5-3.9-3.5h-0.3V426.3z"/>
	</g>
</g>
<g>
	<g class="st5">
		<path class="st6" d="M643.8,419.3H641v9.5h-2.7v-9.5h-2.8v-2.5h8.3V419.3z"/>
		<path class="st6" d="M651.8,419.2h-4.4v2.2h3.9v2.4h-3.9v2.4h4.6v2.5h-7.2v-12h7.1V419.2z"/>
		<path class="st6" d="M659.2,420.3c-0.7-1.1-1-1.4-1.8-1.4c-0.7,0-1.3,0.5-1.3,1.2c0,0.4,0.4,0.8,1.2,1.1l1.1,0.4
			c2.1,0.8,3.1,1.9,3.1,3.5c0,2.2-1.9,4-4.3,4c-1.3,0-2.6-0.6-3.3-1.5c-0.5-0.6-0.7-1.2-1-2.3l2.6-0.7l0,0.1l0.1,0.3
			c0.3,1,0.8,1.5,1.6,1.5c0.9,0,1.5-0.6,1.5-1.5c0-0.5-0.4-0.9-1.5-1.3l-1-0.4c-1.9-0.7-2.8-1.8-2.8-3.3c0-2.1,1.7-3.6,4-3.6
			c1.7,0,2.8,0.7,3.9,2.4L659.2,420.3z"/>
		<path class="st6" d="M670.4,419.3h-2.8v9.5h-2.7v-9.5h-2.8v-2.5h8.3V419.3z"/>
		<path class="st6" d="M682.4,424.1c0.2-0.4,0.3-0.8,0.5-1.4l2.4,0.7l-0.1,0.2c0,0,0,0.1-0.1,0.2l-0.1,0.3c-0.2,0.8-0.5,1.4-0.9,2.1
			l2.2,2.6h-3.3l-0.6-0.7c-1,0.7-1.9,1-3,1c-2.5,0-4.4-1.6-4.4-3.7c0-0.9,0.4-1.8,1.1-2.5c0.3-0.3,0.6-0.5,1.2-1
			c-0.8-1.1-1.1-1.7-1.1-2.5c0-1.7,1.4-3,3.1-3c1.7,0,3.1,1.3,3.1,2.9c0,1.1-0.5,1.9-1.8,2.8L682.4,424.1z M678.8,423.7
			c-0.8,0.7-1,1.1-1,1.6c0,0.8,0.7,1.4,1.7,1.4c0.5,0,0.9-0.1,1.4-0.5L678.8,423.7z M680.2,419.3c0-0.4-0.3-0.8-0.8-0.8
			c-0.5,0-0.8,0.3-0.8,0.8c0,0.3,0.1,0.5,0.7,1.2C680,420,680.2,419.7,680.2,419.3z"/>
		<path class="st6" d="M695.2,424.6L695.2,424.6h-0.1h-0.2c-0.1,0-0.2,0-0.3,0h-0.3v4.2h-2.7v-12h3c1.3,0,2.1,0.2,2.9,0.6
			c1.2,0.7,1.9,2,1.9,3.4c0,1.3-0.6,2.4-1.6,3.1l2.8,5h-3L695.2,424.6z M694.7,422.2c1.4,0,2-0.4,2-1.5c0-1-0.6-1.5-2-1.5h-0.5v3
			H694.7z"/>
		<path class="st6" d="M708.7,419.2h-4.4v2.2h3.9v2.4h-3.9v2.4h4.6v2.5h-7.2v-12h7.1V419.2z"/>
		<path class="st6" d="M713.2,416.8v9.5h4.2v2.5h-6.9v-12H713.2z"/>
		<path class="st6" d="M725.7,419.2h-4.4v2.2h3.9v2.4h-3.9v2.4h4.6v2.5h-7.2v-12h7.1V419.2z"/>
		<path class="st6" d="M730.2,426.2l-0.9,2.6h-2.8l4.5-12h3.1l4.5,12h-2.8l-0.9-2.6H730.2z M732.5,419.6l-1.4,4.1h2.8L732.5,419.6z"
			/>
		<path class="st6" d="M744.8,420.3c-0.7-1.1-1-1.4-1.8-1.4c-0.7,0-1.3,0.5-1.3,1.2c0,0.4,0.4,0.8,1.2,1.1l1.1,0.4
			c2.1,0.8,3.1,1.9,3.1,3.5c0,2.2-1.9,4-4.3,4c-1.3,0-2.6-0.6-3.3-1.5c-0.5-0.6-0.7-1.2-1-2.3l2.6-0.7l0,0.1l0.1,0.3
			c0.3,1,0.8,1.5,1.6,1.5c0.9,0,1.5-0.6,1.5-1.5c0-0.5-0.4-0.9-1.5-1.3l-1-0.4c-1.9-0.7-2.8-1.8-2.8-3.3c0-2.1,1.7-3.6,4-3.6
			c1.7,0,2.8,0.7,3.9,2.4L744.8,420.3z"/>
		<path class="st6" d="M755.9,419.2h-4.4v2.2h3.9v2.4h-3.9v2.4h4.6v2.5h-7.2v-12h7.1V419.2z"/>
	</g>
</g>
<line class="st2" x1="565.2" y1="221.8" x2="597.7" y2="221.8"/>
<line class="st2" x1="721.1" y1="221.8" x2="687.7" y2="221.8"/>
<line class="st2" x1="812.6" y1="221.5" x2="829.6" y2="221.5"/>
<line class="st2" x1="62.6" y1="112.6" x2="111.1" y2="112.6"/>
<line class="st2" x1="62.6" y1="331.8" x2="111.1" y2="331.8"/>
</svg>
