<?xml version="1.0" encoding="utf-8"?>
<!-- Generator: Adobe Illustrator 21.1.0, SVG Export Plug-In . SVG Version: 6.00 Build 0)  -->
<svg version="1.1" id="Layer_1" xmlns="http://www.w3.org/2000/svg" xmlns:xlink="http://www.w3.org/1999/xlink" x="0px" y="0px"
	 viewBox="0 0 990 447.2" style="enable-background:new 0 0 990 447.2;" xml:space="preserve">
<style type="text/css">
	.st0{fill:none;stroke:#1C425C;stroke-width:3;stroke-miterlimit:10;stroke-dasharray:5,5,5,5,5,5;}
	.st1{fill:#E74C3C;}
	.st2{fill:none;stroke:#023550;stroke-width:3;stroke-miterlimit:10;}
	.st3{fill:none;}
	.st4{fill:#EFEFEF;stroke:#1C425C;stroke-width:3;stroke-miterlimit:10;}
	.st5{fill:#1C425C;}
	.st6{font-family:'URWGeometric-ExtraBold';}
	.st7{font-size:14px;}
	.st8{fill:#CAFCD8;}
	.st9{fill:none;stroke:#1C425C;stroke-width:3;stroke-miterlimit:10;}
	.st10{fill:#023550;}
	.st11{font-family:'URWGeometric-Heavy';}
	.st12{font-size:18px;}
	.st13{font-size:10px;}
	.st14{font-size:12px;}
</style>
<line class="st0" x1="771.1" y1="74.5" x2="771.1" y2="204"/>
<line class="st0" x1="645.2" y1="104.6" x2="645.2" y2="264.4"/>
<g>
	<path class="st1" d="M62.6,92.3v40.8c-0.2,3.8-8.9,6.6-19.8,6.6s-19.7-3-19.8-6.6V92.3c0.2-3.8,8.9-6.6,19.8-6.6
		C53.7,85.5,62.4,88.6,62.6,92.3"/>
	<path class="st2" d="M62.6,92.3v40.8c-0.2,3.8-8.9,6.6-19.8,6.6s-19.7-3-19.8-6.6V92.3c0.2-3.8,8.9-6.6,19.8-6.6
		C53.7,85.5,62.4,88.6,62.6,92.3z"/>
	<path class="st2" d="M62.6,92.3c0,3.8-8.9,6.8-19.8,6.8s-19.8-3-19.8-6.8"/>
	<path class="st2" d="M62.6,105.9c0,3.8-8.9,6.8-19.8,6.8s-19.8-3-19.8-6.8"/>
	<path class="st2" d="M62.6,119.3c0,3.8-8.9,6.8-19.8,6.8s-19.8-3-19.8-6.8"/>
	<rect x="21.9" y="84.3" class="st3" width="42" height="56.7"/>
</g>
<g>
	<path class="st1" d="M62.6,200.3V241c-0.2,3.8-8.9,6.6-19.8,6.6s-19.7-3-19.8-6.6v-40.8c0.2-3.8,8.9-6.6,19.8-6.6
		C53.7,193.5,62.4,196.5,62.6,200.3"/>
	<path class="st2" d="M62.6,200.3V241c-0.2,3.8-8.9,6.6-19.8,6.6s-19.7-3-19.8-6.6v-40.8c0.2-3.8,8.9-6.6,19.8-6.6
		C53.7,193.5,62.4,196.5,62.6,200.3z"/>
	<path class="st2" d="M62.6,200.3c0,3.8-8.9,6.8-19.8,6.8s-19.8-3-19.8-6.8"/>
	<path class="st2" d="M62.6,213.9c0,3.8-8.9,6.8-19.8,6.8s-19.8-3-19.8-6.8"/>
	<path class="st2" d="M62.6,227.3c0,3.8-8.9,6.8-19.8,6.8s-19.8-3-19.8-6.8"/>
	<rect x="21.9" y="192.2" class="st3" width="42" height="56.7"/>
</g>
<g>
	<path class="st1" d="M62.6,308.6v40.8c-0.2,3.8-8.9,6.6-19.8,6.6s-19.7-3-19.8-6.6v-40.8c0.2-3.8,8.9-6.6,19.8-6.6
		C53.7,301.8,62.4,304.9,62.6,308.6"/>
	<path class="st2" d="M62.6,308.6v40.8c-0.2,3.8-8.9,6.6-19.8,6.6s-19.7-3-19.8-6.6v-40.8c0.2-3.8,8.9-6.6,19.8-6.6
		C53.7,301.8,62.4,304.9,62.6,308.6z"/>
	<path class="st2" d="M62.6,308.6c0,3.8-8.9,6.8-19.8,6.8s-19.8-3-19.8-6.8"/>
	<path class="st2" d="M62.6,322.2c0,3.8-8.9,6.8-19.8,6.8s-19.8-3-19.8-6.8"/>
	<path class="st2" d="M62.6,335.6c0,3.8-8.9,6.8-19.8,6.8s-19.8-3-19.8-6.8"/>
	<rect x="21.9" y="300.6" class="st3" width="42" height="56.7"/>
</g>
<path class="st4" d="M192.3,130.1h-72.4c-4.8,0-8.8-3.9-8.8-8.8v-17.4c0-4.8,3.9-8.8,8.8-8.8h72.4c4.8,0,8.8,3.9,8.8,8.8v17.4
	C201.1,126.2,197.1,130.1,192.3,130.1z"/>
<path class="st4" d="M306.6,130.1h-72.4c-4.8,0-8.8-3.9-8.8-8.8v-17.4c0-4.8,3.9-8.8,8.8-8.8h72.4c4.8,0,8.8,3.9,8.8,8.8v17.4
	C315.4,126.2,311.5,130.1,306.6,130.1z"/>
<text transform="matrix(1 0 0 1 134.6565 117.5442)" class="st5 st6 st7">BUILD 1</text>
<text transform="matrix(1 0 0 1 252.9723 117.5442)" class="st5 st6 st7">ACC 1</text>
<path class="st4" d="M192.3,191.4h-72.4c-4.8,0-8.8-3.9-8.8-8.8v-17.4c0-4.8,3.9-8.8,8.8-8.8h72.4c4.8,0,8.8,3.9,8.8,8.8v17.4
	C201.1,187.5,197.1,191.4,192.3,191.4z"/>
<path class="st4" d="M306.6,191.4h-72.4c-4.8,0-8.8-3.9-8.8-8.8v-17.4c0-4.8,3.9-8.8,8.8-8.8h72.4c4.8,0,8.8,3.9,8.8,8.8v17.4
	C315.4,187.5,311.5,191.4,306.6,191.4z"/>
<text transform="matrix(1 0 0 1 133.5015 178.8797)" class="st5 st6 st7">BUILD 2</text>
<text transform="matrix(1 0 0 1 251.8175 178.8797)" class="st5 st6 st7">ACC 2</text>
<path class="st4" d="M192.3,287.6h-72.4c-4.8,0-8.8-3.9-8.8-8.8v-17.4c0-4.8,3.9-8.8,8.8-8.8h72.4c4.8,0,8.8,3.9,8.8,8.8v17.4
	C201.1,283.6,197.1,287.6,192.3,287.6z"/>
<path class="st4" d="M306.6,287.6h-72.4c-4.8,0-8.8-3.9-8.8-8.8v-17.4c0-4.8,3.9-8.8,8.8-8.8h72.4c4.8,0,8.8,3.9,8.8,8.8v17.4
	C315.4,283.6,311.5,287.6,306.6,287.6z"/>
<text transform="matrix(1 0 0 1 133.5435 275.0203)" class="st5 st6 st7">BUILD 3</text>
<text transform="matrix(1 0 0 1 251.8595 275.0203)" class="st5 st6 st7">ACC 3</text>
<path class="st4" d="M447,239h-74c-4.9,0-8.9-4-8.9-8.9v-17.3c0-4.9,4-8.9,8.9-8.9h74c4.9,0,8.9,4,8.9,8.9v17.3
	C455.9,235,451.9,239,447,239z"/>
<text transform="matrix(1 0 0 1 378.4782 226.4389)" class="st5 st6 st7">PACKAGE</text>
<path class="st4" d="M555.3,239h-74c-4.9,0-8.9-4-8.9-8.9v-17.3c0-4.9,4-8.9,8.9-8.9h74c4.9,0,8.9,4,8.9,8.9v17.3
	C564.2,235,560.2,239,555.3,239z"/>
<text transform="matrix(1 0 0 1 476.7883 226.4389)" class="st5 st6 st7">INTEGRATION</text>
<path class="st4" d="M803.8,239h-72.4c-4.8,0-8.8-3.9-8.8-8.8v-17.4c0-4.8,3.9-8.8,8.8-8.8h72.4c4.8,0,8.8,3.9,8.8,8.8v17.4
	C812.6,235.1,808.7,239,803.8,239z"/>
<text transform="matrix(1 0 0 1 739.7509 226.4389)" class="st5 st6 st7">STAGING</text>
<path class="st4" d="M910.8,239h-72.4c-4.8,0-8.8-3.9-8.8-8.8v-17.4c0-4.8,3.9-8.8,8.8-8.8h72.4c4.8,0,8.8,3.9,8.8,8.8v17.4
	C919.6,235.1,915.6,239,910.8,239z"/>
<text transform="matrix(1 0 0 1 832.9927 226.4389)" class="st5 st6 st7">PRODUCTION</text>
<path class="st4" d="M678.9,239h-72.4c-4.8,0-8.8-3.9-8.8-8.8v-17.4c0-4.8,3.9-8.8,8.8-8.8h72.4c4.8,0,8.8,3.9,8.8,8.8v17.4
	C687.7,235.1,683.8,239,678.9,239z"/>
<text transform="matrix(1 0 0 1 615.3605 226.4389)" class="st5 st6 st7">TEST ENV</text>
<path class="st4" d="M678.9,177.1h-72.4c-4.8,0-8.8-3.9-8.8-8.8v-17.4c0-4.8,3.9-8.8,8.8-8.8h72.4c4.8,0,8.8,3.9,8.8,8.8v17.4
	C687.7,173.1,683.8,177.1,678.9,177.1z"/>
<text transform="matrix(1 0 0 1 615.3605 164.5205)" class="st5 st6 st7">TEST ENV</text>
<path class="st4" d="M678.9,300.9h-72.4c-4.8,0-8.8-3.9-8.8-8.8v-17.4c0-4.8,3.9-8.8,8.8-8.8h72.4c4.8,0,8.8,3.9,8.8,8.8v17.4
	C687.7,297,683.8,300.9,678.9,300.9z"/>
<text transform="matrix(1 0 0 1 615.3605 288.3572)" class="st5 st6 st7">TEST ENV</text>
<path class="st4" d="M192.3,349.3h-72.4c-4.8,0-8.8-3.9-8.8-8.8v-17.4c0-4.8,3.9-8.8,8.8-8.8h72.4c4.8,0,8.8,3.9,8.8,8.8v17.4
	C201.1,345.4,197.1,349.3,192.3,349.3z"/>
<path class="st4" d="M306.6,349.3h-72.4c-4.8,0-8.8-3.9-8.8-8.8v-17.4c0-4.8,3.9-8.8,8.8-8.8h72.4c4.8,0,8.8,3.9,8.8,8.8v17.4
	C315.4,345.4,311.5,349.3,306.6,349.3z"/>
<text transform="matrix(1 0 0 1 133.3406 336.7833)" class="st5 st6 st7">BUILD 4</text>
<text transform="matrix(1 0 0 1 251.6569 336.7833)" class="st5 st6 st7">ACC 4</text>
<path class="st8" d="M671.4,41.8v53.9c-0.2,4.9-11.9,8.9-26.3,8.9c-14.4,0-26.1-4-26.3-8.9V41.8c0.2-4.9,11.9-8.9,26.3-8.9
	C659.5,32.9,671.2,36.9,671.4,41.8"/>
<path class="st2" d="M671.4,41.8v53.9c-0.2,4.9-11.9,8.9-26.3,8.9c-14.4,0-26.1-4-26.3-8.9V41.8c0.2-4.9,11.9-8.9,26.3-8.9
	C659.5,32.9,671.2,36.9,671.4,41.8z"/>
<path class="st2" d="M671.4,41.9c0,5-11.8,9-26.3,9s-26.3-4-26.3-9"/>
<path class="st2" d="M671.4,59.8c0,5-11.8,9-26.3,9s-26.3-4-26.3-9"/>
<path class="st2" d="M671.4,77.7c0,5-11.8,9-26.3,9s-26.3-4-26.3-9"/>
<rect x="617.4" y="31.2" class="st3" width="55.7" height="75.1"/>
<path class="st9" d="M111.1,112.7c0,0-10.3,0-23.1,0s-24.1,0-24.1,0s11.3,0,24.1,0S111.1,112.7,111.1,112.7z"/>
<path class="st9" d="M111.1,331.8c0,0-10.3,0-23.1,0s-24.1,0-24.1,0s11.3,0,24.1,0S111.1,331.8,111.1,331.8z"/>
<ellipse class="st9" cx="213.2" cy="112.6" rx="11.3" ry="0"/>
<ellipse class="st9" cx="213.2" cy="173.9" rx="11.3" ry="0"/>
<ellipse class="st9" cx="213.2" cy="269.9" rx="11.3" ry="0"/>
<ellipse class="st9" cx="213.2" cy="331.2" rx="11.3" ry="0"/>
<polyline class="st9" points="114.1,255.2 63.9,221.8 113.1,187.5 "/>
<polyline class="st9" points="312.5,255.2 362.7,221.8 313.5,187.5 "/>
<polyline class="st9" points="600.7,268.9 565.2,221.8 600.7,174.1 "/>
<polyline class="st9" points="685.6,268.9 721.1,221.8 685.6,174.1 "/>
<polyline class="st9" points="314.1,318.4 362.7,221.8 312.5,127.8 "/>
<ellipse class="st9" cx="464.9" cy="221.3" rx="7.6" ry="0"/>
<ellipse class="st9" cx="820.5" cy="221.3" rx="7.6" ry="0"/>
<path class="st9" d="M597.7,221.3c0,0-20.1,0-24.3,0c-4.2,0-7.6,0-7.6,0s3.4,0,7.6,0C577.6,221.3,597.7,221.3,597.7,221.3z"/>
<path class="st9" d="M721.3,221.3c0,0-20.1,0-24.3,0s-7.6,0-7.6,0s3.4,0,7.6,0S721.3,221.3,721.3,221.3z"/>
<text transform="matrix(1 0 0 1 128.2944 226.1525)" class="st10 st11 st12">FAN IN </text>
<text transform="matrix(1 0 0 1 11.181 156.4391)" class="st10 st6 st13">SOURCE CODE</text>
<text transform="matrix(1 0 0 1 595.3032 27.1073)" class="st10 st6 st14">ENV &amp; APP CONFIG</text>
<text transform="matrix(1 0 0 1 11.181 264.4391)" class="st10 st6 st13">SOURCE CODE</text>
<text transform="matrix(1 0 0 1 11.181 372.4391)" class="st10 st6 st13">SOURCE CODE</text>
<g>
	<text transform="matrix(1 0 0 1 236.3056 226.153)" class="st5 st11 st12">FAN OUT</text>
</g>
<polyline class="st0" points="617.4,69 518.4,69 518.4,204 "/>
<polyline class="st0" points="673.1,69 772.1,69 874.6,69 874.6,204 "/>
<polyline class="st9" points="472.5,387.5 472.5,406.3 919.6,406.3 919.6,388.1 "/>
<polyline class="st9" points="42.8,387.5 42.8,406.3 454.8,406.3 454.8,388.1 "/>
<g>
	<text transform="matrix(1 0 0 1 216.019 428.8073)" class="st5 st11 st12">BUILD</text>
</g>
<g>
	<text transform="matrix(1 0 0 1 645.2104 428.8073)" class="st5 st11 st12">TEST &amp; RELEASE</text>
</g>
</svg>
