<?xml version="1.0" encoding="utf-8"?>
<!-- Generator: Adobe Illustrator 22.0.1, SVG Export Plug-In . SVG Version: 6.00 Build 0)  -->
<svg version="1.1" xmlns="http://www.w3.org/2000/svg" xmlns:xlink="http://www.w3.org/1999/xlink" x="0px" y="0px"
	 viewBox="0 0 990 447.2" style="enable-background:new 0 0 990 447.2;" xml:space="preserve">
<style type="text/css">
	.st0{fill:none;stroke:#1C425C;stroke-width:3;stroke-miterlimit:10;stroke-dasharray:5,5,5,5,5,5;}
	.st1{fill:#E74C3C;}
	.st2{fill:none;stroke:#1C425C;stroke-width:3;stroke-miterlimit:10;}
	.st3{fill:#EFEFEF;stroke:#1C425C;stroke-width:3;stroke-miterlimit:10;}
	.st4{fill:#1C425C;}
	.st5{font-family:'URWGeometric-ExtraBold';}
	.st6{font-size:14px;}
	.st7{fill:#CAFCD8;}
	.st8{font-family:'URWGeometric-Heavy';}
	.st9{font-size:18px;}
	.st10{font-size:10px;}
	.st11{font-size:12px;}
	.st12{fill:#EFEFEF;}
</style>
<g id="Layer_1">
	<line class="st0" x1="767.6" y1="74.5" x2="767.6" y2="204"/>
	<line class="st0" x1="642.7" y1="104.6" x2="642.7" y2="264.4"/>
	<g>
		<path class="st1" d="M62.6,92.3v40.8c-0.2,3.8-8.9,6.6-19.8,6.6s-19.7-3-19.8-6.6V92.3c0.2-3.8,8.9-6.6,19.8-6.6
			C53.7,85.5,62.4,88.6,62.6,92.3"/>
		<path class="st2" d="M62.6,92.3v40.8c-0.2,3.8-8.9,6.6-19.8,6.6s-19.7-3-19.8-6.6V92.3c0.2-3.8,8.9-6.6,19.8-6.6
			C53.7,85.5,62.4,88.6,62.6,92.3z"/>
		<path class="st2" d="M62.6,92.3c0,3.8-8.9,6.8-19.8,6.8S23,96.1,23,92.3"/>
		<path class="st2" d="M62.6,105.9c0,3.8-8.9,6.8-19.8,6.8s-19.8-3-19.8-6.8"/>
		<path class="st2" d="M62.6,119.3c0,3.8-8.9,6.8-19.8,6.8s-19.8-3-19.8-6.8"/>
	</g>
	<g>
		<path class="st1" d="M62.6,200.3V241c-0.2,3.8-8.9,6.6-19.8,6.6s-19.7-3-19.8-6.6v-40.8c0.2-3.8,8.9-6.6,19.8-6.6
			C53.7,193.5,62.4,196.5,62.6,200.3"/>
		<path class="st2" d="M62.6,200.3V241c-0.2,3.8-8.9,6.6-19.8,6.6s-19.7-3-19.8-6.6v-40.8c0.2-3.8,8.9-6.6,19.8-6.6
			C53.7,193.5,62.4,196.5,62.6,200.3z"/>
		<path class="st2" d="M62.6,200.3c0,3.8-8.9,6.8-19.8,6.8s-19.8-3-19.8-6.8"/>
		<path class="st2" d="M62.6,213.9c0,3.8-8.9,6.8-19.8,6.8s-19.8-3-19.8-6.8"/>
		<path class="st2" d="M62.6,227.3c0,3.8-8.9,6.8-19.8,6.8s-19.8-3-19.8-6.8"/>
	</g>
	<g>
		<path class="st1" d="M62.6,308.6v40.8c-0.2,3.8-8.9,6.6-19.8,6.6s-19.7-3-19.8-6.6v-40.8c0.2-3.8,8.9-6.6,19.8-6.6
			C53.7,301.8,62.4,304.9,62.6,308.6"/>
		<path class="st2" d="M62.6,308.6v40.8c-0.2,3.8-8.9,6.6-19.8,6.6s-19.7-3-19.8-6.6v-40.8c0.2-3.8,8.9-6.6,19.8-6.6
			C53.7,301.8,62.4,304.9,62.6,308.6z"/>
		<path class="st2" d="M62.6,308.6c0,3.8-8.9,6.8-19.8,6.8s-19.8-3-19.8-6.8"/>
		<path class="st2" d="M62.6,322.2c0,3.8-8.9,6.8-19.8,6.8S23,326,23,322.2"/>
		<path class="st2" d="M62.6,335.6c0,3.8-8.9,6.8-19.8,6.8s-19.8-3-19.8-6.8"/>
	</g>
	<path class="st3" d="M192.3,130.1h-72.4c-4.8,0-8.8-3.9-8.8-8.8v-17.4c0-4.8,3.9-8.8,8.8-8.8h72.4c4.8,0,8.8,3.9,8.8,8.8v17.4
		C201.1,126.2,197.1,130.1,192.3,130.1z"/>
	<path class="st3" d="M306.6,130.1h-72.4c-4.8,0-8.8-3.9-8.8-8.8v-17.4c0-4.8,3.9-8.8,8.8-8.8h72.4c4.8,0,8.8,3.9,8.8,8.8v17.4
		C315.4,126.2,311.5,130.1,306.6,130.1z"/>
	<text transform="matrix(1 0 0 1 134.6945 117.5443)" class="st4 st5 st6">BUILD 1</text>
	<text transform="matrix(1 0 0 1 252.9491 117.5443)" class="st4 st5 st6">ACC 1</text>
	<path class="st3" d="M192.3,191.4h-72.4c-4.8,0-8.8-3.9-8.8-8.8v-17.4c0-4.8,3.9-8.8,8.8-8.8h72.4c4.8,0,8.8,3.9,8.8,8.8v17.4
		C201.1,187.5,197.1,191.4,192.3,191.4z"/>
	<path class="st3" d="M306.6,191.4h-72.4c-4.8,0-8.8-3.9-8.8-8.8v-17.4c0-4.8,3.9-8.8,8.8-8.8h72.4c4.8,0,8.8,3.9,8.8,8.8v17.4
		C315.4,187.5,311.5,191.4,306.6,191.4z"/>
	<text transform="matrix(1 0 0 1 133.5392 178.8797)" class="st4 st5 st6">BUILD 2</text>
	<text transform="matrix(1 0 0 1 251.7943 178.8797)" class="st4 st5 st6">ACC 2</text>
	<path class="st3" d="M192.3,287.6h-72.4c-4.8,0-8.8-3.9-8.8-8.8v-17.4c0-4.8,3.9-8.8,8.8-8.8h72.4c4.8,0,8.8,3.9,8.8,8.8v17.4
		C201.1,283.6,197.1,287.6,192.3,287.6z"/>
	<path class="st3" d="M306.6,287.6h-72.4c-4.8,0-8.8-3.9-8.8-8.8v-17.4c0-4.8,3.9-8.8,8.8-8.8h72.4c4.8,0,8.8,3.9,8.8,8.8v17.4
		C315.4,283.6,311.5,287.6,306.6,287.6z"/>
	<text transform="matrix(1 0 0 1 133.5813 275.0203)" class="st4 st5 st6">BUILD 3</text>
	<text transform="matrix(1 0 0 1 251.8363 275.0203)" class="st4 st5 st6">ACC 3</text>
	<path class="st3" d="M447,239h-74c-4.9,0-8.9-4-8.9-8.9v-17.3c0-4.9,4-8.9,8.9-8.9h74c4.9,0,8.9,4,8.9,8.9v17.3
		C455.9,235,451.9,239,447,239z"/>
	<text transform="matrix(1 0 0 1 380.6633 226.439)" class="st4 st5 st6">PACKAGE</text>
	<path class="st3" d="M555.3,239h-74c-4.9,0-8.9-4-8.9-8.9v-17.3c0-4.9,4-8.9,8.9-8.9h74c4.9,0,8.9,4,8.9,8.9v17.3
		C564.2,235,560.2,239,555.3,239z"/>
	<text transform="matrix(1 0 0 1 476.3915 226.439)" class="st4 st5 st6">INTEGRATION</text>
	<path class="st3" d="M803.818,239h-72.4c-4.8,0-8.8-3.9-8.8-8.8v-17.4c0-4.8,3.9-8.8,8.8-8.8h72.4c4.8,0,8.8,3.9,8.8,8.8v17.4
		C812.618,235.1,808.718,239,803.818,239z"/>
	<text transform="matrix(1 0 0 1 739.751 226.439)" class="st4 st5 st6">STAGING</text>
	<path class="st3" d="M910.8,239h-72.4c-4.8,0-8.8-3.9-8.8-8.8v-17.4c0-4.8,3.9-8.8,8.8-8.8h72.4c4.8,0,8.8,3.9,8.8,8.8v17.4
		C919.6,235.1,915.6,239,910.8,239z"/>
	<text transform="matrix(1 0 0 1 833.2303 226.439)" class="st4 st5 st6">PRODUCTION</text>
	<path class="st3" d="M678.9,239h-72.4c-4.8,0-8.8-3.9-8.8-8.8v-17.4c0-4.8,3.9-8.8,8.8-8.8h72.4c4.8,0,8.8,3.9,8.8,8.8v17.4
		C687.7,235.1,683.8,239,678.9,239z"/>
	<text transform="matrix(1 0 0 1 615.3373 226.439)" class="st4 st5 st6">TEST ENV</text>
	<path class="st3" d="M678.9,177.1h-72.4c-4.8,0-8.8-3.9-8.8-8.8v-17.4c0-4.8,3.9-8.8,8.8-8.8h72.4c4.8,0,8.8,3.9,8.8,8.8v17.4
		C687.7,173.1,683.8,177.1,678.9,177.1z"/>
	<text transform="matrix(1 0 0 1 615.3373 164.5206)" class="st4 st5 st6">TEST ENV</text>
	<path class="st3" d="M678.9,300.9h-72.4c-4.8,0-8.8-3.9-8.8-8.8v-17.4c0-4.8,3.9-8.8,8.8-8.8h72.4c4.8,0,8.8,3.9,8.8,8.8v17.4
		C687.7,297,683.8,300.9,678.9,300.9z"/>
	<text transform="matrix(1 0 0 1 615.3373 288.3572)" class="st4 st5 st6">TEST ENV</text>
	<path class="st3" d="M192.3,349.3h-72.4c-4.8,0-8.8-3.9-8.8-8.8v-17.4c0-4.8,3.9-8.8,8.8-8.8h72.4c4.8,0,8.8,3.9,8.8,8.8v17.4
		C201.1,345.4,197.1,349.3,192.3,349.3z"/>
	<path class="st3" d="M306.6,349.3h-72.4c-4.8,0-8.8-3.9-8.8-8.8v-17.4c0-4.8,3.9-8.8,8.8-8.8h72.4c4.8,0,8.8,3.9,8.8,8.8v17.4
		C315.4,345.4,311.5,349.3,306.6,349.3z"/>
	<text transform="matrix(1 0 0 1 133.3781 336.7834)" class="st4 st5 st6">BUILD 4</text>
	<text transform="matrix(1 0 0 1 251.6332 336.7834)" class="st4 st5 st6">ACC 4</text>
	<g>
		<path class="st7" d="M669,41.8v53.9c-0.2,4.9-11.9,8.9-26.3,8.9c-14.4,0-26.1-4-26.3-8.9V41.8c0.2-4.9,11.9-8.9,26.3-8.9
			S668.8,36.9,669,41.8"/>
		<path class="st2" d="M669,41.8v53.9c-0.2,4.9-11.9,8.9-26.3,8.9c-14.4,0-26.1-4-26.3-8.9V41.8c0.2-4.9,11.9-8.9,26.3-8.9
			S668.8,36.9,669,41.8z"/>
		<path class="st2" d="M669,41.9c0,5-11.8,9-26.3,9s-26.3-4-26.3-9"/>
		<path class="st2" d="M669,59.8c0,5-11.8,9-26.3,9s-26.3-4-26.3-9"/>
		<path class="st2" d="M669,77.7c0,5-11.8,9-26.3,9s-26.3-4-26.3-9"/>
	</g>
	<path class="st2" d="M111.1,112.7c0,0-10.3,0-23.1,0s-24.1,0-24.1,0s11.3,0,24.1,0S111.1,112.7,111.1,112.7z"/>
	<path class="st2" d="M111.1,331.8c0,0-10.3,0-23.1,0s-24.1,0-24.1,0s11.3,0,24.1,0S111.1,331.8,111.1,331.8z"/>
	<path class="st2" d="M213.2,112.6c6.241,0,11.3,0,11.3,0S219.441,112.6,213.2,112.6s-11.3,0-11.3,0S206.959,112.6,213.2,112.6z"/>
	<path class="st2" d="M213.2,173.9c6.241,0,11.3,0,11.3,0S219.441,173.9,213.2,173.9s-11.3,0-11.3,0S206.959,173.9,213.2,173.9z"/>
	<path class="st2" d="M213.2,269.9c6.241,0,11.3,0,11.3,0S219.441,269.9,213.2,269.9s-11.3,0-11.3,0S206.959,269.9,213.2,269.9z"/>
	<path class="st2" d="M213.2,331.2c6.241,0,11.3,0,11.3,0S219.441,331.2,213.2,331.2s-11.3,0-11.3,0S206.959,331.2,213.2,331.2z"/>
	<polyline class="st2" points="114.1,255.2 63.9,221.8 113.1,187.5 	"/>
	<polyline class="st2" points="312.5,255.2 362.7,221.8 313.5,187.5 	"/>
	<polyline class="st2" points="600.7,268.9 565.2,221.8 600.7,174.1 	"/>
	<polyline class="st2" points="685.6,268.9 721.1,221.8 685.6,174.1 	"/>
	<polyline class="st2" points="314.1,318.4 362.7,221.8 312.5,127.8 	"/>
	<path class="st2" d="M464.9,221.3c4.197,0,7.6,0,7.6,0S469.097,221.3,464.9,221.3s-7.6,0-7.6,0S460.703,221.3,464.9,221.3z"/>
	<path class="st2" d="M820.5,221.3c4.197,0,7.6,0,7.6,0S824.697,221.3,820.5,221.3s-7.6,0-7.6,0S816.303,221.3,820.5,221.3z"/>
	<path class="st2" d="M597.7,221.3c0,0-20.1,0-24.3,0s-7.6,0-7.6,0s3.4,0,7.6,0S597.7,221.3,597.7,221.3z"/>
	<path class="st2" d="M721.3,221.3c0,0-20.1,0-24.3,0s-7.6,0-7.6,0s3.4,0,7.6,0S721.3,221.3,721.3,221.3z"/>
	<text transform="matrix(1 0 0 1 241.6009 228.3518)" class="st4 st8 st9">FAN IN </text>
	<text transform="matrix(1 0 0 1 11.181 156.4391)" class="st4 st5 st10">SOURCE CODE</text>
	<text transform="matrix(1 0 0 1 592.9544 22.1035)" class="st4 st5 st11">ENV &amp; APP CONFIG</text>
	<text transform="matrix(1 0 0 1 11.181 264.4391)" class="st4 st5 st10">SOURCE CODE</text>
	<text transform="matrix(1 0 0 1 11.181 372.4391)" class="st4 st5 st10">SOURCE CODE</text>
	<g>
		<text transform="matrix(1 0 0 1 121.3969 228.3523)" class="st4 st8 st9">FAN OUT</text>
	</g>
	<polyline class="st0" points="617.4,69 518.4,69 518.4,204 	"/>
	<polyline class="st0" points="673.1,69 772.1,69 874.6,69 874.6,204 	"/>
	<polyline class="st2" points="472.5,387.5 472.5,406.3 919.6,406.3 919.6,388.1 	"/>
	<polyline class="st2" points="41.799,387.5 41.799,406.3 455.801,406.3 455.801,388.1 	"/>
	<g>
		<text transform="matrix(1 0 0 1 216.019 428.8074)" class="st4 st8 st9">BUILD</text>
	</g>
	<g>
		<text transform="matrix(1 0 0 1 645.2104 428.8074)" class="st4 st8 st9">TEST &amp; RELEASE</text>
	</g>
</g>
<g id="Outlined">
</g>
</svg>
